SplineFontDB: 3.0
FontName: AbyssinicaSIL
FullName: Abyssinica SIL
FamilyName: Abyssinica SIL
Weight: Book
Copyright: Copyright (c) 2000-2010 by SIL International. All rights reserved.
Version: 1.200
ItalicAngle: 0
UnderlinePosition: -272
UnderlineWidth: 41
Ascent: 1729
Descent: 319
InvalidEm: 0
sfntRevision: 0x00013333
LayerCount: 2
Layer: 0 1 "Back" 1
Layer: 1 1 "Fore" 0
XUID: [1021 542 582384140 6049345]
StyleMap: 0x0040
FSType: 0
OS2Version: 3
OS2_WeightWidthSlopeOnly: 0
OS2_UseTypoMetrics: 0
CreationTime: 1289967377
ModificationTime: 1292260102
PfmFamily: 17
TTFWeight: 400
TTFWidth: 5
LineGap: 512
VLineGap: 0
Panose: 2 0 6 3 2 0 0 2 0 4
OS2TypoAscent: 1729
OS2TypoAOffset: 0
OS2TypoDescent: -319
OS2TypoDOffset: 0
OS2TypoLinegap: 512
OS2WinAscent: 2034
OS2WinAOffset: 0
OS2WinDescent: 682
OS2WinDOffset: 0
HheadAscent: 1729
HheadAOffset: 0
HheadDescent: -319
HheadDOffset: 0
OS2SubXSize: 1434
OS2SubYSize: 1331
OS2SubXOff: 0
OS2SubYOff: 287
OS2SupXSize: 1434
OS2SupYSize: 1331
OS2SupXOff: 0
OS2SupYOff: 977
OS2StrikeYSize: 102
OS2StrikeYPos: 512
OS2CapHeight: 1108
OS2XHeight: 983
OS2Vendor: 'SIL '
OS2CodePages: 20000001.00000000
OS2UnicodeRanges: 800000ef.5000a04b.00000828.00000000
Lookup: 1 0 0 "'ss12' Style Set 12 in Ethiopic lookup 0" { "'ss12' Style Set 12 in Ethiopic lookup 0 subtable"  } ['ss12' ('DFLT' <'dflt' > 'ethi' <'AMH ' 'GUK ' 'ORO ' 'SGW ' 'dflt' > ) ]
Lookup: 1 0 0 "'ss11' Style Set 11 in Ethiopic lookup 1" { "'ss11' Style Set 11 in Ethiopic lookup 1 subtable"  } ['ss11' ('DFLT' <'dflt' > 'ethi' <'AMH ' 'GUK ' 'ORO ' 'SGW ' 'dflt' > ) ]
Lookup: 1 0 0 "'ss10' Style Set 10 in Ethiopic lookup 2" { "'ss10' Style Set 10 in Ethiopic lookup 2 subtable"  } ['ss10' ('DFLT' <'dflt' > 'ethi' <'SGW ' 'dflt' > ) ]
Lookup: 1 0 0 "'ss05' Style Set 5 in Ethiopic lookup 3" { "'ss05' Style Set 5 in Ethiopic lookup 3 subtable"  } ['ccmp' ('ethi' <'SGW ' > ) 'ss05' ('DFLT' <'dflt' > 'ethi' <'SGW ' 'dflt' > ) ]

StartChar: quotesingle
Encoding: 39 39 4
Width: 385
Flags: W
LayerCount: 2
Fore
SplineSet
297 1262 m 0,0,1
 297 1243 297 1243 289.5 1196 c 128,-1,2
 282 1149 282 1149 268 1071 c 2,3,-1
 213 766 l 1,4,-1
 166 766 l 1,5,-1
 111 1073 l 2,6,7
 98 1138 98 1138 93 1181 c 128,-1,8
 88 1224 88 1224 88 1247 c 0,9,10
 88 1312 88 1312 112.5 1342 c 128,-1,11
 137 1372 137 1372 186 1372 c 0,12,13
 215 1372 215 1372 236 1361.5 c 128,-1,14
 257 1351 257 1351 270.5 1335 c 128,-1,15
 284 1319 284 1319 290.5 1299.5 c 128,-1,16
 297 1280 297 1280 297 1262 c 0,0,1
EndSplineSet
EndChar

StartChar: parenleft
Encoding: 40 40 5
Width: 680
Flags: W
LayerCount: 2
Fore
SplineSet
557 -8 m 0,0,1
 557 -24 557 -24 548.5 -32.5 c 128,-1,2
 540 -41 540 -41 518 -41 c 0,3,4
 493 -41 493 -41 453.5 -12.5 c 128,-1,5
 414 16 414 16 370 67 c 128,-1,6
 326 118 326 118 282 186.5 c 128,-1,7
 238 255 238 255 202.5 336 c 128,-1,8
 167 417 167 417 145 505.5 c 128,-1,9
 123 594 123 594 123 684 c 256,10,11
 123 774 123 774 144.5 862.5 c 128,-1,12
 166 951 166 951 200.5 1031.5 c 128,-1,13
 235 1112 235 1112 279 1180.5 c 128,-1,14
 323 1249 323 1249 367.5 1299.5 c 128,-1,15
 412 1350 412 1350 453 1378.5 c 128,-1,16
 494 1407 494 1407 524 1407 c 0,17,18
 537 1407 537 1407 547 1399.5 c 128,-1,19
 557 1392 557 1392 557 1372 c 0,20,21
 557 1353 557 1353 541 1333.5 c 128,-1,22
 525 1314 525 1314 501 1283.5 c 128,-1,23
 477 1253 477 1253 448.5 1207.5 c 128,-1,24
 420 1162 420 1162 396 1091.5 c 128,-1,25
 372 1021 372 1021 356 920.5 c 128,-1,26
 340 820 340 820 340 680 c 256,27,28
 340 540 340 540 356 441 c 128,-1,29
 372 342 372 342 396 273 c 128,-1,30
 420 204 420 204 448.5 159.5 c 128,-1,31
 477 115 477 115 501 85 c 128,-1,32
 525 55 525 55 541 34.5 c 128,-1,33
 557 14 557 14 557 -8 c 0,0,1
EndSplineSet
EndChar

StartChar: parenright
Encoding: 41 41 6
Width: 680
Flags: W
LayerCount: 2
Fore
SplineSet
557 682 m 256,0,1
 557 592 557 592 535.5 503.5 c 128,-1,2
 514 415 514 415 479.5 334.5 c 128,-1,3
 445 254 445 254 401 185.5 c 128,-1,4
 357 117 357 117 312.5 66.5 c 128,-1,5
 268 16 268 16 226.5 -12.5 c 128,-1,6
 185 -41 185 -41 156 -41 c 0,7,8
 143 -41 143 -41 133 -33.5 c 128,-1,9
 123 -26 123 -26 123 -6 c 0,10,11
 123 13 123 13 139 32.5 c 128,-1,12
 155 52 155 52 179 82.5 c 128,-1,13
 203 113 203 113 231.5 158.5 c 128,-1,14
 260 204 260 204 284 274.5 c 128,-1,15
 308 345 308 345 324 445.5 c 128,-1,16
 340 546 340 546 340 686 c 256,17,18
 340 826 340 826 324 925 c 128,-1,19
 308 1024 308 1024 284 1093 c 128,-1,20
 260 1162 260 1162 231.5 1206.5 c 128,-1,21
 203 1251 203 1251 179 1281 c 128,-1,22
 155 1311 155 1311 139 1331.5 c 128,-1,23
 123 1352 123 1352 123 1374 c 0,24,25
 123 1390 123 1390 131.5 1398.5 c 128,-1,26
 140 1407 140 1407 162 1407 c 0,27,28
 187 1407 187 1407 226.5 1378.5 c 128,-1,29
 266 1350 266 1350 310 1299 c 128,-1,30
 354 1248 354 1248 398 1179.5 c 128,-1,31
 442 1111 442 1111 477.5 1030 c 128,-1,32
 513 949 513 949 535 860.5 c 128,-1,33
 557 772 557 772 557 682 c 256,0,1
EndSplineSet
EndChar

StartChar: endash
Encoding: 8211 8211 7
Width: 1241
Flags: W
LayerCount: 2
Fore
SplineSet
53 383 m 1,0,-1
 53 600 l 1,1,-1
 1184 600 l 1,2,-1
 1184 383 l 1,3,-1
 53 383 l 1,0,-1
EndSplineSet
EndChar

StartChar: bracketleft
Encoding: 91 91 8
Width: 680
Flags: W
LayerCount: 2
Fore
SplineSet
176 -158 m 1,0,-1
 176 1487 l 1,1,-1
 584 1487 l 1,2,-1
 584 1364 l 1,3,-1
 367 1364 l 1,4,-1
 367 -41 l 1,5,-1
 584 -41 l 1,6,-1
 584 -158 l 1,7,-1
 176 -158 l 1,0,-1
EndSplineSet
EndChar

StartChar: backslash
Encoding: 92 92 9
Width: 831
Flags: W
LayerCount: 2
Fore
SplineSet
608 -12 m 1,0,-1
 0 1434 l 1,1,-1
 221 1432 l 1,2,-1
 834 -12 l 1,3,-1
 608 -12 l 1,0,-1
EndSplineSet
EndChar

StartChar: bracketright
Encoding: 93 93 10
Width: 680
Flags: W
LayerCount: 2
Fore
SplineSet
82 -158 m 1,0,-1
 82 -35 l 1,1,-1
 299 -35 l 1,2,-1
 299 1370 l 1,3,-1
 82 1370 l 1,4,-1
 82 1487 l 1,5,-1
 489 1487 l 1,6,-1
 489 -158 l 1,7,-1
 82 -158 l 1,0,-1
EndSplineSet
EndChar

StartChar: underscore
Encoding: 95 95 11
Width: 1229
Flags: W
LayerCount: 2
Fore
SplineSet
0 -682 m 1,0,-1
 0 -479 l 1,1,-1
 1229 -479 l 1,2,-1
 1229 -682 l 1,3,-1
 0 -682 l 1,0,-1
EndSplineSet
EndChar

StartChar: comma
Encoding: 44 44 12
Width: 696
Flags: W
LayerCount: 2
Fore
SplineSet
489 90 m 0,0,1
 489 25 489 25 472 -32.5 c 128,-1,2
 455 -90 455 -90 428 -138 c 128,-1,3
 401 -186 401 -186 367 -223.5 c 128,-1,4
 333 -261 333 -261 298.5 -287.5 c 128,-1,5
 264 -314 264 -314 232.5 -328 c 128,-1,6
 201 -342 201 -342 180 -342 c 0,7,8
 163 -342 163 -342 156.5 -335 c 128,-1,9
 150 -328 150 -328 150 -317 c 0,10,11
 150 -311 150 -311 161.5 -298.5 c 128,-1,12
 173 -286 173 -286 193 -266 c 0,13,14
 255 -206 255 -206 284 -144.5 c 128,-1,15
 313 -83 313 -83 313 0 c 1,16,17
 281 0 281 0 254 9 c 128,-1,18
 227 18 227 18 207 36.5 c 128,-1,19
 187 55 187 55 175.5 82.5 c 128,-1,20
 164 110 164 110 164 147 c 256,21,22
 164 184 164 184 174.5 214.5 c 128,-1,23
 185 245 185 245 205.5 267 c 128,-1,24
 226 289 226 289 254.5 301 c 128,-1,25
 283 313 283 313 319 313 c 256,26,27
 355 313 355 313 386.5 303 c 128,-1,28
 418 293 418 293 440.5 268 c 128,-1,29
 463 243 463 243 476 200 c 128,-1,30
 489 157 489 157 489 90 c 0,0,1
EndSplineSet
EndChar

StartChar: period
Encoding: 46 46 13
Width: 653
Flags: W
LayerCount: 2
Fore
SplineSet
436 158 m 256,0,1
 436 125 436 125 424 96 c 128,-1,2
 412 67 412 67 390.5 46 c 128,-1,3
 369 25 369 25 340.5 12.5 c 128,-1,4
 312 0 312 0 279 0 c 256,5,6
 246 0 246 0 217 12.5 c 128,-1,7
 188 25 188 25 166.5 46 c 128,-1,8
 145 67 145 67 133 96 c 128,-1,9
 121 125 121 125 121 158 c 256,10,11
 121 191 121 191 133 219.5 c 128,-1,12
 145 248 145 248 166.5 269.5 c 128,-1,13
 188 291 188 291 217 303 c 128,-1,14
 246 315 246 315 279 315 c 256,15,16
 312 315 312 315 340.5 303 c 128,-1,17
 369 291 369 291 390.5 269.5 c 128,-1,18
 412 248 412 248 424 219.5 c 128,-1,19
 436 191 436 191 436 158 c 256,0,1
EndSplineSet
EndChar

StartChar: hyphen
Encoding: 45 45 14
Width: 752
Flags: W
LayerCount: 2
Fore
SplineSet
123 395 m 1,0,-1
 123 545 l 1,1,-1
 627 545 l 1,2,-1
 627 395 l 1,3,-1
 123 395 l 1,0,-1
EndSplineSet
EndChar

StartChar: emdash
Encoding: 8212 8212 15
Width: 2048
Flags: W
LayerCount: 2
Fore
SplineSet
0 385 m 1,0,-1
 0 600 l 1,1,-1
 2048 600 l 1,2,-1
 2048 385 l 1,3,-1
 0 385 l 1,0,-1
EndSplineSet
EndChar

StartChar: uni1369
Encoding: 4969 4969 16
Width: 1036
Flags: W
LayerCount: 2
Fore
SplineSet
954 365 m 0,0,1
 954 203 954 203 867 116 c 128,-1,2
 780 29 780 29 612 29 c 0,3,4
 594 29 594 29 582.5 30 c 128,-1,5
 571 31 571 31 561 32 c 128,-1,6
 551 33 551 33 541 34 c 128,-1,7
 531 35 531 35 516 35 c 256,8,9
 501 35 501 35 482 29.5 c 128,-1,10
 463 24 463 24 440 17.5 c 128,-1,11
 417 11 417 11 389 5.5 c 128,-1,12
 361 0 361 0 330 0 c 0,13,14
 217 0 217 0 156.5 60.5 c 128,-1,15
 96 121 96 121 96 227 c 0,16,17
 96 250 96 250 104.5 282 c 128,-1,18
 113 314 113 314 124 343 c 0,19,20
 136 376 136 376 152 412 c 2,21,-1
 362 793 l 2,22,23
 370 807 370 807 376 822 c 0,24,25
 381 834 381 834 386 848.5 c 128,-1,26
 391 863 391 863 391 874 c 256,27,28
 391 885 391 885 385 894 c 128,-1,29
 379 903 379 903 371 908 c 0,30,31
 362 914 362 914 352 918 c 1,32,-1
 354 954 l 1,33,34
 399 965 399 965 441 974 c 0,35,36
 477 982 477 982 515.5 988.5 c 128,-1,37
 554 995 554 995 580 995 c 256,38,39
 606 995 606 995 623 986.5 c 128,-1,40
 640 978 640 978 650 963 c 128,-1,41
 660 948 660 948 664 927.5 c 128,-1,42
 668 907 668 907 668 883 c 0,43,44
 668 858 668 858 660.5 830.5 c 128,-1,45
 653 803 653 803 645 780 c 0,46,47
 635 753 635 753 623 727 c 2,48,-1
 598 682 l 1,49,-1
 657 682 l 2,50,51
 717 682 717 682 771 662.5 c 128,-1,52
 825 643 825 643 865.5 604 c 128,-1,53
 906 565 906 565 930 505.5 c 128,-1,54
 954 446 954 446 954 365 c 0,0,1
1016 1126 m 1,55,56
 998 1117 998 1117 976 1110 c 0,57,58
 957 1104 957 1104 932 1099 c 128,-1,59
 907 1094 907 1094 879 1094 c 0,60,61
 845 1094 845 1094 822 1100 c 128,-1,62
 799 1106 799 1106 783.5 1119 c 128,-1,63
 768 1132 768 1132 758 1151.5 c 128,-1,64
 748 1171 748 1171 739 1198 c 1,65,-1
 492 1169 l 1,66,67
 499 1145 499 1145 483.5 1121.5 c 128,-1,68
 468 1098 468 1098 440.5 1079.5 c 128,-1,69
 413 1061 413 1061 376.5 1049.5 c 128,-1,70
 340 1038 340 1038 305 1038 c 0,71,72
 289 1038 289 1038 276 1040.5 c 128,-1,73
 263 1043 263 1043 253 1047 c 0,74,75
 242 1051 242 1051 231 1057 c 1,76,77
 242 1077 242 1077 251 1096 c 0,78,79
 259 1113 259 1113 265.5 1131.5 c 128,-1,80
 272 1150 272 1150 272 1167 c 0,81,82
 272 1175 272 1175 270.5 1185 c 128,-1,83
 269 1195 269 1195 267 1204 c 0,84,85
 264 1215 264 1215 262 1225 c 1,86,-1
 969 1296 l 1,87,88
 970 1268 970 1268 975 1239 c 0,89,90
 980 1214 980 1214 989 1184 c 128,-1,91
 998 1154 998 1154 1016 1126 c 1,55,56
870 -223 m 1,92,93
 857 -233 857 -233 839 -241 c 0,94,95
 824 -248 824 -248 802 -253 c 128,-1,96
 780 -258 780 -258 754 -258 c 0,97,98
 727 -258 727 -258 702.5 -253.5 c 128,-1,99
 678 -249 678 -249 658.5 -238.5 c 128,-1,100
 639 -228 639 -228 624.5 -209.5 c 128,-1,101
 610 -191 610 -191 604 -162 c 1,102,-1
 354 -182 l 1,103,104
 355 -216 355 -216 341 -240.5 c 128,-1,105
 327 -265 327 -265 301 -281 c 128,-1,106
 275 -297 275 -297 239 -305 c 128,-1,107
 203 -313 203 -313 162 -313 c 0,108,109
 145 -313 145 -313 132 -310 c 128,-1,110
 119 -307 119 -307 111 -303 c 0,111,112
 101 -299 101 -299 94 -293 c 1,113,114
 105 -278 105 -278 115 -260 c 0,115,116
 123 -245 123 -245 130 -226.5 c 128,-1,117
 137 -208 137 -208 137 -190 c 0,118,119
 137 -179 137 -179 134.5 -169 c 128,-1,120
 132 -159 132 -159 130 -151 c 0,121,122
 126 -141 126 -141 123 -133 c 1,123,-1
 827 -63 l 1,124,125
 830 -95 830 -95 836 -125 c 0,126,127
 841 -151 841 -151 849 -178 c 128,-1,128
 857 -205 857 -205 870 -223 c 1,92,93
670 356 m 256,129,130
 670 429 670 429 657.5 476.5 c 128,-1,131
 645 524 645 524 628.5 552 c 128,-1,132
 612 580 612 580 595.5 591 c 128,-1,133
 579 602 579 602 571 602 c 0,134,135
 568 602 568 602 564 602 c 128,-1,136
 560 602 560 602 557 600 c 2,137,-1
 416 332 l 2,138,139
 406 320 406 320 398 303 c 0,140,141
 391 289 391 289 386 268 c 128,-1,142
 381 247 381 247 381 221 c 0,143,144
 381 169 381 169 409 139 c 128,-1,145
 437 109 437 109 494 109 c 0,146,147
 539 109 539 109 572 120.5 c 128,-1,148
 605 132 605 132 627 160 c 128,-1,149
 649 188 649 188 659.5 235.5 c 128,-1,150
 670 283 670 283 670 356 c 256,129,130
EndSplineSet
EndChar

StartChar: uni136A
Encoding: 4970 4970 17
Width: 954
Flags: W
LayerCount: 2
Fore
SplineSet
885 1159 m 1,0,1
 867 1149 867 1149 845 1142 c 0,2,3
 826 1136 826 1136 801 1131 c 128,-1,4
 776 1126 776 1126 748 1126 c 0,5,6
 714 1126 714 1126 691 1132.5 c 128,-1,7
 668 1139 668 1139 652.5 1151.5 c 128,-1,8
 637 1164 637 1164 627 1184 c 128,-1,9
 617 1204 617 1204 608 1231 c 1,10,-1
 365 1212 l 1,11,12
 372 1188 372 1188 356.5 1164.5 c 128,-1,13
 341 1141 341 1141 313.5 1122.5 c 128,-1,14
 286 1104 286 1104 249.5 1092.5 c 128,-1,15
 213 1081 213 1081 178 1081 c 0,16,17
 162 1081 162 1081 149 1083.5 c 128,-1,18
 136 1086 136 1086 126 1090 c 0,19,20
 115 1094 115 1094 104 1100 c 1,21,22
 115 1120 115 1120 124 1139 c 0,23,24
 132 1156 132 1156 138.5 1174.5 c 128,-1,25
 145 1193 145 1193 145 1210 c 0,26,27
 145 1218 145 1218 143.5 1229 c 128,-1,28
 142 1240 142 1240 140 1250 c 0,29,30
 137 1261 137 1261 135 1274 c 1,31,-1
 838 1329 l 1,32,33
 839 1301 839 1301 844 1272 c 0,34,35
 849 1247 849 1247 858 1217 c 128,-1,36
 867 1187 867 1187 885 1159 c 1,0,1
846 825 m 256,37,38
 846 757 846 757 819 699 c 128,-1,39
 792 641 792 641 744.5 598 c 128,-1,40
 697 555 697 555 632.5 530.5 c 128,-1,41
 568 506 568 506 492 506 c 0,42,43
 463 506 463 506 431.5 509.5 c 128,-1,44
 400 513 400 513 375 518 c 1,45,-1
 375 506 l 2,46,47
 375 466 375 466 376.5 422.5 c 128,-1,48
 378 379 378 379 383 334 c 1,49,50
 405 338 405 338 443 344 c 128,-1,51
 481 350 481 350 522.5 355.5 c 128,-1,52
 564 361 564 361 603 365 c 128,-1,53
 642 369 642 369 668 369 c 0,54,55
 699 369 699 369 726.5 360.5 c 128,-1,56
 754 352 754 352 774 335.5 c 128,-1,57
 794 319 794 319 805.5 294 c 128,-1,58
 817 269 817 269 817 236 c 0,59,60
 817 194 817 194 799.5 160 c 128,-1,61
 782 126 782 126 753.5 100 c 128,-1,62
 725 74 725 74 688 55 c 128,-1,63
 651 36 651 36 612.5 24 c 128,-1,64
 574 12 574 12 537 6 c 128,-1,65
 500 0 500 0 471 0 c 0,66,67
 374 0 374 0 303.5 41.5 c 128,-1,68
 233 83 233 83 187 158.5 c 128,-1,69
 141 234 141 234 118.5 340 c 128,-1,70
 96 446 96 446 96 575 c 256,71,72
 96 704 96 704 127.5 792.5 c 128,-1,73
 159 881 159 881 221 935 c 128,-1,74
 283 989 283 989 375.5 1012.5 c 128,-1,75
 468 1036 468 1036 590 1036 c 0,76,77
 643 1036 643 1036 689.5 1028.5 c 128,-1,78
 736 1021 736 1021 771 998.5 c 128,-1,79
 806 976 806 976 826 934.5 c 128,-1,80
 846 893 846 893 846 825 c 256,37,38
899 -238 m 1,81,82
 885 -248 885 -248 867 -255 c 0,83,84
 852 -262 852 -262 830.5 -267 c 128,-1,85
 809 -272 809 -272 782 -272 c 256,86,87
 755 -272 755 -272 731 -267.5 c 128,-1,88
 707 -263 707 -263 687 -252.5 c 128,-1,89
 667 -242 667 -242 653 -223.5 c 128,-1,90
 639 -205 639 -205 633 -176 c 1,91,-1
 383 -197 l 1,92,93
 384 -231 384 -231 370 -255.5 c 128,-1,94
 356 -280 356 -280 329.5 -296 c 128,-1,95
 303 -312 303 -312 267.5 -320 c 128,-1,96
 232 -328 232 -328 190 -328 c 0,97,98
 173 -328 173 -328 160.5 -325 c 128,-1,99
 148 -322 148 -322 140 -318 c 0,100,101
 130 -314 130 -314 123 -307 c 1,102,103
 134 -292 134 -292 144 -274 c 0,104,105
 152 -259 152 -259 159 -241 c 128,-1,106
 166 -223 166 -223 166 -205 c 0,107,108
 166 -194 166 -194 163.5 -183.5 c 128,-1,109
 161 -173 161 -173 159 -165 c 0,110,111
 155 -155 155 -155 152 -147 c 1,112,-1
 856 -78 l 1,113,114
 859 -109 859 -109 864 -139 c 0,115,116
 869 -165 869 -165 877 -192 c 128,-1,117
 885 -219 885 -219 899 -238 c 1,81,82
588 872 m 0,118,119
 588 916 588 916 572 936 c 128,-1,120
 556 956 556 956 510 956 c 0,121,122
 472 956 472 956 446.5 931.5 c 128,-1,123
 421 907 421 907 405.5 860 c 128,-1,124
 390 813 390 813 383 743 c 128,-1,125
 376 673 376 673 375 582 c 1,126,127
 416 586 416 586 454.5 612.5 c 128,-1,128
 493 639 493 639 522.5 680 c 128,-1,129
 552 721 552 721 570 771 c 128,-1,130
 588 821 588 821 588 872 c 0,118,119
561 170 m 0,131,132
 561 194 561 194 556 213 c 128,-1,133
 551 232 551 232 538.5 245.5 c 128,-1,134
 526 259 526 259 503.5 266.5 c 128,-1,135
 481 274 481 274 446 274 c 0,136,137
 434 274 434 274 419 271.5 c 128,-1,138
 404 269 404 269 391 266 c 1,139,140
 397 225 397 225 406 189 c 128,-1,141
 415 153 415 153 427.5 126 c 128,-1,142
 440 99 440 99 456.5 83.5 c 128,-1,143
 473 68 473 68 494 68 c 0,144,145
 526 68 526 68 543.5 95 c 128,-1,146
 561 122 561 122 561 170 c 0,131,132
EndSplineSet
EndChar

StartChar: uni136B
Encoding: 4971 4971 18
Width: 997
Flags: W
LayerCount: 2
Fore
SplineSet
913 1104 m 1,0,1
 891 1094 891 1094 867 1087 c 0,2,3
 847 1081 847 1081 823 1076 c 128,-1,4
 799 1071 799 1071 776 1071 c 0,5,6
 731 1071 731 1071 692.5 1096.5 c 128,-1,7
 654 1122 654 1122 637 1176 c 1,8,-1
 393 1157 l 1,9,10
 400 1133 400 1133 390.5 1109.5 c 128,-1,11
 381 1086 381 1086 357 1067.5 c 128,-1,12
 333 1049 333 1049 295 1037.5 c 128,-1,13
 257 1026 257 1026 207 1026 c 0,14,15
 191 1026 191 1026 178 1028.5 c 128,-1,16
 165 1031 165 1031 155 1035 c 0,17,18
 144 1039 144 1039 133 1044 c 1,19,20
 144 1064 144 1064 153 1083 c 0,21,22
 161 1100 161 1100 167.5 1119 c 128,-1,23
 174 1138 174 1138 174 1155 c 0,24,25
 174 1163 174 1163 172.5 1174 c 128,-1,26
 171 1185 171 1185 169 1195 c 0,27,28
 166 1206 166 1206 164 1219 c 1,29,-1
 866 1274 l 1,30,31
 867 1246 867 1246 872 1217 c 0,32,33
 877 1192 877 1192 886 1162 c 128,-1,34
 895 1132 895 1132 913 1104 c 1,0,1
946 705 m 1,35,36
 937 691 937 691 921 680 c 0,37,38
 907 670 907 670 884.5 662.5 c 128,-1,39
 862 655 862 655 829 655 c 256,40,41
 796 655 796 655 758 669 c 128,-1,42
 720 683 720 683 688.5 710.5 c 128,-1,43
 657 738 657 738 639 779.5 c 128,-1,44
 621 821 621 821 627 877 c 1,45,-1
 426 862 l 1,46,-1
 387 213 l 2,47,48
 385 191 385 191 383 172 c 0,49,50
 381 155 381 155 380 138.5 c 128,-1,51
 379 122 379 122 379 111 c 256,52,53
 379 100 379 100 383.5 92 c 128,-1,54
 388 84 388 84 393 79 c 0,55,56
 399 73 399 73 408 68 c 1,57,-1
 408 29 l 1,58,-1
 242 6 l 2,59,60
 236 4 236 4 227 3 c 0,61,62
 212 0 212 0 186 0 c 0,63,64
 154 0 154 0 132.5 17.5 c 128,-1,65
 111 35 111 35 111 86 c 0,66,67
 111 100 111 100 111.5 113 c 128,-1,68
 112 126 112 126 113 135 c 0,69,70
 114 146 114 146 115 154 c 2,71,-1
 152 922 l 1,72,-1
 913 977 l 1,73,74
 912 962 912 962 911 943 c 0,75,76
 910 926 910 926 909.5 901 c 128,-1,77
 909 876 909 876 909 844 c 0,78,79
 909 792 909 792 914.5 764.5 c 128,-1,80
 920 737 920 737 927 723 c 0,81,82
 935 707 935 707 946 705 c 1,35,36
813 -236 m 1,83,84
 801 -246 801 -246 784 -254 c 0,85,86
 770 -261 770 -261 749.5 -266.5 c 128,-1,87
 729 -272 729 -272 702 -272 c 0,88,89
 669 -272 669 -272 643.5 -267 c 128,-1,90
 618 -262 618 -262 599.5 -249.5 c 128,-1,91
 581 -237 581 -237 569.5 -215.5 c 128,-1,92
 558 -194 558 -194 553 -160 c 1,93,-1
 346 -176 l 1,94,95
 347 -210 347 -210 334 -237.5 c 128,-1,96
 321 -265 321 -265 296 -284.5 c 128,-1,97
 271 -304 271 -304 236 -315 c 128,-1,98
 201 -326 201 -326 160 -326 c 0,99,100
 143 -326 143 -326 128.5 -321 c 128,-1,101
 114 -316 114 -316 103 -310 c 0,102,103
 91 -303 91 -303 80 -293 c 1,104,105
 90 -278 90 -278 99 -261 c 0,106,107
 107 -247 107 -247 113 -229 c 128,-1,108
 119 -211 119 -211 119 -193 c 0,109,110
 119 -182 119 -182 118.5 -170.5 c 128,-1,111
 118 -159 118 -159 117 -149 c 0,112,113
 116 -138 116 -138 115 -127 c 1,114,-1
 752 -66 l 1,115,116
 755 -96 755 -96 760 -119.5 c 128,-1,117
 765 -143 765 -143 772.5 -162.5 c 128,-1,118
 780 -182 780 -182 790 -199.5 c 128,-1,119
 800 -217 800 -217 813 -236 c 1,83,84
EndSplineSet
EndChar

StartChar: uni136C
Encoding: 4972 4972 19
Width: 819
Flags: W
LayerCount: 2
Fore
SplineSet
791 567 m 0,0,1
 791 448 791 448 753.5 357.5 c 128,-1,2
 716 267 716 267 656 205.5 c 128,-1,3
 596 144 596 144 521 113 c 128,-1,4
 446 82 446 82 371 82 c 0,5,6
 346 82 346 82 312.5 86 c 128,-1,7
 279 90 279 90 244 102 c 128,-1,8
 209 114 209 114 175 137.5 c 128,-1,9
 141 161 141 161 114.5 199.5 c 128,-1,10
 88 238 88 238 71.5 295 c 128,-1,11
 55 352 55 352 55 432 c 0,12,13
 55 538 55 538 82 626.5 c 128,-1,14
 109 715 109 715 160 778.5 c 128,-1,15
 211 842 211 842 286 877.5 c 128,-1,16
 361 913 361 913 457 913 c 0,17,18
 523 913 523 913 583.5 890.5 c 128,-1,19
 644 868 644 868 690 824.5 c 128,-1,20
 736 781 736 781 763.5 716.5 c 128,-1,21
 791 652 791 652 791 567 c 0,0,1
526 727 m 0,22,23
 526 765 526 765 524 790.5 c 128,-1,24
 522 816 522 816 514.5 831.5 c 128,-1,25
 507 847 507 847 493.5 853.5 c 128,-1,26
 480 860 480 860 457 860 c 256,27,28
 434 860 434 860 415.5 839.5 c 128,-1,29
 397 819 397 819 382.5 784.5 c 128,-1,30
 368 750 368 750 357 705 c 128,-1,31
 346 660 346 660 338 611.5 c 128,-1,32
 330 563 330 563 325 514 c 128,-1,33
 320 465 320 465 316.5 422.5 c 128,-1,34
 313 380 313 380 312 347.5 c 128,-1,35
 311 315 311 315 311 299 c 0,36,37
 311 214 311 214 326 174.5 c 128,-1,38
 341 135 341 135 375 135 c 0,39,40
 403 135 403 135 425.5 172 c 128,-1,41
 448 209 448 209 465 266 c 128,-1,42
 482 323 482 323 493.5 392.5 c 128,-1,43
 505 462 505 462 512 528 c 128,-1,44
 519 594 519 594 522.5 647.5 c 128,-1,45
 526 701 526 701 526 727 c 0,22,23
797 1071 m 1,46,47
 777 1061 777 1061 755 1054 c 0,48,49
 736 1048 736 1048 713 1043 c 128,-1,50
 690 1038 690 1038 668 1038 c 0,51,52
 645 1038 645 1038 621 1044 c 128,-1,53
 597 1050 597 1050 576.5 1064.5 c 128,-1,54
 556 1079 556 1079 543 1102 c 128,-1,55
 530 1125 530 1125 530 1159 c 1,56,-1
 326 1145 l 1,57,58
 332 1124 332 1124 323.5 1098 c 128,-1,59
 315 1072 315 1072 292 1049 c 128,-1,60
 269 1026 269 1026 232 1010.5 c 128,-1,61
 195 995 195 995 145 995 c 0,62,63
 129 995 129 995 114.5 997 c 128,-1,64
 100 999 100 999 89 1001 c 0,65,66
 76 1004 76 1004 63 1008 c 1,67,68
 71 1024 71 1024 77 1042 c 0,69,70
 82 1057 82 1057 87 1074 c 128,-1,71
 92 1091 92 1091 92 1108 c 0,72,73
 92 1116 92 1116 89.5 1127.5 c 128,-1,74
 87 1139 87 1139 85 1150 c 0,75,76
 81 1163 81 1163 78 1178 c 1,77,-1
 766 1229 l 1,78,79
 765 1224 765 1224 764 1219 c 256,80,81
 763 1214 763 1214 763 1208 c 128,-1,82
 763 1202 763 1202 763 1194 c 0,83,84
 763 1171 763 1171 769.5 1137.5 c 128,-1,85
 776 1104 776 1104 797 1071 c 1,46,47
782 -217 m 1,86,87
 758 -225 758 -225 736 -231 c 0,88,89
 717 -236 717 -236 697.5 -240 c 128,-1,90
 678 -244 678 -244 664 -244 c 0,91,92
 608 -244 608 -244 570 -213.5 c 128,-1,93
 532 -183 532 -183 518 -121 c 1,94,-1
 319 -141 l 1,95,96
 318 -183 318 -183 304.5 -211.5 c 128,-1,97
 291 -240 291 -240 267 -256.5 c 128,-1,98
 243 -273 243 -273 209 -280 c 128,-1,99
 175 -287 175 -287 133 -287 c 0,100,101
 101 -287 101 -287 76 -281 c 128,-1,102
 51 -275 51 -275 49 -274 c 1,103,104
 50 -273 50 -273 56 -267.5 c 128,-1,105
 62 -262 62 -262 69 -250 c 128,-1,106
 76 -238 76 -238 82 -219.5 c 128,-1,107
 88 -201 88 -201 88 -174 c 0,108,109
 88 -163 88 -163 87.5 -152 c 128,-1,110
 87 -141 87 -141 86 -131 c 0,111,112
 85 -120 85 -120 84 -109 c 1,113,-1
 758 -55 l 1,114,115
 756 -102 756 -102 761.5 -143.5 c 128,-1,116
 767 -185 767 -185 782 -217 c 1,86,87
EndSplineSet
EndChar

StartChar: uni136D
Encoding: 4973 4973 20
Width: 1200
Flags: W
LayerCount: 2
Fore
SplineSet
983 1112 m 1,0,1
 965 1102 965 1102 947 1094 c 0,2,3
 932 1087 932 1087 914.5 1082 c 128,-1,4
 897 1077 897 1077 883 1077 c 0,5,6
 855 1077 855 1077 825.5 1082 c 128,-1,7
 796 1087 796 1087 771.5 1099 c 128,-1,8
 747 1111 747 1111 731 1131 c 128,-1,9
 715 1151 715 1151 715 1180 c 1,10,-1
 430 1161 l 1,11,12
 431 1129 431 1129 416 1105.5 c 128,-1,13
 401 1082 401 1082 375 1066 c 128,-1,14
 349 1050 349 1050 313 1042 c 128,-1,15
 277 1034 277 1034 236 1034 c 0,16,17
 219 1034 219 1034 206.5 1037 c 128,-1,18
 194 1040 194 1040 186 1044 c 0,19,20
 176 1048 176 1048 170 1055 c 1,21,22
 179 1067 179 1067 186 1084 c 0,23,24
 192 1098 192 1098 197.5 1118.5 c 128,-1,25
 203 1139 203 1139 203 1167 c 0,26,27
 203 1178 203 1178 202 1187.5 c 128,-1,28
 201 1197 201 1197 200 1205 c 0,29,30
 198 1214 198 1214 197 1221 c 1,31,-1
 942 1270 l 1,32,33
 942 1259 942 1259 941.5 1248.5 c 128,-1,34
 941 1238 941 1238 941 1227 c 0,35,36
 941 1192 941 1192 948.5 1162.5 c 128,-1,37
 956 1133 956 1133 983 1112 c 1,0,1
1149 518 m 1,38,39
 1136 502 1136 502 1117 491 c 0,40,41
 1100 481 1100 481 1073 473 c 128,-1,42
 1046 465 1046 465 1006 465 c 0,43,44
 968 465 968 465 938 472.5 c 128,-1,45
 908 480 908 480 885 492.5 c 128,-1,46
 862 505 862 505 845.5 521 c 128,-1,47
 829 537 829 537 817 554 c 0,48,49
 790 593 790 593 780 643 c 1,50,-1
 594 627 l 1,51,52
 558 570 558 570 520 513.5 c 128,-1,53
 482 457 482 457 451.5 404.5 c 128,-1,54
 421 352 421 352 401 305.5 c 128,-1,55
 381 259 381 259 381 221 c 0,56,57
 381 197 381 197 387 173.5 c 128,-1,58
 393 150 393 150 403.5 131 c 128,-1,59
 414 112 414 112 428 100 c 128,-1,60
 442 88 442 88 457 88 c 256,61,62
 472 88 472 88 509.5 92 c 128,-1,63
 547 96 547 96 586 101 c 0,64,65
 632 107 632 107 684 115 c 1,66,67
 688 149 688 149 699 176 c 128,-1,68
 710 203 710 203 741 221 c 128,-1,69
 772 239 772 239 829.5 248.5 c 128,-1,70
 887 258 887 258 983 258 c 1,71,72
 982 247 982 247 981.5 236.5 c 128,-1,73
 981 226 981 226 981 215 c 0,74,75
 981 170 981 170 986 134.5 c 128,-1,76
 991 99 991 99 998 74 c 0,77,78
 1006 45 1006 45 1016 23 c 1,79,80
 1004 13 1004 13 983 5 c 0,81,82
 965 -2 965 -2 934 -7 c 128,-1,83
 903 -12 903 -12 856 -12 c 0,84,85
 808 -12 808 -12 781 -3.5 c 128,-1,86
 754 5 754 5 739 16 c 0,87,88
 721 28 721 28 715 45 c 1,89,90
 617 32 617 32 534 22 c 0,91,92
 499 18 499 18 463.5 14 c 128,-1,93
 428 10 428 10 397 7 c 128,-1,94
 366 4 366 4 343 2 c 128,-1,95
 320 0 320 0 309 0 c 0,96,97
 260 0 260 0 220.5 10.5 c 128,-1,98
 181 21 181 21 153.5 44.5 c 128,-1,99
 126 68 126 68 111 106 c 128,-1,100
 96 144 96 144 96 199 c 0,101,102
 96 255 96 255 122.5 314 c 128,-1,103
 149 373 149 373 188 432.5 c 128,-1,104
 227 492 227 492 273.5 551 c 128,-1,105
 320 610 320 610 359 667.5 c 128,-1,106
 398 725 398 725 424.5 778.5 c 128,-1,107
 451 832 451 832 451 881 c 0,108,109
 451 913 451 913 442.5 930 c 128,-1,110
 434 947 434 947 423 956 c 0,111,112
 411 966 411 966 395 969 c 1,113,-1
 395 997 l 1,114,115
 410 1004 410 1004 441 1009 c 0,116,117
 467 1014 467 1014 513.5 1018 c 128,-1,118
 560 1022 560 1022 635 1022 c 0,119,120
 684 1022 684 1022 703.5 999.5 c 128,-1,121
 723 977 723 977 723 926 c 0,122,123
 723 878 723 878 701 823.5 c 128,-1,124
 679 769 679 769 645 711 c 1,125,-1
 1036 748 l 1,126,127
 1037 712 1037 712 1042 675 c 128,-1,128
 1047 638 1047 638 1059.5 606.5 c 128,-1,129
 1072 575 1072 575 1093 551.5 c 128,-1,130
 1114 528 1114 528 1149 518 c 1,38,39
958 -256 m 1,131,132
 943 -265 943 -265 927 -272 c 0,133,134
 913 -278 913 -278 897.5 -282.5 c 128,-1,135
 882 -287 882 -287 868 -287 c 0,136,137
 841 -287 841 -287 810.5 -280.5 c 128,-1,138
 780 -274 780 -274 754.5 -260 c 128,-1,139
 729 -246 729 -246 712.5 -224.5 c 128,-1,140
 696 -203 696 -203 696 -174 c 1,141,-1
 442 -195 l 1,142,143
 443 -227 443 -227 428.5 -251.5 c 128,-1,144
 414 -276 414 -276 388.5 -293 c 128,-1,145
 363 -310 363 -310 328 -319 c 128,-1,146
 293 -328 293 -328 252 -328 c 0,147,148
 235 -328 235 -328 219 -323.5 c 128,-1,149
 203 -319 203 -319 191 -313 c 0,150,151
 177 -306 177 -306 164 -297 c 1,152,153
 179 -287 179 -287 191 -273 c 0,154,155
 202 -261 202 -261 210.5 -242 c 128,-1,156
 219 -223 219 -223 219 -195 c 0,157,158
 219 -184 219 -184 218 -174.5 c 128,-1,159
 217 -165 217 -165 216 -157 c 0,160,161
 214 -148 214 -148 213 -141 c 1,162,-1
 913 -86 l 1,163,164
 913 -94 913 -94 912.5 -102 c 128,-1,165
 912 -110 912 -110 912 -118 c 0,166,167
 912 -158 912 -158 920.5 -195.5 c 128,-1,168
 929 -233 929 -233 958 -256 c 1,131,132
EndSplineSet
EndChar

StartChar: uni136E
Encoding: 4974 4974 21
Width: 1022
Flags: W
LayerCount: 2
Fore
SplineSet
895 1153 m 1,0,1
 876 1143 876 1143 858 1135 c 0,2,3
 842 1128 842 1128 825.5 1123 c 128,-1,4
 809 1118 809 1118 795 1118 c 0,5,6
 767 1118 767 1118 737.5 1123 c 128,-1,7
 708 1128 708 1128 683.5 1140 c 128,-1,8
 659 1152 659 1152 643 1172 c 128,-1,9
 627 1192 627 1192 627 1221 c 1,10,-1
 381 1198 l 1,11,12
 382 1166 382 1166 367 1142.5 c 128,-1,13
 352 1119 352 1119 326 1103 c 128,-1,14
 300 1087 300 1087 264 1079 c 128,-1,15
 228 1071 228 1071 186 1071 c 0,16,17
 169 1071 169 1071 157 1074 c 128,-1,18
 145 1077 145 1077 137 1081 c 0,19,20
 127 1085 127 1085 121 1092 c 1,21,22
 130 1103 130 1103 137 1120 c 0,23,24
 143 1134 143 1134 148.5 1155 c 128,-1,25
 154 1176 154 1176 154 1204 c 0,26,27
 154 1215 154 1215 153 1224 c 128,-1,28
 152 1233 152 1233 150 1241 c 0,29,30
 148 1250 148 1250 147 1257 c 1,31,-1
 854 1311 l 1,32,33
 854 1300 854 1300 853.5 1289.5 c 128,-1,34
 853 1279 853 1279 853 1268 c 0,35,36
 853 1233 853 1233 860.5 1203.5 c 128,-1,37
 868 1174 868 1174 895 1153 c 1,0,1
940 250 m 0,38,39
 940 208 940 208 928.5 168 c 128,-1,40
 917 128 917 128 886 96 c 128,-1,41
 855 64 855 64 801 44.5 c 128,-1,42
 747 25 747 25 662 25 c 0,43,44
 631 25 631 25 609.5 29 c 128,-1,45
 588 33 588 33 563 33 c 0,46,47
 551 33 551 33 532 28 c 128,-1,48
 513 23 513 23 489.5 16.5 c 128,-1,49
 466 10 466 10 438.5 5 c 128,-1,50
 411 0 411 0 383 0 c 0,51,52
 354 0 354 0 326.5 6 c 128,-1,53
 299 12 299 12 277.5 27 c 128,-1,54
 256 42 256 42 242.5 67.5 c 128,-1,55
 229 93 229 93 229 131 c 0,56,57
 229 145 229 145 232.5 164 c 128,-1,58
 236 183 236 183 241 200 c 0,59,60
 246 220 246 220 254 242 c 2,61,-1
 436 737 l 2,62,63
 444 758 444 758 450 777 c 0,64,65
 455 794 455 794 460 810 c 128,-1,66
 465 826 465 826 465 836 c 0,67,68
 465 860 465 860 449 874.5 c 128,-1,69
 433 889 433 889 406 889 c 0,70,71
 394 889 394 889 383 886.5 c 128,-1,72
 372 884 372 884 364 881 c 0,73,74
 354 877 354 877 346 874 c 1,75,76
 344 835 344 835 326 800.5 c 128,-1,77
 308 766 308 766 274.5 740 c 128,-1,78
 241 714 241 714 191.5 699 c 128,-1,79
 142 684 142 684 78 684 c 1,80,81
 83 706 83 706 87 731 c 0,82,83
 90 752 90 752 93 777.5 c 128,-1,84
 96 803 96 803 96 829 c 256,85,86
 96 855 96 855 93 877.5 c 128,-1,87
 90 900 90 900 87 917 c 0,88,89
 83 937 83 937 78 954 c 1,90,91
 101 962 101 962 127 968 c 0,92,93
 149 973 149 973 175 978 c 128,-1,94
 201 983 201 983 227 983 c 256,95,96
 253 983 253 983 274 977 c 128,-1,97
 295 971 295 971 309 964 c 0,98,99
 326 956 326 956 338 946 c 1,100,101
 387 959 387 959 433 970 c 0,102,103
 472 979 472 979 514.5 987 c 128,-1,104
 557 995 557 995 586 995 c 256,105,106
 615 995 615 995 641 987 c 128,-1,107
 667 979 667 979 686.5 961.5 c 128,-1,108
 706 944 706 944 717.5 916 c 128,-1,109
 729 888 729 888 729 848 c 0,110,111
 729 826 729 826 724 802 c 128,-1,112
 719 778 719 778 714 758 c 0,113,114
 708 734 708 734 700 711 c 2,115,-1
 584 393 l 1,116,117
 606 396 606 396 634 399 c 128,-1,118
 662 402 662 402 691.5 404.5 c 128,-1,119
 721 407 721 407 750 408.5 c 128,-1,120
 779 410 779 410 803 410 c 0,121,122
 878 410 878 410 909 371.5 c 128,-1,123
 940 333 940 333 940 250 c 0,38,39
909 -233 m 1,124,125
 894 -242 894 -242 878 -249 c 0,126,127
 864 -255 864 -255 848.5 -259.5 c 128,-1,128
 833 -264 833 -264 819 -264 c 0,129,130
 791 -264 791 -264 761 -257.5 c 128,-1,131
 731 -251 731 -251 705.5 -237 c 128,-1,132
 680 -223 680 -223 663.5 -202 c 128,-1,133
 647 -181 647 -181 647 -152 c 1,134,-1
 393 -172 l 1,135,136
 394 -204 394 -204 379.5 -228.5 c 128,-1,137
 365 -253 365 -253 339.5 -270 c 128,-1,138
 314 -287 314 -287 279 -296 c 128,-1,139
 244 -305 244 -305 203 -305 c 0,140,141
 186 -305 186 -305 170 -300.5 c 128,-1,142
 154 -296 154 -296 142 -290 c 0,143,144
 128 -283 128 -283 115 -274 c 1,145,146
 130 -265 130 -265 142 -251 c 0,147,148
 153 -239 153 -239 161.5 -219.5 c 128,-1,149
 170 -200 170 -200 170 -172 c 0,150,151
 170 -161 170 -161 169 -152 c 128,-1,152
 168 -143 168 -143 167 -135 c 0,153,154
 165 -126 165 -126 164 -119 c 1,155,-1
 864 -63 l 1,156,157
 864 -71 864 -71 863.5 -79 c 128,-1,158
 863 -87 863 -87 863 -95 c 0,159,160
 863 -135 863 -135 871.5 -172.5 c 128,-1,161
 880 -210 880 -210 909 -233 c 1,124,125
655 246 m 0,162,163
 655 267 655 267 652 283 c 128,-1,164
 649 299 649 299 639.5 310 c 128,-1,165
 630 321 630 321 611 326.5 c 128,-1,166
 592 332 592 332 561 334 c 1,167,-1
 516 211 l 2,168,169
 507 186 507 186 501.5 160.5 c 128,-1,170
 496 135 496 135 496 123 c 0,171,172
 496 80 496 80 547 80 c 0,173,174
 568 80 568 80 587.5 94.5 c 128,-1,175
 607 109 607 109 622 133 c 128,-1,176
 637 157 637 157 646 186.5 c 128,-1,177
 655 216 655 216 655 246 c 0,162,163
EndSplineSet
EndChar

StartChar: uni136F
Encoding: 4975 4975 22
Width: 1145
Flags: W
LayerCount: 2
Fore
SplineSet
954 1112 m 1,0,1
 936 1102 936 1102 918 1094 c 0,2,3
 903 1087 903 1087 885.5 1082 c 128,-1,4
 868 1077 868 1077 854 1077 c 0,5,6
 826 1077 826 1077 796.5 1082 c 128,-1,7
 767 1087 767 1087 742.5 1099 c 128,-1,8
 718 1111 718 1111 702 1131 c 128,-1,9
 686 1151 686 1151 686 1180 c 1,10,-1
 440 1157 l 1,11,12
 441 1125 441 1125 426 1101.5 c 128,-1,13
 411 1078 411 1078 385 1062 c 128,-1,14
 359 1046 359 1046 323 1038 c 128,-1,15
 287 1030 287 1030 246 1030 c 0,16,17
 229 1030 229 1030 216.5 1033 c 128,-1,18
 204 1036 204 1036 196 1040 c 0,19,20
 186 1044 186 1044 180 1051 c 1,21,22
 189 1063 189 1063 196 1080 c 0,23,24
 202 1094 202 1094 207.5 1114.5 c 128,-1,25
 213 1135 213 1135 213 1163 c 0,26,27
 213 1174 213 1174 212 1183.5 c 128,-1,28
 211 1193 211 1193 210 1201 c 0,29,30
 208 1210 208 1210 207 1217 c 1,31,-1
 913 1270 l 1,32,33
 913 1259 913 1259 912.5 1248.5 c 128,-1,34
 912 1238 912 1238 912 1227 c 0,35,36
 912 1192 912 1192 919.5 1162.5 c 128,-1,37
 927 1133 927 1133 954 1112 c 1,0,1
1071 55 m 1,38,39
 1059 39 1059 39 1039 27 c 0,40,41
 1022 16 1022 16 992.5 8 c 128,-1,42
 963 0 963 0 918 0 c 0,43,44
 885 0 885 0 855.5 6 c 128,-1,45
 826 12 826 12 803 25 c 128,-1,46
 780 38 780 38 765.5 59.5 c 128,-1,47
 751 81 751 81 750 113 c 1,48,49
 671 100 671 100 604 90 c 0,50,51
 575 86 575 86 546.5 82 c 128,-1,52
 518 78 518 78 493.5 75 c 128,-1,53
 469 72 469 72 450 70 c 128,-1,54
 431 68 431 68 422 68 c 0,55,56
 365 68 365 68 339 89.5 c 128,-1,57
 313 111 313 111 313 156 c 0,58,59
 313 170 313 170 317.5 187.5 c 128,-1,60
 322 205 322 205 327 220 c 0,61,62
 333 238 333 238 342 256 c 2,63,-1
 530 731 l 2,64,65
 536 750 536 750 540 768 c 0,66,67
 544 783 544 783 547.5 798.5 c 128,-1,68
 551 814 551 814 551 823 c 0,69,70
 551 835 551 835 544.5 846.5 c 128,-1,71
 538 858 538 858 527.5 867 c 128,-1,72
 517 876 517 876 504 881.5 c 128,-1,73
 491 887 491 887 477 887 c 0,74,75
 465 887 465 887 449.5 884 c 128,-1,76
 434 881 434 881 420 878 c 0,77,78
 403 874 403 874 387 870 c 1,79,80
 391 831 391 831 373 788.5 c 128,-1,81
 355 746 355 746 315.5 710.5 c 128,-1,82
 276 675 276 675 215.5 652 c 128,-1,83
 155 629 155 629 74 629 c 1,84,85
 86 651 86 651 96 679 c 0,86,87
 104 703 104 703 111.5 736 c 128,-1,88
 119 769 119 769 119 811 c 0,89,90
 119 826 119 826 116.5 841 c 128,-1,91
 114 856 114 856 111 868 c 0,92,93
 107 882 107 882 104 895 c 1,94,95
 245 923 245 923 364 945 c 0,96,97
 415 954 415 954 465.5 963 c 128,-1,98
 516 972 516 972 559 979 c 128,-1,99
 602 986 602 986 634.5 990.5 c 128,-1,100
 667 995 667 995 682 995 c 0,101,102
 711 995 711 995 738 985.5 c 128,-1,103
 765 976 765 976 785.5 957 c 128,-1,104
 806 938 806 938 818.5 909 c 128,-1,105
 831 880 831 880 831 840 c 0,106,107
 831 818 831 818 826.5 793.5 c 128,-1,108
 822 769 822 769 817 749 c 0,109,110
 811 725 811 725 803 702 c 2,111,-1
 637 299 l 2,112,113
 635 293 635 293 630.5 282.5 c 128,-1,114
 626 272 626 272 622 260 c 128,-1,115
 618 248 618 248 615 235 c 128,-1,116
 612 222 612 222 612 211 c 0,117,118
 612 189 612 189 624 181.5 c 128,-1,119
 636 174 636 174 664 174 c 0,120,121
 674 174 674 174 687.5 175 c 128,-1,122
 701 176 701 176 714 178 c 0,123,124
 729 180 729 180 745 182 c 1,125,126
 767 207 767 207 789 226.5 c 128,-1,127
 811 246 811 246 842.5 259.5 c 128,-1,128
 874 273 874 273 920.5 280 c 128,-1,129
 967 287 967 287 1038 287 c 1,130,131
 1034 276 1034 276 1031 259 c 0,132,133
 1028 245 1028 245 1026 223 c 128,-1,134
 1024 201 1024 201 1024 170 c 256,135,136
 1024 139 1024 139 1031 117.5 c 128,-1,137
 1038 96 1038 96 1047 82 c 0,138,139
 1058 65 1058 65 1071 55 c 1,38,39
956 -246 m 1,140,141
 939 -255 939 -255 921 -261 c 0,142,143
 906 -267 906 -267 889 -271.5 c 128,-1,144
 872 -276 872 -276 858 -276 c 0,145,146
 830 -276 830 -276 800 -269.5 c 128,-1,147
 770 -263 770 -263 744.5 -249.5 c 128,-1,148
 719 -236 719 -236 702.5 -214.5 c 128,-1,149
 686 -193 686 -193 686 -164 c 1,150,-1
 432 -184 l 1,151,152
 433 -216 433 -216 420 -242 c 128,-1,153
 407 -268 407 -268 383 -287.5 c 128,-1,154
 359 -307 359 -307 325 -317.5 c 128,-1,155
 291 -328 291 -328 250 -328 c 0,156,157
 233 -328 233 -328 217 -323.5 c 128,-1,158
 201 -319 201 -319 188 -314 c 0,159,160
 173 -308 173 -308 160 -299 c 1,161,162
 173 -287 173 -287 184 -269 c 0,163,164
 193 -255 193 -255 201 -233.5 c 128,-1,165
 209 -212 209 -212 209 -184 c 0,166,167
 209 -173 209 -173 208 -164 c 128,-1,168
 207 -155 207 -155 206 -147 c 0,169,170
 204 -138 204 -138 203 -131 c 1,171,-1
 901 -72 l 1,172,173
 900 -95 900 -95 902 -120 c 128,-1,174
 904 -145 904 -145 910 -168 c 128,-1,175
 916 -191 916 -191 927 -211.5 c 128,-1,176
 938 -232 938 -232 956 -246 c 1,140,141
EndSplineSet
EndChar

StartChar: uni1370
Encoding: 4976 4976 23
Width: 1337
Flags: W
LayerCount: 2
Fore
SplineSet
1139 1118 m 1,0,1
 1122 1110 1122 1110 1105 1105 c 0,2,3
 1091 1100 1091 1100 1074.5 1096 c 128,-1,4
 1058 1092 1058 1092 1044 1092 c 0,5,6
 1017 1092 1017 1092 987.5 1097 c 128,-1,7
 958 1102 958 1102 933.5 1114 c 128,-1,8
 909 1126 909 1126 893 1145.5 c 128,-1,9
 877 1165 877 1165 877 1194 c 1,10,-1
 614 1180 l 1,11,12
 615 1148 615 1148 600 1124.5 c 128,-1,13
 585 1101 585 1101 559 1085 c 128,-1,14
 533 1069 533 1069 497 1061 c 128,-1,15
 461 1053 461 1053 420 1053 c 0,16,17
 403 1053 403 1053 390.5 1056 c 128,-1,18
 378 1059 378 1059 370 1063 c 0,19,20
 360 1067 360 1067 354 1073 c 1,21,22
 363 1085 363 1085 370 1102 c 0,23,24
 376 1116 376 1116 381.5 1137 c 128,-1,25
 387 1158 387 1158 387 1186 c 0,26,27
 387 1197 387 1197 386 1207 c 128,-1,28
 385 1217 385 1217 383 1225 c 0,29,30
 381 1235 381 1235 379 1243 c 1,31,-1
 1104 1284 l 1,32,33
 1102 1238 1102 1238 1111 1195 c 128,-1,34
 1120 1152 1120 1152 1139 1118 c 1,0,1
1280 733 m 1,35,36
 1269 726 1269 726 1254 722 c 0,37,38
 1241 717 1241 717 1223 714 c 128,-1,39
 1205 711 1205 711 1182 711 c 256,40,41
 1159 711 1159 711 1123.5 721.5 c 128,-1,42
 1088 732 1088 732 1056 754.5 c 128,-1,43
 1024 777 1024 777 1002 812 c 128,-1,44
 980 847 980 847 983 897 c 1,45,-1
 842 891 l 1,46,-1
 786 270 l 1,47,-1
 1159 287 l 1,48,49
 1156 265 1156 265 1154 241 c 0,50,51
 1152 221 1152 221 1150.5 195.5 c 128,-1,52
 1149 170 1149 170 1149 145 c 256,53,54
 1149 120 1149 120 1155 100.5 c 128,-1,55
 1161 81 1161 81 1169 67 c 0,56,57
 1178 50 1178 50 1190 37 c 1,58,59
 1178 30 1178 30 1162 25 c 0,60,61
 1148 20 1148 20 1127.5 17 c 128,-1,62
 1107 14 1107 14 1081 14 c 0,63,64
 1038 14 1038 14 1004 23.5 c 128,-1,65
 970 33 970 33 946 55 c 128,-1,66
 922 77 922 77 907.5 113.5 c 128,-1,67
 893 150 893 150 889 203 c 1,68,-1
 408 178 l 1,69,70
 402 132 402 132 383 98.5 c 128,-1,71
 364 65 364 65 337 43 c 128,-1,72
 310 21 310 21 277 10.5 c 128,-1,73
 244 0 244 0 209 0 c 0,74,75
 177 0 177 0 155 5 c 128,-1,76
 133 10 133 10 120 17 c 0,77,78
 104 25 104 25 96 35 c 1,79,80
 106 50 106 50 115 77 c 0,81,82
 123 100 123 100 129 140 c 128,-1,83
 135 180 135 180 135 242 c 1,84,-1
 526 258 l 1,85,-1
 578 879 l 1,86,-1
 455 872 l 1,87,88
 446 818 446 818 422.5 780 c 128,-1,89
 399 742 399 742 367.5 717.5 c 128,-1,90
 336 693 336 693 300 681.5 c 128,-1,91
 264 670 264 670 231 670 c 0,92,93
 206 670 206 670 188 673 c 128,-1,94
 170 676 170 676 158 681 c 0,95,96
 144 685 144 685 133 692 c 1,97,98
 149 720 149 720 159.5 746 c 128,-1,99
 170 772 170 772 176.5 800.5 c 128,-1,100
 183 829 183 829 185.5 862 c 128,-1,101
 188 895 188 895 188 936 c 1,102,-1
 1255 981 l 1,103,104
 1251 957 1251 957 1248 932 c 0,105,106
 1245 911 1245 911 1243 886.5 c 128,-1,107
 1241 862 1241 862 1241 842 c 0,108,109
 1241 821 1241 821 1246.5 801 c 128,-1,110
 1252 781 1252 781 1260 766 c 0,111,112
 1269 748 1269 748 1280 733 c 1,35,36
1020 -203 m 1,113,114
 1010 -216 1010 -216 995 -226 c 0,115,116
 982 -234 982 -234 963.5 -241 c 128,-1,117
 945 -248 945 -248 920 -248 c 0,118,119
 892 -248 892 -248 864 -240 c 128,-1,120
 836 -232 836 -232 813 -218 c 128,-1,121
 790 -204 790 -204 774.5 -183.5 c 128,-1,122
 759 -163 759 -163 756 -137 c 1,123,-1
 500 -150 l 1,124,125
 501 -181 501 -181 486 -205.5 c 128,-1,126
 471 -230 471 -230 447 -246.5 c 128,-1,127
 423 -263 423 -263 393.5 -272 c 128,-1,128
 364 -281 364 -281 336 -281 c 0,129,130
 319 -281 319 -281 302 -278 c 128,-1,131
 285 -275 285 -275 271 -270 c 0,132,133
 255 -265 255 -265 240 -258 c 1,134,135
 250 -247 250 -247 258 -231 c 0,136,137
 265 -217 265 -217 270.5 -197.5 c 128,-1,138
 276 -178 276 -178 276 -150 c 0,139,140
 276 -139 276 -139 275 -129.5 c 128,-1,141
 274 -120 274 -120 273 -112 c 0,142,143
 271 -103 271 -103 270 -96 c 1,144,-1
 997 -53 l 1,145,146
 997 -89 997 -89 997.5 -113 c 128,-1,147
 998 -137 998 -137 1000.5 -153 c 128,-1,148
 1003 -169 1003 -169 1007.5 -180 c 128,-1,149
 1012 -191 1012 -191 1020 -203 c 1,113,114
EndSplineSet
EndChar

StartChar: uni1371
Encoding: 4977 4977 24
Width: 1008
Flags: W
LayerCount: 2
Fore
SplineSet
952 719 m 0,0,1
 952 608 952 608 943.5 512 c 128,-1,2
 935 416 935 416 911.5 336 c 128,-1,3
 888 256 888 256 846 193.5 c 128,-1,4
 804 131 804 131 736.5 88 c 128,-1,5
 669 45 669 45 573.5 22.5 c 128,-1,6
 478 0 478 0 348 0 c 0,7,8
 283 0 283 0 241 9 c 128,-1,9
 199 18 199 18 174 37 c 128,-1,10
 149 56 149 56 139.5 84 c 128,-1,11
 130 112 130 112 130 151 c 0,12,13
 130 158 130 158 130 165 c 128,-1,14
 130 172 130 172 131 180 c 2,15,-1
 168 754 l 2,16,17
 170 789 170 789 163.5 810 c 128,-1,18
 157 831 157 831 148 842 c 0,19,20
 137 855 137 855 123 860 c 1,21,-1
 123 887 l 1,22,23
 175 896 175 896 222 904 c 0,24,25
 262 911 262 911 301 916.5 c 128,-1,26
 340 922 340 922 360 922 c 0,27,28
 399 922 399 922 422 891 c 128,-1,29
 445 860 445 860 440 797 c 0,30,31
 440 795 440 795 437 748.5 c 128,-1,32
 434 702 434 702 428 631 c 1,33,-1
 692 711 l 1,34,-1
 692 745 l 2,35,36
 692 810 692 810 681.5 842.5 c 128,-1,37
 671 875 671 875 658 889 c 0,38,39
 643 905 643 905 625 903 c 1,40,-1
 625 938 l 1,41,42
 658 950 658 950 696 960 c 0,43,44
 728 968 728 968 769.5 975.5 c 128,-1,45
 811 983 811 983 856 983 c 0,46,47
 890 983 890 983 909.5 971.5 c 128,-1,48
 929 960 929 960 938.5 930.5 c 128,-1,49
 948 901 948 901 950 850 c 128,-1,50
 952 799 952 799 952 719 c 0,0,1
422 553 m 1,51,52
 417 487 417 487 411 420 c 128,-1,53
 405 353 405 353 400 299 c 0,54,55
 394 235 394 235 389 176 c 0,56,57
 384 120 384 120 403.5 100 c 128,-1,58
 423 80 423 80 469 80 c 0,59,60
 504 80 504 80 533 106.5 c 128,-1,61
 562 133 562 133 585 177 c 128,-1,62
 608 221 608 221 625.5 278 c 128,-1,63
 643 335 643 335 655.5 397 c 128,-1,64
 668 459 668 459 676 521 c 128,-1,65
 684 583 684 583 688 637 c 1,66,-1
 422 553 l 1,51,52
918 1120 m 1,67,68
 901 1108 901 1108 881 1099 c 0,69,70
 864 1091 864 1091 840.5 1085 c 128,-1,71
 817 1079 817 1079 788 1079 c 0,72,73
 731 1079 731 1079 695.5 1107.5 c 128,-1,74
 660 1136 660 1136 643 1190 c 1,75,-1
 383 1169 l 1,76,77
 383 1136 383 1136 369 1111.5 c 128,-1,78
 355 1087 355 1087 331.5 1070.5 c 128,-1,79
 308 1054 308 1054 276.5 1046 c 128,-1,80
 245 1038 245 1038 211 1038 c 0,81,82
 180 1038 180 1038 157 1043 c 0,83,84
 145 1046 145 1046 133 1049 c 1,85,86
 139 1064 139 1064 143 1081 c 0,87,88
 147 1095 147 1095 150.5 1114 c 128,-1,89
 154 1133 154 1133 154 1155 c 0,90,91
 154 1164 154 1164 152 1176 c 128,-1,92
 150 1188 150 1188 148 1199 c 0,93,94
 145 1211 145 1211 143 1225 c 1,95,-1
 879 1282 l 1,96,97
 876 1256 876 1256 880 1229 c 0,98,99
 883 1206 883 1206 891.5 1177 c 128,-1,100
 900 1148 900 1148 918 1120 c 1,67,68
866 -248 m 1,101,102
 849 -261 849 -261 830 -272 c 0,103,104
 813 -281 813 -281 790.5 -288 c 128,-1,105
 768 -295 768 -295 741 -295 c 0,106,107
 687 -295 687 -295 649.5 -268 c 128,-1,108
 612 -241 612 -241 600 -184 c 1,109,-1
 328 -205 l 1,110,111
 326 -264 326 -264 279.5 -301 c 128,-1,112
 233 -338 233 -338 150 -338 c 0,113,114
 133 -338 133 -338 119.5 -333.5 c 128,-1,115
 106 -329 106 -329 96 -324 c 0,116,117
 85 -318 85 -318 76 -309 c 1,118,119
 85 -295 85 -295 93 -279 c 0,120,121
 100 -265 100 -265 105.5 -248 c 128,-1,122
 111 -231 111 -231 111 -213 c 0,123,124
 111 -202 111 -202 108.5 -191 c 128,-1,125
 106 -180 106 -180 103 -171 c 2,126,-1
 96 -150 l 1,127,-1
 834 -92 l 1,128,129
 833 -123 833 -123 837 -152 c 0,130,131
 840 -177 840 -177 846 -203.5 c 128,-1,132
 852 -230 852 -230 866 -248 c 1,101,102
EndSplineSet
EndChar

StartChar: uni1372
Encoding: 4978 4978 25
Width: 913
Flags: W
LayerCount: 2
Fore
SplineSet
862 1104 m 1,0,1
 845 1091 845 1091 825 1081 c 0,2,3
 808 1073 808 1073 784 1066 c 128,-1,4
 760 1059 760 1059 731 1059 c 0,5,6
 674 1059 674 1059 638.5 1090.5 c 128,-1,7
 603 1122 603 1122 586 1176 c 1,8,-1
 346 1153 l 1,9,10
 346 1120 346 1120 331 1095.5 c 128,-1,11
 316 1071 316 1071 290.5 1055.5 c 128,-1,12
 265 1040 265 1040 232.5 1032 c 128,-1,13
 200 1024 200 1024 166 1024 c 0,14,15
 135 1024 135 1024 112 1029 c 0,16,17
 100 1031 100 1031 88 1034 c 1,18,19
 94 1048 94 1048 98 1066 c 0,20,21
 102 1080 102 1080 105.5 1099.5 c 128,-1,22
 109 1119 109 1119 109 1141 c 0,23,24
 109 1150 109 1150 108 1161 c 128,-1,25
 107 1172 107 1172 105 1183 c 0,26,27
 103 1195 103 1195 102 1208 c 1,28,-1
 834 1268 l 1,29,30
 833 1263 833 1263 832 1256 c 0,31,32
 831 1250 831 1250 830.5 1242 c 128,-1,33
 830 1234 830 1234 830 1224 c 0,34,35
 830 1199 830 1199 836 1167 c 128,-1,36
 842 1135 842 1135 862 1104 c 1,0,1
580 291 m 2,37,38
 578 276 578 276 577 263 c 128,-1,39
 576 250 576 250 576 239 c 0,40,41
 576 209 576 209 581.5 193 c 128,-1,42
 587 177 587 177 595 170 c 0,43,44
 603 162 603 162 614 162 c 1,45,-1
 614 125 l 1,46,47
 552 113 552 113 502 103 c 0,48,49
 480 99 480 99 459 95 c 128,-1,50
 438 91 438 91 420 88 c 128,-1,51
 402 85 402 85 389.5 83.5 c 128,-1,52
 377 82 377 82 373 82 c 0,53,54
 339 82 339 82 320.5 107 c 128,-1,55
 302 132 302 132 302 196 c 0,56,57
 302 215 302 215 303.5 237 c 128,-1,58
 305 259 305 259 309 285 c 2,59,-1
 375 752 l 2,60,61
 378 773 378 773 378 790 c 0,62,63
 378 827 378 827 368 847.5 c 128,-1,64
 358 868 358 868 346 878 c 0,65,66
 332 889 332 889 315 891 c 1,67,-1
 315 926 l 1,68,69
 385 937 385 937 441 947 c 0,70,71
 465 951 465 951 488.5 955 c 128,-1,72
 512 959 512 959 531.5 962 c 128,-1,73
 551 965 551 965 564.5 967 c 128,-1,74
 578 969 578 969 582 969 c 0,75,76
 619 969 619 969 635.5 951 c 128,-1,77
 652 933 652 933 652 878 c 0,78,79
 652 852 652 852 649 816.5 c 128,-1,80
 646 781 646 781 639 733 c 2,81,-1
 580 291 l 2,37,38
850 -250 m 1,82,83
 833 -265 833 -265 814 -276 c 0,84,85
 797 -286 797 -286 774.5 -293.5 c 128,-1,86
 752 -301 752 -301 725 -301 c 0,87,88
 671 -301 671 -301 628.5 -273 c 128,-1,89
 586 -245 586 -245 573 -188 c 1,90,-1
 340 -207 l 1,91,92
 338 -266 338 -266 289.5 -303 c 128,-1,93
 241 -340 241 -340 158 -340 c 0,94,95
 141 -340 141 -340 126 -335.5 c 128,-1,96
 111 -331 111 -331 100 -325 c 0,97,98
 87 -318 87 -318 76 -309 c 1,99,100
 82 -297 82 -297 87 -282 c 0,101,102
 91 -269 91 -269 94.5 -253 c 128,-1,103
 98 -237 98 -237 98 -219 c 0,104,105
 98 -208 98 -208 97.5 -197 c 128,-1,106
 97 -186 97 -186 97 -177 c 0,107,108
 96 -166 96 -166 96 -156 c 1,109,-1
 819 -92 l 1,110,111
 818 -124 818 -124 821 -153 c 0,112,113
 823 -178 823 -178 829.5 -205 c 128,-1,114
 836 -232 836 -232 850 -250 c 1,82,83
EndSplineSet
EndChar

StartChar: uni1373
Encoding: 4979 4979 26
Width: 1309
Flags: W
LayerCount: 2
Fore
SplineSet
1049 1110 m 1,0,1
 1025 1101 1025 1101 1003 1094 c 0,2,3
 984 1088 984 1088 964 1083.5 c 128,-1,4
 944 1079 944 1079 930 1079 c 0,5,6
 902 1079 902 1079 876.5 1086 c 128,-1,7
 851 1093 851 1093 831 1107.5 c 128,-1,8
 811 1122 811 1122 798 1143 c 128,-1,9
 785 1164 785 1164 784 1192 c 1,10,-1
 526 1167 l 1,11,12
 515 1133 515 1133 501.5 1109 c 128,-1,13
 488 1085 488 1085 467 1069.5 c 128,-1,14
 446 1054 446 1054 417 1047 c 128,-1,15
 388 1040 388 1040 346 1040 c 0,16,17
 329 1040 329 1040 317 1042 c 128,-1,18
 305 1044 305 1044 297 1046 c 0,19,20
 287 1049 287 1049 281 1053 c 1,21,22
 287 1066 287 1066 291 1083 c 0,23,24
 295 1097 295 1097 298 1118 c 128,-1,25
 301 1139 301 1139 301 1167 c 0,26,27
 301 1178 301 1178 300 1188.5 c 128,-1,28
 299 1199 299 1199 297 1207 c 0,29,30
 295 1217 295 1217 293 1225 c 1,31,-1
 1018 1284 l 1,32,33
 1016 1238 1016 1238 1023 1191 c 128,-1,34
 1030 1144 1030 1144 1049 1110 c 1,0,1
1253 809 m 1,35,36
 1237 801 1237 801 1219 795 c 0,37,38
 1203 790 1203 790 1182.5 786 c 128,-1,39
 1162 782 1162 782 1139 782 c 256,40,41
 1116 782 1116 782 1082.5 788 c 128,-1,42
 1049 794 1049 794 1019 811 c 128,-1,43
 989 828 989 828 969 859 c 128,-1,44
 949 890 949 890 952 940 c 1,45,-1
 823 932 l 1,46,47
 815 881 815 881 793 830.5 c 128,-1,48
 771 780 771 780 740.5 730 c 128,-1,49
 710 680 710 680 674.5 630.5 c 128,-1,50
 639 581 639 581 604 532 c 1,51,52
 636 537 636 537 684.5 541 c 128,-1,53
 733 545 733 545 784 545 c 0,54,55
 846 545 846 545 886.5 526.5 c 128,-1,56
 927 508 927 508 952 477 c 128,-1,57
 977 446 977 446 989.5 406 c 128,-1,58
 1002 366 1002 366 1008 323.5 c 128,-1,59
 1014 281 1014 281 1017 239 c 128,-1,60
 1020 197 1020 197 1025.5 161.5 c 128,-1,61
 1031 126 1031 126 1042.5 101 c 128,-1,62
 1054 76 1054 76 1077 68 c 1,63,-1
 1077 41 l 1,64,65
 1018 29 1018 29 969 20 c 0,66,67
 948 16 948 16 927 12.5 c 128,-1,68
 906 9 906 9 888 6 c 128,-1,69
 870 3 870 3 856 1.5 c 128,-1,70
 842 0 842 0 836 0 c 0,71,72
 805 0 805 0 788 9.5 c 128,-1,73
 771 19 771 19 763 38.5 c 128,-1,74
 755 58 755 58 753.5 87.5 c 128,-1,75
 752 117 752 117 752 158 c 0,76,77
 752 239 752 239 744 292.5 c 128,-1,78
 736 346 736 346 713.5 379 c 128,-1,79
 691 412 691 412 651 428.5 c 128,-1,80
 611 445 611 445 547 451 c 1,81,82
 499 379 499 379 466.5 308.5 c 128,-1,83
 434 238 434 238 434 166 c 0,84,85
 434 125 434 125 443 105.5 c 128,-1,86
 452 86 452 86 463 78 c 0,87,88
 475 68 475 68 492 70 c 1,89,-1
 492 35 l 1,90,91
 433 25 433 25 382 17 c 0,92,93
 360 14 360 14 337.5 10.5 c 128,-1,94
 315 7 315 7 295 5 c 128,-1,95
 275 3 275 3 258 1.5 c 128,-1,96
 241 0 241 0 231 0 c 0,97,98
 189 0 189 0 163 27 c 128,-1,99
 137 54 137 54 137 123 c 0,100,101
 137 183 137 183 164.5 245 c 128,-1,102
 192 307 192 307 234 371 c 128,-1,103
 276 435 276 435 326 501 c 128,-1,104
 376 567 376 567 421 635 c 128,-1,105
 466 703 466 703 500.5 772.5 c 128,-1,106
 535 842 535 842 545 913 c 1,107,-1
 389 903 l 1,108,109
 380 854 380 854 356 817.5 c 128,-1,110
 332 781 332 781 300.5 757 c 128,-1,111
 269 733 269 733 233 721 c 128,-1,112
 197 709 197 709 164 709 c 0,113,114
 139 709 139 709 122.5 710 c 128,-1,115
 106 711 106 711 96 713 c 0,116,117
 85 715 85 715 78 717 c 1,118,119
 101 755 101 755 111.5 795.5 c 128,-1,120
 122 836 122 836 122 878 c 0,121,122
 122 916 122 916 113 952 c 1,123,-1
 1229 1038 l 1,124,125
 1227 1026 1227 1026 1225 1008 c 0,126,127
 1223 993 1223 993 1222 970 c 128,-1,128
 1221 947 1221 947 1221 918 c 0,129,130
 1221 897 1221 897 1226 877 c 128,-1,131
 1231 857 1231 857 1237 842 c 0,132,133
 1244 824 1244 824 1253 809 c 1,35,36
979 -242 m 1,134,135
 961 -254 961 -254 940 -264 c 0,136,137
 922 -272 922 -272 899 -278.5 c 128,-1,138
 876 -285 876 -285 850 -285 c 0,139,140
 822 -285 822 -285 797.5 -277.5 c 128,-1,141
 773 -270 773 -270 754 -256 c 128,-1,142
 735 -242 735 -242 722.5 -222 c 128,-1,143
 710 -202 710 -202 707 -176 c 1,144,-1
 453 -193 l 1,145,146
 448 -220 448 -220 430.5 -244.5 c 128,-1,147
 413 -269 413 -269 388 -287.5 c 128,-1,148
 363 -306 363 -306 333.5 -317 c 128,-1,149
 304 -328 304 -328 276 -328 c 0,150,151
 262 -328 262 -328 248.5 -325.5 c 128,-1,152
 235 -323 235 -323 225 -319 c 0,153,154
 213 -315 213 -315 203 -309 c 1,155,156
 206 -303 206 -303 210 -289 c 0,157,158
 212 -277 212 -277 214.5 -254 c 128,-1,159
 217 -231 217 -231 217 -193 c 0,160,161
 217 -182 217 -182 216 -172.5 c 128,-1,162
 215 -163 215 -163 214 -155 c 0,163,164
 212 -146 212 -146 211 -139 c 1,165,-1
 940 -84 l 1,166,167
 940 -120 940 -120 943 -145 c 128,-1,168
 946 -170 946 -170 951.5 -187.5 c 128,-1,169
 957 -205 957 -205 964 -217.5 c 128,-1,170
 971 -230 971 -230 979 -242 c 1,134,135
EndSplineSet
EndChar

StartChar: uni1374
Encoding: 4980 4980 27
Width: 1366
Flags: W
LayerCount: 2
Fore
SplineSet
1219 1061 m 1,0,1
 1195 1052 1195 1052 1172 1046 c 0,2,3
 1152 1041 1152 1041 1132 1036.5 c 128,-1,4
 1112 1032 1112 1032 1098 1032 c 0,5,6
 1070 1032 1070 1032 1044 1038 c 128,-1,7
 1018 1044 1018 1044 997.5 1056.5 c 128,-1,8
 977 1069 977 1069 964 1089 c 128,-1,9
 951 1109 951 1109 950 1137 c 1,10,-1
 629 1108 l 1,11,12
 611 1064 611 1064 594 1039 c 128,-1,13
 577 1014 577 1014 554.5 1001.5 c 128,-1,14
 532 989 532 989 503 986 c 128,-1,15
 474 983 474 983 432 983 c 0,16,17
 418 983 418 983 406.5 985 c 128,-1,18
 395 987 395 987 386 989 c 0,19,20
 375 992 375 992 367 995 c 1,21,22
 373 1006 373 1006 378 1023 c 0,23,24
 382 1037 382 1037 385.5 1057.5 c 128,-1,25
 389 1078 389 1078 389 1106 c 0,26,27
 389 1117 389 1117 387.5 1127.5 c 128,-1,28
 386 1138 386 1138 384 1147 c 2,29,-1
 379 1167 l 1,30,-1
 1184 1229 l 1,31,32
 1182 1182 1182 1182 1191 1138.5 c 128,-1,33
 1200 1095 1200 1095 1219 1061 c 1,0,1
1282 70 m 1,34,35
 1222 59 1222 59 1173 50 c 0,36,37
 1152 46 1152 46 1131 42.5 c 128,-1,38
 1110 39 1110 39 1092.5 36.5 c 128,-1,39
 1075 34 1075 34 1062 32.5 c 128,-1,40
 1049 31 1049 31 1044 31 c 0,41,42
 1026 31 1026 31 1012 41 c 128,-1,43
 998 51 998 51 989 68 c 128,-1,44
 980 85 980 85 975.5 107.5 c 128,-1,45
 971 130 971 130 971 156 c 0,46,47
 971 173 971 173 975 213.5 c 128,-1,48
 979 254 979 254 985 307 c 128,-1,49
 991 360 991 360 997.5 419.5 c 128,-1,50
 1004 479 1004 479 1010 535 c 128,-1,51
 1016 591 1016 591 1020 636.5 c 128,-1,52
 1024 682 1024 682 1024 707 c 0,53,54
 1024 780 1024 780 1004 807 c 128,-1,55
 984 834 984 834 944 834 c 0,56,57
 910 834 910 834 890.5 814.5 c 128,-1,58
 871 795 871 795 859.5 754.5 c 128,-1,59
 848 714 848 714 842.5 650.5 c 128,-1,60
 837 587 837 587 831 500 c 0,61,62
 827 432 827 432 821.5 376 c 128,-1,63
 816 320 816 320 801 275 c 128,-1,64
 786 230 786 230 757.5 196.5 c 128,-1,65
 729 163 729 163 678.5 140.5 c 128,-1,66
 628 118 628 118 552 107 c 128,-1,67
 476 96 476 96 367 96 c 0,68,69
 288 96 288 96 235.5 111.5 c 128,-1,70
 183 127 183 127 152 162 c 128,-1,71
 121 197 121 197 108.5 254 c 128,-1,72
 96 311 96 311 96 395 c 256,73,74
 96 479 96 479 110 551.5 c 128,-1,75
 124 624 124 624 161.5 677.5 c 128,-1,76
 199 731 199 731 264.5 762 c 128,-1,77
 330 793 330 793 434 793 c 1,78,-1
 434 768 l 1,79,80
 418 759 418 759 405.5 736 c 128,-1,81
 393 713 393 713 384.5 671 c 128,-1,82
 376 629 376 629 371.5 565 c 128,-1,83
 367 501 367 501 367 410 c 0,84,85
 367 333 367 333 372 287 c 128,-1,86
 377 241 377 241 386.5 216 c 128,-1,87
 396 191 396 191 411 183.5 c 128,-1,88
 426 176 426 176 446 176 c 0,89,90
 475 176 475 176 492 189 c 128,-1,91
 509 202 509 202 518.5 233 c 128,-1,92
 528 264 528 264 533.5 314.5 c 128,-1,93
 539 365 539 365 545 440 c 0,94,95
 551 522 551 522 556.5 581 c 128,-1,96
 562 640 562 640 570 681.5 c 128,-1,97
 578 723 578 723 590.5 750.5 c 128,-1,98
 603 778 603 778 623.5 797.5 c 128,-1,99
 644 817 644 817 674 831 c 128,-1,100
 704 845 704 845 748 860 c 0,101,102
 773 869 773 869 803.5 878 c 128,-1,103
 834 887 834 887 870.5 895 c 128,-1,104
 907 903 907 903 951.5 908 c 128,-1,105
 996 913 996 913 1049 913 c 0,106,107
 1104 913 1104 913 1147.5 903.5 c 128,-1,108
 1191 894 1191 894 1221 863.5 c 128,-1,109
 1251 833 1251 833 1266.5 775.5 c 128,-1,110
 1282 718 1282 718 1282 623 c 0,111,112
 1282 599 1282 599 1280 561.5 c 128,-1,113
 1278 524 1278 524 1275 480.5 c 128,-1,114
 1272 437 1272 437 1268.5 391 c 128,-1,115
 1265 345 1265 345 1262 303 c 128,-1,116
 1259 261 1259 261 1257 226.5 c 128,-1,117
 1255 192 1255 192 1255 172 c 0,118,119
 1255 142 1255 142 1259 128 c 128,-1,120
 1263 114 1263 114 1268 109 c 0,121,122
 1274 103 1274 103 1282 106 c 1,123,-1
 1282 70 l 1,34,35
1161 -250 m 1,124,125
 1142 -260 1142 -260 1121 -267 c 0,126,127
 1103 -273 1103 -273 1079.5 -278 c 128,-1,128
 1056 -283 1056 -283 1030 -283 c 0,129,130
 984 -283 984 -283 944 -255.5 c 128,-1,131
 904 -228 904 -228 889 -180 c 1,132,-1
 563 -207 l 1,133,134
 557 -245 557 -245 540.5 -270 c 128,-1,135
 524 -295 524 -295 501.5 -310 c 128,-1,136
 479 -325 479 -325 454 -331.5 c 128,-1,137
 429 -338 429 -338 406 -338 c 0,138,139
 391 -338 391 -338 375 -336 c 128,-1,140
 359 -334 359 -334 345 -331 c 0,141,142
 329 -328 329 -328 313 -324 c 1,143,144
 316 -319 316 -319 320 -304 c 0,145,146
 323 -292 323 -292 325.5 -268.5 c 128,-1,147
 328 -245 328 -245 328 -207 c 0,148,149
 328 -196 328 -196 327 -187 c 128,-1,150
 326 -178 326 -178 325 -170 c 0,151,152
 323 -161 323 -161 322 -154 c 1,153,-1
 1122 -92 l 1,154,155
 1122 -128 1122 -128 1125.5 -153 c 128,-1,156
 1129 -178 1129 -178 1134 -195.5 c 128,-1,157
 1139 -213 1139 -213 1146 -225.5 c 128,-1,158
 1153 -238 1153 -238 1161 -250 c 1,124,125
EndSplineSet
EndChar

StartChar: uni1375
Encoding: 4981 4981 28
Width: 1296
Flags: W
LayerCount: 2
Fore
SplineSet
1120 1122 m 1,0,1
 1103 1109 1103 1109 1084 1099 c 0,2,3
 1067 1091 1067 1091 1045.5 1084 c 128,-1,4
 1024 1077 1024 1077 1001 1077 c 0,5,6
 974 1077 974 1077 948.5 1084 c 128,-1,7
 923 1091 923 1091 903 1105 c 128,-1,8
 883 1119 883 1119 870 1139.5 c 128,-1,9
 857 1160 857 1160 856 1188 c 1,10,-1
 487 1153 l 1,11,12
 481 1088 481 1088 435 1057 c 128,-1,13
 389 1026 389 1026 305 1026 c 0,14,15
 291 1026 291 1026 279.5 1028 c 128,-1,16
 268 1030 268 1030 259 1032 c 0,17,18
 248 1035 248 1035 240 1038 c 1,19,20
 246 1049 246 1049 251 1066 c 0,21,22
 255 1080 255 1080 258.5 1100.5 c 128,-1,23
 262 1121 262 1121 262 1149 c 0,24,25
 262 1160 262 1160 260.5 1170.5 c 128,-1,26
 259 1181 259 1181 257 1190 c 2,27,-1
 252 1210 l 1,28,-1
 1090 1280 l 1,29,30
 1085 1187 1085 1187 1120 1122 c 1,0,1
1100 209 m 2,31,32
 1090 163 1090 163 1090 132 c 0,33,34
 1090 109 1090 109 1094 96 c 128,-1,35
 1098 83 1098 83 1103 77 c 0,36,37
 1108 69 1108 69 1116 68 c 1,38,-1
 1116 39 l 1,39,40
 1058 28 1058 28 1010 19 c 0,41,42
 989 15 989 15 969 11.5 c 128,-1,43
 949 8 949 8 932 5.5 c 128,-1,44
 915 3 915 3 903 1.5 c 128,-1,45
 891 0 891 0 887 0 c 0,46,47
 872 0 872 0 858.5 3 c 128,-1,48
 845 6 845 6 835.5 15 c 128,-1,49
 826 24 826 24 820.5 40.5 c 128,-1,50
 815 57 815 57 815 84 c 0,51,52
 815 129 815 129 831 203 c 2,53,-1
 920 616 l 1,54,-1
 799 700 l 1,55,56
 786 646 786 646 767 602.5 c 128,-1,57
 748 559 748 559 725 541 c 0,58,59
 677 504 677 504 619.5 477 c 128,-1,60
 562 450 562 450 501.5 432 c 128,-1,61
 441 414 441 414 381 405.5 c 128,-1,62
 321 397 321 397 268 397 c 0,63,64
 206 397 206 397 168.5 410.5 c 128,-1,65
 131 424 131 424 111 446.5 c 128,-1,66
 91 469 91 469 84.5 499 c 128,-1,67
 78 529 78 529 78 563 c 0,68,69
 78 594 78 594 83 631 c 128,-1,70
 88 668 88 668 93.5 702 c 128,-1,71
 99 736 99 736 104 762.5 c 128,-1,72
 109 789 109 789 109 801 c 0,73,74
 109 812 109 812 104.5 821 c 128,-1,75
 100 830 100 830 95 837 c 0,76,77
 89 844 89 844 82 850 c 1,78,-1
 82 877 l 1,79,80
 143 888 143 888 195 897 c 0,81,82
 217 901 217 901 239 904.5 c 128,-1,83
 261 908 261 908 280.5 911 c 128,-1,84
 300 914 300 914 314.5 916 c 128,-1,85
 329 918 329 918 336 918 c 0,86,87
 364 918 364 918 373.5 897.5 c 128,-1,88
 383 877 383 877 383 840 c 0,89,90
 383 822 383 822 376.5 782.5 c 128,-1,91
 370 743 370 743 361.5 699.5 c 128,-1,92
 353 656 353 656 346.5 615 c 128,-1,93
 340 574 340 574 340 553 c 256,94,95
 340 532 340 532 343 519 c 128,-1,96
 346 506 346 506 352.5 499.5 c 128,-1,97
 359 493 359 493 370 491 c 128,-1,98
 381 489 381 489 397 489 c 0,99,100
 431 489 431 489 452 513.5 c 128,-1,101
 473 538 473 538 487 581.5 c 128,-1,102
 501 625 501 625 510.5 685.5 c 128,-1,103
 520 746 520 746 532 819 c 0,104,105
 535 838 535 838 531.5 850 c 128,-1,106
 528 862 528 862 522 869 c 0,107,108
 515 877 515 877 506 881 c 1,109,-1
 506 913 l 1,110,111
 556 924 556 924 603 933 c 0,112,113
 642 941 642 941 683 947.5 c 128,-1,114
 724 954 724 954 748 954 c 256,115,116
 772 954 772 954 785.5 949.5 c 128,-1,117
 799 945 799 945 806 933.5 c 128,-1,118
 813 922 813 922 815 902.5 c 128,-1,119
 817 883 817 883 817 852 c 0,120,121
 817 836 817 836 816 818.5 c 128,-1,122
 815 801 815 801 813 784 c 1,123,-1
 934 694 l 1,124,-1
 950 768 l 2,125,126
 955 789 955 789 956.5 806 c 128,-1,127
 958 823 958 823 958 837 c 0,128,129
 958 863 958 863 952.5 876.5 c 128,-1,130
 947 890 947 890 941 897 c 0,131,132
 933 905 933 905 924 907 c 1,133,-1
 924 942 l 1,134,135
 984 953 984 953 1033 963 c 0,136,137
 1054 967 1054 967 1074.5 971 c 128,-1,138
 1095 975 1095 975 1112 978 c 128,-1,139
 1129 981 1129 981 1141 983 c 128,-1,140
 1153 985 1153 985 1157 985 c 0,141,142
 1177 985 1177 985 1192.5 982.5 c 128,-1,143
 1208 980 1208 980 1218.5 972.5 c 128,-1,144
 1229 965 1229 965 1234 951 c 128,-1,145
 1239 937 1239 937 1239 913 c 0,146,147
 1239 863 1239 863 1214 750 c 2,148,-1
 1100 209 l 2,31,32
1012 -229 m 1,149,150
 995 -241 995 -241 976 -251 c 0,151,152
 959 -259 959 -259 936.5 -265.5 c 128,-1,153
 914 -272 914 -272 889 -272 c 0,154,155
 866 -272 866 -272 841 -265.5 c 128,-1,156
 816 -259 816 -259 795.5 -245.5 c 128,-1,157
 775 -232 775 -232 761 -212 c 128,-1,158
 747 -192 747 -192 745 -164 c 1,159,-1
 373 -195 l 1,160,161
 374 -228 374 -228 355.5 -253 c 128,-1,162
 337 -278 337 -278 311 -295.5 c 128,-1,163
 285 -313 285 -313 257.5 -321.5 c 128,-1,164
 230 -330 230 -330 215 -330 c 256,165,166
 200 -330 200 -330 184 -327.5 c 128,-1,167
 168 -325 168 -325 154 -321 c 0,168,169
 138 -317 138 -317 123 -311 c 1,170,171
 131 -305 131 -305 137 -291 c 0,172,173
 142 -279 142 -279 147 -256 c 128,-1,174
 152 -233 152 -233 152 -195 c 0,175,176
 152 -184 152 -184 151 -174.5 c 128,-1,177
 150 -165 150 -165 148 -157 c 0,178,179
 146 -148 146 -148 145 -141 c 1,180,-1
 979 -70 l 1,181,182
 979 -106 979 -106 981 -131 c 128,-1,183
 983 -156 983 -156 987.5 -174 c 128,-1,184
 992 -192 992 -192 998 -205 c 128,-1,185
 1004 -218 1004 -218 1012 -229 c 1,149,150
EndSplineSet
EndChar

StartChar: uni1376
Encoding: 4982 4982 29
Width: 967
Flags: W
LayerCount: 2
Fore
SplineSet
897 1120 m 1,0,1
 880 1107 880 1107 860 1097 c 0,2,3
 843 1089 843 1089 819 1082 c 128,-1,4
 795 1075 795 1075 766 1075 c 0,5,6
 709 1075 709 1075 673.5 1106.5 c 128,-1,7
 638 1138 638 1138 621 1192 c 1,8,-1
 420 1169 l 1,9,10
 420 1136 420 1136 403.5 1109.5 c 128,-1,11
 387 1083 387 1083 360.5 1064.5 c 128,-1,12
 334 1046 334 1046 300 1036 c 128,-1,13
 266 1026 266 1026 231 1026 c 0,14,15
 215 1026 215 1026 199.5 1028.5 c 128,-1,16
 184 1031 184 1031 170 1034 c 0,17,18
 154 1038 154 1038 139 1042 c 1,19,20
 148 1059 148 1059 156 1077 c 0,21,22
 163 1093 163 1093 168.5 1113 c 128,-1,23
 174 1133 174 1133 174 1155 c 0,24,25
 174 1164 174 1164 173 1175.5 c 128,-1,26
 172 1187 172 1187 171 1198 c 0,27,28
 169 1210 169 1210 168 1223 c 1,29,-1
 868 1284 l 1,30,31
 867 1278 867 1278 866 1272 c 0,32,33
 865 1267 865 1267 865 1259 c 128,-1,34
 865 1251 865 1251 865 1242 c 0,35,36
 865 1217 865 1217 871 1184.5 c 128,-1,37
 877 1152 877 1152 897 1120 c 1,0,1
737 217 m 2,38,39
 727 178 727 178 727 148 c 0,40,41
 727 103 727 103 745 84.5 c 128,-1,42
 763 66 763 66 780 68 c 1,43,-1
 780 43 l 1,44,45
 718 31 718 31 668 21 c 0,46,47
 646 17 646 17 625 13 c 128,-1,48
 604 9 604 9 586 6 c 128,-1,49
 568 3 568 3 555.5 1.5 c 128,-1,50
 543 0 543 0 539 0 c 0,51,52
 499 0 499 0 480 36.5 c 128,-1,53
 461 73 461 73 461 132 c 0,54,55
 461 164 461 164 466.5 200.5 c 128,-1,56
 472 237 472 237 483 276 c 2,57,-1
 553 522 l 1,58,59
 530 517 530 517 499 512 c 128,-1,60
 468 507 468 507 433.5 502.5 c 128,-1,61
 399 498 399 498 364.5 495 c 128,-1,62
 330 492 330 492 301 492 c 0,63,64
 259 492 259 492 232.5 505 c 128,-1,65
 206 518 206 518 190 537.5 c 128,-1,66
 174 557 174 557 168 579.5 c 128,-1,67
 162 602 162 602 162 621 c 0,68,69
 162 639 162 639 163.5 664 c 128,-1,70
 165 689 165 689 167 715 c 128,-1,71
 169 741 169 741 170.5 767.5 c 128,-1,72
 172 794 172 794 172 815 c 256,73,74
 172 836 172 836 164.5 853 c 128,-1,75
 157 870 157 870 149 881 c 0,76,77
 139 894 139 894 127 905 c 1,78,-1
 127 932 l 1,79,80
 183 942 183 942 231 951 c 0,81,82
 252 955 252 955 273 958.5 c 128,-1,83
 294 962 294 962 313.5 965 c 128,-1,84
 333 968 333 968 349 969.5 c 128,-1,85
 365 971 365 971 375 971 c 0,86,87
 406 971 406 971 422 962.5 c 128,-1,88
 438 954 438 954 445.5 939 c 128,-1,89
 453 924 453 924 454 903.5 c 128,-1,90
 455 883 455 883 455 860 c 256,91,92
 455 837 455 837 453.5 819.5 c 128,-1,93
 452 802 452 802 450.5 784 c 128,-1,94
 449 766 449 766 447.5 743.5 c 128,-1,95
 446 721 446 721 446 688 c 256,96,97
 446 655 446 655 456.5 635.5 c 128,-1,98
 467 616 467 616 482 606 c 128,-1,99
 497 596 497 596 513 593 c 128,-1,100
 529 590 529 590 539 590 c 0,101,102
 547 590 547 590 556 592.5 c 128,-1,103
 565 595 565 595 573 598 c 1,104,-1
 629 793 l 2,105,106
 637 819 637 819 639.5 839.5 c 128,-1,107
 642 860 642 860 642 876 c 0,108,109
 642 898 642 898 637.5 911.5 c 128,-1,110
 633 925 633 925 628 933 c 0,111,112
 622 942 622 942 614 946 c 1,113,-1
 614 981 l 1,114,115
 669 989 669 989 715 995 c 0,116,117
 734 998 734 998 753.5 1000.5 c 128,-1,118
 773 1003 773 1003 789 1005 c 128,-1,119
 805 1007 805 1007 816 1008.5 c 128,-1,120
 827 1010 827 1010 831 1010 c 0,121,122
 869 1010 869 1010 891 991 c 128,-1,123
 913 972 913 972 913 918 c 0,124,125
 913 892 913 892 907.5 856.5 c 128,-1,126
 902 821 902 821 889 774 c 2,127,-1
 737 217 l 2,38,39
827 -231 m 1,128,129
 814 -243 814 -243 796 -252 c 0,130,131
 781 -260 781 -260 759 -266 c 128,-1,132
 737 -272 737 -272 711 -272 c 0,133,134
 657 -272 657 -272 614 -248.5 c 128,-1,135
 571 -225 571 -225 559 -168 c 1,136,-1
 362 -184 l 1,137,138
 361 -213 361 -213 346 -239.5 c 128,-1,139
 331 -266 331 -266 304.5 -285.5 c 128,-1,140
 278 -305 278 -305 242.5 -316.5 c 128,-1,141
 207 -328 207 -328 166 -328 c 0,142,143
 149 -328 149 -328 134 -325 c 128,-1,144
 119 -322 119 -322 108 -318 c 0,145,146
 95 -314 95 -314 84 -307 c 1,147,148
 90 -290 90 -290 94 -272 c 0,149,150
 98 -256 98 -256 101 -237.5 c 128,-1,151
 104 -219 104 -219 104 -201 c 0,152,153
 104 -190 104 -190 103.5 -178.5 c 128,-1,154
 103 -167 103 -167 103 -158 c 0,155,156
 102 -147 102 -147 102 -137 c 1,157,-1
 788 -78 l 1,158,159
 790 -108 790 -108 795 -136 c 0,160,161
 799 -160 799 -160 806.5 -186.5 c 128,-1,162
 814 -213 814 -213 827 -231 c 1,128,129
EndSplineSet
EndChar

StartChar: uni1377
Encoding: 4983 4983 30
Width: 1364
Flags: W
LayerCount: 2
Fore
SplineSet
1315 803 m 1,0,1
 1302 795 1302 795 1286 790 c 0,2,3
 1272 785 1272 785 1252.5 781.5 c 128,-1,4
 1233 778 1233 778 1210 778 c 256,5,6
 1187 778 1187 778 1154 784 c 128,-1,7
 1121 790 1121 790 1089 807 c 128,-1,8
 1057 824 1057 824 1032 855 c 128,-1,9
 1007 886 1007 886 1001 936 c 1,10,-1
 815 920 l 1,11,-1
 764 713 l 1,12,-1
 881 719 l 1,13,-1
 776 324 l 1,14,-1
 1149 360 l 1,15,16
 1147 340 1147 340 1146 319 c 0,17,18
 1144 301 1144 301 1143.5 278.5 c 128,-1,19
 1143 256 1143 256 1143 236 c 0,20,21
 1143 215 1143 215 1148 195.5 c 128,-1,22
 1153 176 1153 176 1160 162 c 0,23,24
 1168 145 1168 145 1178 131 c 1,25,26
 1165 121 1165 121 1149 114 c 0,27,28
 1135 108 1135 108 1115.5 103 c 128,-1,29
 1096 98 1096 98 1073 98 c 256,30,31
 1050 98 1050 98 1020 105 c 128,-1,32
 990 112 990 112 962 130 c 128,-1,33
 934 148 934 148 912.5 180 c 128,-1,34
 891 212 891 212 885 262 c 1,35,-1
 383 215 l 1,36,37
 379 177 379 177 362 139.5 c 128,-1,38
 345 102 345 102 314.5 71 c 128,-1,39
 284 40 284 40 239 21 c 128,-1,40
 194 2 194 2 135 2 c 0,41,42
 114 2 114 2 104 5 c 0,43,44
 98 6 98 6 94 8 c 1,45,46
 107 30 107 30 114 51.5 c 128,-1,47
 121 73 121 73 125 96 c 128,-1,48
 129 119 129 119 130 143.5 c 128,-1,49
 131 168 131 168 131 196 c 2,50,-1
 131 262 l 1,51,-1
 502 297 l 1,52,-1
 610 692 l 1,53,-1
 487 686 l 1,54,-1
 547 895 l 1,55,-1
 389 881 l 1,56,57
 385 843 385 843 364 805 c 128,-1,58
 343 767 343 767 309 736.5 c 128,-1,59
 275 706 275 706 232 687 c 128,-1,60
 189 668 189 668 141 668 c 0,61,62
 130 668 130 668 121.5 670 c 128,-1,63
 113 672 113 672 106 674 c 0,64,65
 98 677 98 677 92 680 c 1,66,67
 108 708 108 708 117 735 c 128,-1,68
 126 762 126 762 130.5 791 c 128,-1,69
 135 820 135 820 136 853.5 c 128,-1,70
 137 887 137 887 137 928 c 1,71,-1
 1284 1036 l 1,72,73
 1282 1015 1282 1015 1281 994 c 0,74,75
 1279 976 1279 976 1278.5 954 c 128,-1,76
 1278 932 1278 932 1278 911 c 256,77,78
 1278 890 1278 890 1283.5 870.5 c 128,-1,79
 1289 851 1289 851 1296 836 c 0,80,81
 1304 818 1304 818 1315 803 c 1,0,1
1085 1126 m 1,82,83
 1069 1118 1069 1118 1052 1113 c 0,84,85
 1038 1108 1038 1108 1021.5 1104 c 128,-1,86
 1005 1100 1005 1100 991 1100 c 0,87,88
 964 1100 964 1100 934 1105 c 128,-1,89
 904 1110 904 1110 879.5 1122 c 128,-1,90
 855 1134 855 1134 839 1153.5 c 128,-1,91
 823 1173 823 1173 823 1202 c 1,92,-1
 557 1182 l 1,93,94
 558 1150 558 1150 544.5 1125.5 c 128,-1,95
 531 1101 531 1101 506 1084 c 128,-1,96
 481 1067 481 1067 446.5 1058 c 128,-1,97
 412 1049 412 1049 371 1049 c 0,98,99
 354 1049 354 1049 341.5 1052 c 128,-1,100
 329 1055 329 1055 321 1059 c 0,101,102
 311 1063 311 1063 305 1069 c 1,103,104
 314 1081 314 1081 321 1098 c 0,105,106
 327 1112 327 1112 332.5 1133 c 128,-1,107
 338 1154 338 1154 338 1182 c 0,108,109
 338 1193 338 1193 337 1203 c 128,-1,110
 336 1213 336 1213 334 1221 c 0,111,112
 332 1231 332 1231 330 1239 c 1,113,-1
 1051 1292 l 1,114,115
 1049 1246 1049 1246 1058 1203 c 128,-1,116
 1067 1160 1067 1160 1085 1126 c 1,82,83
1061 -203 m 1,117,118
 1045 -215 1045 -215 1027 -225 c 0,119,120
 1011 -233 1011 -233 989.5 -239.5 c 128,-1,121
 968 -246 968 -246 942 -246 c 0,122,123
 900 -246 900 -246 873.5 -238 c 128,-1,124
 847 -230 847 -230 831 -215 c 128,-1,125
 815 -200 815 -200 807.5 -179.5 c 128,-1,126
 800 -159 800 -159 797 -133 c 1,127,-1
 537 -160 l 1,128,129
 517 -226 517 -226 472.5 -256.5 c 128,-1,130
 428 -287 428 -287 371 -287 c 0,131,132
 354 -287 354 -287 338.5 -284 c 128,-1,133
 323 -281 323 -281 312 -276 c 0,134,135
 299 -271 299 -271 287 -264 c 1,136,137
 294 -255 294 -255 299 -241 c 0,138,139
 304 -229 304 -229 307.5 -209.5 c 128,-1,140
 311 -190 311 -190 311 -162 c 0,141,142
 311 -151 311 -151 310 -142 c 128,-1,143
 309 -133 309 -133 308 -125 c 0,144,145
 306 -116 306 -116 305 -109 c 1,146,-1
 1032 -43 l 1,147,148
 1029 -54 1029 -54 1028 -65.5 c 128,-1,149
 1027 -77 1027 -77 1027 -88 c 0,150,151
 1027 -125 1027 -125 1038 -155 c 128,-1,152
 1049 -185 1049 -185 1061 -203 c 1,117,118
EndSplineSet
EndChar

StartChar: uni1378
Encoding: 4984 4984 31
Width: 1376
Flags: W
LayerCount: 2
Fore
SplineSet
1104 1130 m 1,0,1
 1088 1122 1088 1122 1071 1117 c 0,2,3
 1057 1112 1057 1112 1040.5 1108 c 128,-1,4
 1024 1104 1024 1104 1010 1104 c 0,5,6
 982 1104 982 1104 952.5 1109 c 128,-1,7
 923 1114 923 1114 898.5 1126 c 128,-1,8
 874 1138 874 1138 858 1157.5 c 128,-1,9
 842 1177 842 1177 842 1206 c 1,10,-1
 594 1180 l 1,11,12
 595 1156 595 1156 585 1132 c 128,-1,13
 575 1108 575 1108 554.5 1089.5 c 128,-1,14
 534 1071 534 1071 503 1059 c 128,-1,15
 472 1047 472 1047 430 1047 c 0,16,17
 413 1047 413 1047 395 1049.5 c 128,-1,18
 377 1052 377 1052 363 1055 c 0,19,20
 346 1059 346 1059 330 1063 c 1,21,22
 339 1075 339 1075 346 1092 c 0,23,24
 352 1106 352 1106 357 1127 c 128,-1,25
 362 1148 362 1148 362 1176 c 0,26,27
 362 1187 362 1187 361 1197 c 128,-1,28
 360 1207 360 1207 358 1215 c 0,29,30
 356 1225 356 1225 354 1233 c 1,31,-1
 1069 1296 l 1,32,33
 1067 1250 1067 1250 1076 1207.5 c 128,-1,34
 1085 1165 1085 1165 1104 1130 c 1,0,1
1323 813 m 256,35,36
 1323 759 1323 759 1301.5 717.5 c 128,-1,37
 1280 676 1280 676 1249 647 c 128,-1,38
 1218 618 1218 618 1182 603 c 128,-1,39
 1146 588 1146 588 1118 588 c 0,40,41
 1093 588 1093 588 1065.5 593 c 128,-1,42
 1038 598 1038 598 1012 598 c 0,43,44
 999 598 999 598 977 590 c 128,-1,45
 955 582 955 582 928 572.5 c 128,-1,46
 901 563 901 563 870.5 555 c 128,-1,47
 840 547 840 547 809 547 c 256,48,49
 778 547 778 547 752.5 556 c 128,-1,50
 727 565 727 565 708.5 584.5 c 128,-1,51
 690 604 690 604 680 634.5 c 128,-1,52
 670 665 670 665 670 709 c 0,53,54
 670 785 670 785 688 838 c 1,55,56
 668 848 668 848 635 848 c 0,57,58
 588 848 588 848 550.5 812.5 c 128,-1,59
 513 777 513 777 485 722 c 128,-1,60
 457 667 457 667 437 600 c 128,-1,61
 417 533 417 533 404.5 470.5 c 128,-1,62
 392 408 392 408 386.5 357 c 128,-1,63
 381 306 381 306 381 283 c 0,64,65
 381 228 381 228 392.5 194 c 128,-1,66
 404 160 404 160 420.5 141 c 128,-1,67
 437 122 437 122 456.5 115.5 c 128,-1,68
 476 109 476 109 492 109 c 256,69,70
 508 109 508 109 537.5 116 c 128,-1,71
 567 123 567 123 596 132 c 0,72,73
 630 143 630 143 668 156 c 1,74,75
 672 192 672 192 690.5 221 c 128,-1,76
 709 250 709 250 746 270.5 c 128,-1,77
 783 291 783 291 842 302 c 128,-1,78
 901 313 901 313 987 313 c 1,79,80
 985 301 985 301 983 286 c 0,81,82
 981 273 981 273 980 255.5 c 128,-1,83
 979 238 979 238 979 217 c 0,84,85
 979 177 979 177 989.5 148.5 c 128,-1,86
 1000 120 1000 120 1013 102 c 0,87,88
 1028 80 1028 80 1047 66 c 1,89,90
 1014 47 1014 47 978 33 c 0,91,92
 947 20 947 20 907.5 10 c 128,-1,93
 868 0 868 0 827 0 c 256,94,95
 786 0 786 0 758 11.5 c 128,-1,96
 730 23 730 23 712 37 c 0,97,98
 691 53 691 53 678 74 c 1,99,100
 610 53 610 53 546 37 c 0,101,102
 519 30 519 30 489.5 23.5 c 128,-1,103
 460 17 460 17 431 11.5 c 128,-1,104
 402 6 402 6 375 3 c 128,-1,105
 348 0 348 0 326 0 c 0,106,107
 281 0 281 0 239.5 15.5 c 128,-1,108
 198 31 198 31 165.5 65 c 128,-1,109
 133 99 133 99 113.5 152.5 c 128,-1,110
 94 206 94 206 94 281 c 0,111,112
 94 331 94 331 106 398.5 c 128,-1,113
 118 466 118 466 143.5 538 c 128,-1,114
 169 610 169 610 210 679.5 c 128,-1,115
 251 749 251 749 309 804.5 c 128,-1,116
 367 860 367 860 444 894 c 128,-1,117
 521 928 521 928 618 928 c 0,118,119
 656 928 656 928 680.5 920 c 128,-1,120
 705 912 705 912 721 903 c 1,121,122
 749 942 749 942 788.5 963.5 c 128,-1,123
 828 985 828 985 874.5 995.5 c 128,-1,124
 921 1006 921 1006 971.5 1008 c 128,-1,125
 1022 1010 1022 1010 1073 1010 c 0,126,127
 1145 1010 1145 1010 1193.5 999.5 c 128,-1,128
 1242 989 1242 989 1270.5 965.5 c 128,-1,129
 1299 942 1299 942 1311 904.5 c 128,-1,130
 1323 867 1323 867 1323 813 c 256,35,36
1044 -225 m 1,131,132
 1028 -235 1028 -235 1010 -243 c 0,133,134
 994 -250 994 -250 972.5 -255 c 128,-1,135
 951 -260 951 -260 926 -260 c 0,136,137
 861 -260 861 -260 823.5 -233.5 c 128,-1,138
 786 -207 786 -207 780 -156 c 1,139,-1
 530 -178 l 1,140,141
 533 -210 533 -210 517 -235.5 c 128,-1,142
 501 -261 501 -261 475 -278.5 c 128,-1,143
 449 -296 449 -296 417.5 -305.5 c 128,-1,144
 386 -315 386 -315 358 -315 c 0,145,146
 341 -315 341 -315 325.5 -312 c 128,-1,147
 310 -309 310 -309 299 -304 c 0,148,149
 286 -300 286 -300 274 -293 c 1,150,151
 281 -284 281 -284 286 -269 c 0,152,153
 291 -257 291 -257 295 -237.5 c 128,-1,154
 299 -218 299 -218 299 -190 c 0,155,156
 299 -179 299 -179 297.5 -168.5 c 128,-1,157
 296 -158 296 -158 294 -150 c 0,158,159
 291 -140 291 -140 289 -131 c 1,160,-1
 1016 -66 l 1,161,162
 1010 -90 1010 -90 1010 -112 c 0,163,164
 1010 -149 1010 -149 1021.5 -178.5 c 128,-1,165
 1033 -208 1033 -208 1044 -225 c 1,131,132
1075 817 m 0,166,167
 1075 879 1075 879 1059.5 910.5 c 128,-1,168
 1044 942 1044 942 1004 942 c 0,169,170
 978 942 978 942 960 928.5 c 128,-1,171
 942 915 942 915 931 892.5 c 128,-1,172
 920 870 920 870 915.5 840 c 128,-1,173
 911 810 911 810 911 778 c 0,174,175
 911 713 911 713 930.5 687.5 c 128,-1,176
 950 662 950 662 987 662 c 0,177,178
 1034 662 1034 662 1054.5 698 c 128,-1,179
 1075 734 1075 734 1075 817 c 0,166,167
EndSplineSet
EndChar

StartChar: uni1379
Encoding: 4985 4985 32
Width: 1745
Flags: W
LayerCount: 2
Fore
SplineSet
1362 1141 m 1,0,1
 1348 1131 1348 1131 1330 1123 c 0,2,3
 1315 1116 1315 1116 1294.5 1111 c 128,-1,4
 1274 1106 1274 1106 1251 1106 c 0,5,6
 1224 1106 1224 1106 1197 1110.5 c 128,-1,7
 1170 1115 1170 1115 1148.5 1126 c 128,-1,8
 1127 1137 1127 1137 1113 1155.5 c 128,-1,9
 1099 1174 1099 1174 1098 1202 c 1,10,-1
 702 1159 l 1,11,12
 696 1094 696 1094 649 1060 c 128,-1,13
 602 1026 602 1026 518 1026 c 0,14,15
 504 1026 504 1026 492.5 1028 c 128,-1,16
 481 1030 481 1030 472 1032 c 0,17,18
 461 1035 461 1035 453 1038 c 1,19,20
 459 1050 459 1050 464 1067 c 0,21,22
 468 1081 468 1081 471.5 1102 c 128,-1,23
 475 1123 475 1123 475 1151 c 0,24,25
 475 1162 475 1162 473.5 1172.5 c 128,-1,26
 472 1183 472 1183 470 1192 c 2,27,-1
 465 1212 l 1,28,-1
 1323 1296 l 1,29,30
 1321 1250 1321 1250 1332 1212.5 c 128,-1,31
 1343 1175 1343 1175 1362 1141 c 1,0,1
1698 748 m 1,32,33
 1689 741 1689 741 1676 736 c 0,34,35
 1665 731 1665 731 1647.5 728 c 128,-1,36
 1630 725 1630 725 1606 725 c 0,37,38
 1581 725 1581 725 1543 730 c 128,-1,39
 1505 735 1505 735 1469 752.5 c 128,-1,40
 1433 770 1433 770 1406 804 c 128,-1,41
 1379 838 1379 838 1376 897 c 1,42,-1
 1208 879 l 1,43,-1
 1126 236 l 2,44,45
 1123 212 1123 212 1123 192 c 0,46,47
 1123 157 1123 157 1130 138.5 c 128,-1,48
 1137 120 1137 120 1145 111 c 0,49,50
 1155 100 1155 100 1167 98 c 1,51,-1
 1167 70 l 1,52,53
 1112 61 1112 61 1066 55 c 0,54,55
 1046 52 1046 52 1027 49.5 c 128,-1,56
 1008 47 1008 47 991.5 45 c 128,-1,57
 975 43 975 43 963.5 42 c 128,-1,58
 952 41 952 41 948 41 c 0,59,60
 930 41 930 41 914.5 40.5 c 128,-1,61
 899 40 899 40 887.5 47 c 128,-1,62
 876 54 876 54 869 71.5 c 128,-1,63
 862 89 862 89 862 125 c 0,64,65
 862 156 862 156 868 207 c 2,66,-1
 956 852 l 1,67,-1
 836 840 l 1,68,-1
 752 197 l 2,69,70
 749 171 749 171 749 152 c 0,71,72
 749 118 749 118 756 99.5 c 128,-1,73
 763 81 763 81 771 72 c 0,74,75
 781 61 781 61 793 59 c 1,76,-1
 793 31 l 1,77,78
 738 22 738 22 692 16 c 0,79,80
 672 13 672 13 653 10.5 c 128,-1,81
 634 8 634 8 617.5 6 c 128,-1,82
 601 4 601 4 589 3 c 128,-1,83
 577 2 577 2 573 2 c 0,84,85
 564 2 564 2 555.5 1.5 c 128,-1,86
 547 1 547 1 539 1 c 0,87,88
 528 1 528 1 519.5 3.5 c 128,-1,89
 511 6 511 6 505 13.5 c 128,-1,90
 499 21 499 21 496 35.5 c 128,-1,91
 493 50 493 50 493 74 c 0,92,93
 493 91 493 91 494.5 112.5 c 128,-1,94
 496 134 496 134 500 162 c 2,95,-1
 582 813 l 1,96,-1
 410 795 l 1,97,98
 406 760 406 760 389 729 c 128,-1,99
 372 698 372 698 347 672 c 128,-1,100
 322 646 322 646 292 625.5 c 128,-1,101
 262 605 262 605 233.5 590.5 c 128,-1,102
 205 576 205 576 179.5 568.5 c 128,-1,103
 154 561 154 561 139 561 c 0,104,105
 128 561 128 561 117.5 562 c 128,-1,106
 107 563 107 563 99 565 c 0,107,108
 89 567 89 567 80 569 c 1,109,110
 92 594 92 594 103 623 c 0,111,112
 112 647 112 647 119.5 678.5 c 128,-1,113
 127 710 127 710 127 743 c 0,114,115
 127 758 127 758 126 776 c 128,-1,116
 125 794 125 794 123 809 c 0,117,118
 121 827 121 827 119 844 c 1,119,-1
 1653 1001 l 1,120,121
 1651 988 1651 988 1650 973 c 0,122,123
 1647 946 1647 946 1647 901 c 0,124,125
 1647 878 1647 878 1654.5 851.5 c 128,-1,126
 1662 825 1662 825 1672 802 c 0,127,128
 1683 775 1683 775 1698 748 c 1,32,33
1362 -215 m 1,129,130
 1337 -225 1337 -225 1314 -232 c 0,131,132
 1294 -238 1294 -238 1274 -243 c 128,-1,133
 1254 -248 1254 -248 1243 -248 c 0,134,135
 1220 -248 1220 -248 1195.5 -242.5 c 128,-1,136
 1171 -237 1171 -237 1149 -225 c 128,-1,137
 1127 -213 1127 -213 1110 -194.5 c 128,-1,138
 1093 -176 1093 -176 1085 -150 c 1,139,-1
 696 -186 l 1,140,141
 697 -219 697 -219 678.5 -243 c 128,-1,142
 660 -267 660 -267 634 -282.5 c 128,-1,143
 608 -298 608 -298 581 -305.5 c 128,-1,144
 554 -313 554 -313 539 -313 c 256,145,146
 524 -313 524 -313 508.5 -311 c 128,-1,147
 493 -309 493 -309 480 -307 c 0,148,149
 465 -304 465 -304 451 -301 c 1,150,151
 457 -291 457 -291 461 -278 c 0,152,153
 465 -267 465 -267 468 -251 c 128,-1,154
 471 -235 471 -235 471 -215 c 0,155,156
 471 -204 471 -204 470 -190 c 128,-1,157
 469 -176 469 -176 468 -164 c 0,158,159
 466 -150 466 -150 465 -135 c 1,160,-1
 1319 -55 l 1,161,162
 1319 -91 1319 -91 1323 -116.5 c 128,-1,163
 1327 -142 1327 -142 1333 -160 c 128,-1,164
 1339 -178 1339 -178 1346.5 -190.5 c 128,-1,165
 1354 -203 1354 -203 1362 -215 c 1,129,130
EndSplineSet
EndChar

StartChar: uni137A
Encoding: 4986 4986 33
Width: 983
Flags: W
LayerCount: 2
Fore
SplineSet
932 1143 m 1,0,1
 911 1130 911 1130 892 1119 c 0,2,3
 875 1110 875 1110 857 1103 c 128,-1,4
 839 1096 839 1096 825 1096 c 0,5,6
 798 1096 798 1096 770.5 1104.5 c 128,-1,7
 743 1113 743 1113 720 1127 c 128,-1,8
 697 1141 697 1141 681.5 1160.5 c 128,-1,9
 666 1180 666 1180 662 1202 c 1,10,-1
 432 1180 l 1,11,12
 433 1156 433 1156 419.5 1131 c 128,-1,13
 406 1106 406 1106 382 1086 c 128,-1,14
 358 1066 358 1066 323.5 1053 c 128,-1,15
 289 1040 289 1040 248 1040 c 0,16,17
 231 1040 231 1040 218 1043.5 c 128,-1,18
 205 1047 205 1047 196 1052 c 0,19,20
 185 1057 185 1057 178 1065 c 1,21,22
 187 1077 187 1077 194 1094 c 0,23,24
 200 1108 200 1108 205.5 1129 c 128,-1,25
 211 1150 211 1150 211 1178 c 0,26,27
 211 1189 211 1189 210 1198 c 128,-1,28
 209 1207 209 1207 208 1215 c 0,29,30
 206 1224 206 1224 205 1231 c 1,31,-1
 887 1298 l 1,32,33
 887 1290 887 1290 886.5 1282.5 c 128,-1,34
 886 1275 886 1275 886 1267 c 0,35,36
 886 1230 886 1230 894.5 1198 c 128,-1,37
 903 1166 903 1166 932 1143 c 1,0,1
764 215 m 2,38,39
 760 203 760 203 757 190 c 0,40,41
 754 179 754 179 752 163 c 128,-1,42
 750 147 750 147 750 129 c 0,43,44
 750 110 750 110 754 100.5 c 128,-1,45
 758 91 758 91 763 86 c 256,46,47
 768 81 768 81 776 80 c 1,48,-1
 776 43 l 1,49,50
 665 23 665 23 600 11.5 c 128,-1,51
 535 0 535 0 506 0 c 0,52,53
 474 0 474 0 455 14.5 c 128,-1,54
 436 29 436 29 436 74 c 0,55,56
 436 106 436 106 445 138.5 c 128,-1,57
 454 171 454 171 463 199 c 2,58,-1
 621 625 l 1,59,-1
 465 616 l 1,60,61
 485 675 485 675 501 723 c 0,62,63
 508 744 508 744 514.5 764 c 128,-1,64
 521 784 521 784 526 801 c 128,-1,65
 531 818 531 818 534 830.5 c 128,-1,66
 537 843 537 843 537 848 c 0,67,68
 537 883 537 883 518.5 904.5 c 128,-1,69
 500 926 500 926 463 926 c 0,70,71
 451 926 451 926 439 923 c 128,-1,72
 427 920 427 920 416 916 c 0,73,74
 404 912 404 912 393 907 c 1,75,76
 398 868 398 868 384.5 823 c 128,-1,77
 371 778 371 778 333.5 739 c 128,-1,78
 296 700 296 700 232.5 674.5 c 128,-1,79
 169 649 169 649 74 649 c 1,80,81
 85 670 85 670 95 697 c 0,82,83
 103 720 103 720 110 753 c 128,-1,84
 117 786 117 786 117 827 c 0,85,86
 117 842 117 842 116 859.5 c 128,-1,87
 115 877 115 877 113 891 c 0,88,89
 111 908 111 908 109 924 c 1,90,91
 171 942 171 942 247 960 c 128,-1,92
 323 978 323 978 401 992.5 c 128,-1,93
 479 1007 479 1007 553 1015.5 c 128,-1,94
 627 1024 627 1024 686 1024 c 0,95,96
 730 1024 730 1024 758.5 1020.5 c 128,-1,97
 787 1017 787 1017 804 1004.5 c 128,-1,98
 821 992 821 992 827.5 968.5 c 128,-1,99
 834 945 834 945 834 905 c 0,100,101
 834 884 834 884 824.5 846 c 128,-1,102
 815 808 815 808 802 768.5 c 128,-1,103
 789 729 789 729 776.5 693.5 c 128,-1,104
 764 658 764 658 758 641 c 1,105,-1
 895 647 l 1,106,-1
 764 215 l 2,38,39
932 -229 m 1,107,108
 912 -238 912 -238 893 -245 c 0,109,110
 876 -251 876 -251 858.5 -255.5 c 128,-1,111
 841 -260 841 -260 827 -260 c 0,112,113
 800 -260 800 -260 772 -255.5 c 128,-1,114
 744 -251 744 -251 722 -240 c 128,-1,115
 700 -229 700 -229 686 -210 c 128,-1,116
 672 -191 672 -191 672 -162 c 1,117,-1
 420 -186 l 1,118,119
 409 -249 409 -249 371 -281 c 128,-1,120
 333 -313 333 -313 250 -313 c 0,121,122
 233 -313 233 -313 219 -310.5 c 128,-1,123
 205 -308 205 -308 194 -304 c 0,124,125
 182 -300 182 -300 172 -295 c 1,126,127
 179 -287 179 -287 184 -275 c 0,128,129
 189 -264 189 -264 193 -249 c 128,-1,130
 197 -234 197 -234 197 -213 c 0,131,132
 197 -202 197 -202 196 -188 c 128,-1,133
 195 -174 195 -174 193 -162 c 0,134,135
 191 -148 191 -148 190 -133 c 1,136,-1
 889 -74 l 1,137,138
 889 -83 889 -83 888.5 -92 c 128,-1,139
 888 -101 888 -101 888 -110 c 0,140,141
 888 -145 888 -145 895.5 -176 c 128,-1,142
 903 -207 903 -207 932 -229 c 1,107,108
EndSplineSet
EndChar

StartChar: uni137B
Encoding: 4987 4987 34
Width: 928
Flags: W
LayerCount: 2
Fore
SplineSet
915 1114 m 1,0,1
 898 1103 898 1103 877 1095 c 0,2,3
 859 1088 859 1088 835 1082.5 c 128,-1,4
 811 1077 811 1077 782 1077 c 0,5,6
 755 1077 755 1077 729.5 1084 c 128,-1,7
 704 1091 704 1091 685 1104.5 c 128,-1,8
 666 1118 666 1118 654.5 1137.5 c 128,-1,9
 643 1157 643 1157 643 1182 c 1,10,-1
 389 1163 l 1,11,12
 393 1139 393 1139 384.5 1115 c 128,-1,13
 376 1091 376 1091 355 1071 c 128,-1,14
 334 1051 334 1051 302.5 1038.5 c 128,-1,15
 271 1026 271 1026 229 1026 c 0,16,17
 212 1026 212 1026 195.5 1029 c 128,-1,18
 179 1032 179 1032 165 1037 c 0,19,20
 149 1042 149 1042 135 1049 c 1,21,22
 144 1060 144 1060 151 1077 c 0,23,24
 157 1091 157 1091 162.5 1112 c 128,-1,25
 168 1133 168 1133 168 1161 c 0,26,27
 168 1172 168 1172 167 1181 c 128,-1,28
 166 1190 166 1190 165 1198 c 0,29,30
 163 1207 163 1207 162 1214 c 1,31,-1
 870 1270 l 1,32,33
 870 1262 870 1262 869.5 1254.5 c 128,-1,34
 869 1247 869 1247 869 1239 c 0,35,36
 869 1201 869 1201 877.5 1169 c 128,-1,37
 886 1137 886 1137 915 1114 c 1,0,1
834 815 m 0,38,39
 834 757 834 757 816 713 c 128,-1,40
 798 669 798 669 768.5 637 c 128,-1,41
 739 605 739 605 702 583.5 c 128,-1,42
 665 562 665 562 627.5 548.5 c 128,-1,43
 590 535 590 535 554.5 528 c 128,-1,44
 519 521 519 521 494 518 c 1,45,46
 505 501 505 501 513.5 482.5 c 128,-1,47
 522 464 522 464 528 438 c 0,48,49
 529 433 529 433 530 418 c 128,-1,50
 531 403 531 403 532 382 c 128,-1,51
 533 361 533 361 533 336 c 128,-1,52
 533 311 533 311 533 287 c 0,53,54
 533 266 533 266 532.5 246.5 c 128,-1,55
 532 227 532 227 532 213 c 2,56,-1
 532 182 l 2,57,58
 533 147 533 147 543.5 124 c 128,-1,59
 554 101 554 101 566 87 c 0,60,61
 580 71 580 71 598 63 c 1,62,-1
 598 33 l 1,63,64
 546 23 546 23 499 16 c 0,65,66
 459 10 459 10 418.5 5 c 128,-1,67
 378 0 378 0 356 0 c 0,68,69
 313 0 313 0 293.5 18.5 c 128,-1,70
 274 37 274 37 272 68 c 0,71,72
 271 136 271 136 269 191 c 0,73,74
 268 215 268 215 267.5 238 c 128,-1,75
 267 261 267 261 266 280.5 c 128,-1,76
 265 300 265 300 264 313.5 c 128,-1,77
 263 327 263 327 262 332 c 0,78,79
 256 357 256 357 240 396 c 128,-1,80
 224 435 224 435 207 482.5 c 128,-1,81
 190 530 190 530 177 582.5 c 128,-1,82
 164 635 164 635 164 686 c 0,83,84
 164 773 164 773 198 836.5 c 128,-1,85
 232 900 232 900 288.5 941 c 128,-1,86
 345 982 345 982 419 1002 c 128,-1,87
 493 1022 493 1022 573 1022 c 0,88,89
 635 1022 635 1022 683.5 1012.5 c 128,-1,90
 732 1003 732 1003 765.5 979.5 c 128,-1,91
 799 956 799 956 816.5 916 c 128,-1,92
 834 876 834 876 834 815 c 0,38,39
846 -231 m 1,93,94
 821 -241 821 -241 797 -248 c 0,95,96
 777 -254 777 -254 756 -259 c 128,-1,97
 735 -264 735 -264 721 -264 c 0,98,99
 693 -264 693 -264 668.5 -259.5 c 128,-1,100
 644 -255 644 -255 625.5 -243.5 c 128,-1,101
 607 -232 607 -232 596.5 -212.5 c 128,-1,102
 586 -193 586 -193 586 -164 c 1,103,-1
 324 -184 l 1,104,105
 313 -247 313 -247 274.5 -279 c 128,-1,106
 236 -311 236 -311 154 -311 c 0,107,108
 137 -311 137 -311 123 -308.5 c 128,-1,109
 109 -306 109 -306 98 -302 c 0,110,111
 86 -298 86 -298 76 -293 c 1,112,113
 83 -285 83 -285 88 -273 c 0,114,115
 93 -262 93 -262 96.5 -247 c 128,-1,116
 100 -232 100 -232 100 -211 c 0,117,118
 100 -200 100 -200 99 -186 c 128,-1,119
 98 -172 98 -172 97 -160 c 0,120,121
 95 -146 95 -146 94 -131 c 1,122,-1
 803 -76 l 1,123,124
 803 -85 803 -85 802.5 -94 c 128,-1,125
 802 -103 802 -103 802 -112 c 0,126,127
 802 -147 802 -147 809.5 -178 c 128,-1,128
 817 -209 817 -209 846 -231 c 1,93,94
573 786 m 0,129,130
 573 865 573 865 553 903.5 c 128,-1,131
 533 942 533 942 496 942 c 0,132,133
 477 942 477 942 463 938 c 128,-1,134
 449 934 449 934 440 917.5 c 128,-1,135
 431 901 431 901 426.5 867.5 c 128,-1,136
 422 834 422 834 422 776 c 0,137,138
 422 739 422 739 425 710 c 128,-1,139
 428 681 428 681 432.5 657.5 c 128,-1,140
 437 634 437 634 443.5 615 c 128,-1,141
 450 596 450 596 457 580 c 1,142,143
 475 585 475 585 495.5 597.5 c 128,-1,144
 516 610 516 610 533.5 633.5 c 128,-1,145
 551 657 551 657 562 694 c 128,-1,146
 573 731 573 731 573 786 c 0,129,130
EndSplineSet
EndChar

StartChar: uni137C
Encoding: 4988 4988 35
Width: 1407
Flags: W
LayerCount: 2
Fore
SplineSet
1358 825 m 0,0,1
 1358 776 1358 776 1340 735.5 c 128,-1,2
 1322 695 1322 695 1293.5 661.5 c 128,-1,3
 1265 628 1265 628 1229.5 601.5 c 128,-1,4
 1194 575 1194 575 1158 555 c 128,-1,5
 1122 535 1122 535 1089 521.5 c 128,-1,6
 1056 508 1056 508 1034 500 c 1,7,8
 1037 490 1037 490 1040 479.5 c 128,-1,9
 1043 469 1043 469 1047 457 c 0,10,11
 1048 452 1048 452 1049 438 c 128,-1,12
 1050 424 1050 424 1051.5 403.5 c 128,-1,13
 1053 383 1053 383 1054 359 c 128,-1,14
 1055 335 1055 335 1056 311 c 0,15,16
 1059 254 1059 254 1061 184 c 0,17,18
 1063 157 1063 157 1067.5 140 c 128,-1,19
 1072 123 1072 123 1077 112 c 0,20,21
 1083 100 1083 100 1090 94 c 1,22,-1
 1090 55 l 1,23,24
 1039 44 1039 44 996 35 c 0,25,26
 959 27 959 27 923.5 21.5 c 128,-1,27
 888 16 888 16 874 16 c 0,28,29
 839 16 839 16 815.5 29 c 128,-1,30
 792 42 792 42 791 86 c 0,31,32
 790 159 790 159 789 223 c 0,33,34
 789 250 789 250 788.5 278.5 c 128,-1,35
 788 307 788 307 787 332.5 c 128,-1,36
 786 358 786 358 785.5 378.5 c 128,-1,37
 785 399 785 399 784 412 c 1,38,-1
 408 358 l 1,39,-1
 408 184 l 2,40,41
 408 144 408 144 410 121.5 c 128,-1,42
 412 99 412 99 415 88 c 0,43,44
 418 75 418 75 422 72 c 1,45,-1
 422 33 l 1,46,47
 378 24 378 24 338 17 c 0,48,49
 303 11 303 11 267.5 6.5 c 128,-1,50
 232 2 232 2 211 2 c 0,51,52
 176 2 176 2 161.5 20.5 c 128,-1,53
 147 39 147 39 147 70 c 0,54,55
 148 125 148 125 150 179 c 0,56,57
 152 225 152 225 153 274.5 c 128,-1,58
 154 324 154 324 154 360 c 0,59,60
 154 400 154 400 152 410 c 0,61,62
 146 435 146 435 136.5 464 c 128,-1,63
 127 493 127 493 118 528.5 c 128,-1,64
 109 564 109 564 102.5 606.5 c 128,-1,65
 96 649 96 649 96 700 c 0,66,67
 96 754 96 754 117 796.5 c 128,-1,68
 138 839 138 839 172.5 872 c 128,-1,69
 207 905 207 905 250.5 928 c 128,-1,70
 294 951 294 951 339.5 966 c 128,-1,71
 385 981 385 981 428.5 988 c 128,-1,72
 472 995 472 995 506 995 c 0,73,74
 551 995 551 995 584 978.5 c 128,-1,75
 617 962 617 962 638.5 935.5 c 128,-1,76
 660 909 660 909 671 876 c 128,-1,77
 682 843 682 843 682 809 c 0,78,79
 682 741 682 741 650 688.5 c 128,-1,80
 618 636 618 636 572 596.5 c 128,-1,81
 526 557 526 557 476 530.5 c 128,-1,82
 426 504 426 504 389 489 c 1,83,84
 392 478 392 478 396 466 c 128,-1,85
 400 454 400 454 403 440 c 0,86,87
 403 438 403 438 403.5 436.5 c 128,-1,88
 404 435 404 435 406 430 c 1,89,-1
 770 485 l 1,90,91
 761 530 761 530 755.5 586.5 c 128,-1,92
 750 643 750 643 750 719 c 0,93,94
 750 775 750 775 771 818 c 128,-1,95
 792 861 792 861 827 893.5 c 128,-1,96
 862 926 862 926 906 948 c 128,-1,97
 950 970 950 970 996 984 c 128,-1,98
 1042 998 1042 998 1085.5 1004 c 128,-1,99
 1129 1010 1129 1010 1163 1010 c 0,100,101
 1208 1010 1208 1010 1244 993.5 c 128,-1,102
 1280 977 1280 977 1305.5 951 c 128,-1,103
 1331 925 1331 925 1344.5 892 c 128,-1,104
 1358 859 1358 859 1358 825 c 0,0,1
1167 1087 m 1,105,106
 1155 1077 1155 1077 1137 1070 c 0,107,108
 1122 1063 1122 1063 1100.5 1058 c 128,-1,109
 1079 1053 1079 1053 1051 1053 c 256,110,111
 1023 1053 1023 1053 993 1061 c 128,-1,112
 963 1069 963 1069 939 1084.5 c 128,-1,113
 915 1100 915 1100 901.5 1123 c 128,-1,114
 888 1146 888 1146 893 1176 c 1,115,-1
 541 1167 l 1,116,117
 535 1146 535 1146 522 1125.5 c 128,-1,118
 509 1105 509 1105 488 1088.5 c 128,-1,119
 467 1072 467 1072 436.5 1061.5 c 128,-1,120
 406 1051 406 1051 365 1051 c 0,121,122
 348 1051 348 1051 330.5 1055.5 c 128,-1,123
 313 1060 313 1060 299 1065 c 0,124,125
 282 1071 282 1071 268 1079 c 1,126,127
 276 1084 276 1084 283 1097 c 0,128,129
 289 1108 289 1108 294 1129.5 c 128,-1,130
 299 1151 299 1151 299 1186 c 0,131,132
 299 1197 299 1197 298 1206 c 128,-1,133
 297 1215 297 1215 296 1223 c 0,134,135
 294 1232 294 1232 293 1239 c 1,136,-1
 1130 1260 l 1,137,138
 1128 1213 1128 1213 1136 1167.5 c 128,-1,139
 1144 1122 1144 1122 1167 1087 c 1,105,106
1038 -268 m 1,140,141
 1028 -278 1028 -278 1014 -285 c 0,142,143
 1001 -291 1001 -291 982 -296 c 128,-1,144
 963 -301 963 -301 934 -301 c 0,145,146
 906 -301 906 -301 879.5 -295.5 c 128,-1,147
 853 -290 853 -290 831.5 -276.5 c 128,-1,148
 810 -263 810 -263 795 -240.5 c 128,-1,149
 780 -218 780 -218 776 -184 c 1,150,-1
 438 -193 l 1,151,152
 437 -211 437 -211 425 -232 c 128,-1,153
 413 -253 413 -253 392 -270.5 c 128,-1,154
 371 -288 371 -288 342.5 -299.5 c 128,-1,155
 314 -311 314 -311 281 -311 c 0,156,157
 264 -311 264 -311 247 -306.5 c 128,-1,158
 230 -302 230 -302 216 -297 c 0,159,160
 199 -291 199 -291 184 -283 c 1,161,162
 192 -278 192 -278 199 -265 c 0,163,164
 205 -254 205 -254 210 -232.5 c 128,-1,165
 215 -211 215 -211 215 -176 c 0,166,167
 215 -165 215 -165 214 -156 c 128,-1,168
 213 -147 213 -147 212 -139 c 0,169,170
 210 -130 210 -130 209 -123 c 1,171,-1
 1014 -104 l 1,172,173
 1013 -118 1013 -118 1013 -131.5 c 128,-1,174
 1013 -145 1013 -145 1013 -158 c 0,175,176
 1013 -189 1013 -189 1017.5 -216.5 c 128,-1,177
 1022 -244 1022 -244 1038 -268 c 1,140,141
1143 809 m 0,178,179
 1143 843 1143 843 1137.5 863.5 c 128,-1,180
 1132 884 1132 884 1123 895 c 128,-1,181
 1114 906 1114 906 1101.5 909.5 c 128,-1,182
 1089 913 1089 913 1075 913 c 0,183,184
 1057 913 1057 913 1042 908 c 128,-1,185
 1027 903 1027 903 1016.5 886.5 c 128,-1,186
 1006 870 1006 870 1000.5 837.5 c 128,-1,187
 995 805 995 805 995 750 c 0,188,189
 995 714 995 714 996.5 686.5 c 128,-1,190
 998 659 998 659 1000.5 637.5 c 128,-1,191
 1003 616 1003 616 1006.5 599 c 128,-1,192
 1010 582 1010 582 1014 567 c 1,193,194
 1033 572 1033 572 1055.5 585 c 128,-1,195
 1078 598 1078 598 1097.5 625 c 128,-1,196
 1117 652 1117 652 1130 696.5 c 128,-1,197
 1143 741 1143 741 1143 809 c 0,178,179
471 793 m 0,198,199
 471 815 471 815 468.5 834.5 c 128,-1,200
 466 854 466 854 460.5 869 c 128,-1,201
 455 884 455 884 445.5 892.5 c 128,-1,202
 436 901 436 901 422 901 c 0,203,204
 385 901 385 901 363.5 859.5 c 128,-1,205
 342 818 342 818 342 731 c 0,206,207
 342 665 342 665 348 627 c 128,-1,208
 354 589 354 589 365 561 c 1,209,210
 383 569 383 569 401.5 585 c 128,-1,211
 420 601 420 601 435.5 628 c 128,-1,212
 451 655 451 655 461 695.5 c 128,-1,213
 471 736 471 736 471 793 c 0,198,199
EndSplineSet
EndChar

StartChar: uni1365
Encoding: 4965 4965 36
Width: 1253
Flags: W
LayerCount: 2
Fore
SplineSet
686 1075 m 0,0,1
 686 1063 686 1063 683 1046.5 c 128,-1,2
 680 1030 680 1030 677 1013.5 c 128,-1,3
 674 997 674 997 671 982 c 128,-1,4
 668 967 668 967 668 958 c 0,5,6
 668 930 668 930 673 913 c 0,7,8
 675 903 675 903 678 897 c 1,9,-1
 420 836 l 1,10,11
 416 843 416 843 413 852 c 0,12,13
 406 869 406 869 406 893 c 0,14,15
 406 905 406 905 408 917 c 128,-1,16
 410 929 410 929 413 942.5 c 128,-1,17
 416 956 416 956 418 972.5 c 128,-1,18
 420 989 420 989 420 1010 c 0,19,20
 420 1030 420 1030 413.5 1048.5 c 128,-1,21
 407 1067 407 1067 399 1081 c 0,22,23
 390 1097 390 1097 379 1110 c 1,24,-1
 649 1174 l 1,25,26
 659 1160 659 1160 667 1144 c 0,27,28
 674 1130 674 1130 680 1112.5 c 128,-1,29
 686 1095 686 1095 686 1075 c 0,0,1
203 580 m 1,30,-1
 203 649 l 1,31,-1
 911 815 l 1,32,-1
 911 745 l 1,33,-1
 203 580 l 1,30,-1
453 201 m 1,34,35
 440 224 440 224 429 250 c 0,36,37
 420 272 420 272 413 298.5 c 128,-1,38
 406 325 406 325 406 352 c 0,39,40
 406 383 406 383 410.5 409 c 128,-1,41
 415 435 415 435 420 455 c 0,42,43
 426 478 426 478 434 496 c 1,44,-1
 705 559 l 1,45,46
 698 543 698 543 693 522 c 0,47,48
 688 504 688 504 685 477.5 c 128,-1,49
 682 451 682 451 682 416 c 0,50,51
 682 387 682 387 687.5 361 c 128,-1,52
 693 335 693 335 700 315 c 0,53,54
 708 291 708 291 719 272 c 1,55,-1
 453 201 l 1,34,35
EndSplineSet
EndChar

StartChar: uni1362
Encoding: 4962 4962 37
Width: 1171
GlyphClass: 2
Flags: W
LayerCount: 2
Fore
SplineSet
952 967 m 0,0,1
 952 955 952 955 949 938.5 c 128,-1,2
 946 922 946 922 943 905.5 c 128,-1,3
 940 889 940 889 937 874 c 128,-1,4
 934 859 934 859 934 850 c 0,5,6
 934 822 934 822 939 804 c 0,7,8
 941 794 941 794 944 788 c 1,9,-1
 686 727 l 1,10,11
 682 734 682 734 679 743 c 0,12,13
 672 760 672 760 672 784 c 0,14,15
 672 796 672 796 674 808.5 c 128,-1,16
 676 821 676 821 679 834.5 c 128,-1,17
 682 848 682 848 684 864 c 128,-1,18
 686 880 686 880 686 901 c 0,19,20
 686 921 686 921 679.5 939.5 c 128,-1,21
 673 958 673 958 665 972 c 0,22,23
 656 988 656 988 645 1001 c 1,24,-1
 915 1065 l 1,25,26
 925 1052 925 1052 933 1036 c 0,27,28
 940 1022 940 1022 946 1004.5 c 128,-1,29
 952 987 952 987 952 967 c 0,0,1
676 301 m 1,30,31
 663 324 663 324 652 350 c 0,32,33
 643 372 643 372 636 399 c 128,-1,34
 629 426 629 426 629 453 c 0,35,36
 629 484 629 484 633.5 509.5 c 128,-1,37
 638 535 638 535 643 555 c 0,38,39
 649 577 649 577 657 596 c 1,40,-1
 928 659 l 1,41,42
 921 643 921 643 916 622 c 0,43,44
 911 604 911 604 908 577.5 c 128,-1,45
 905 551 905 551 905 516 c 0,46,47
 905 487 905 487 910.5 461.5 c 128,-1,48
 916 436 916 436 923 416 c 0,49,50
 931 393 931 393 942 373 c 1,51,-1
 676 301 l 1,30,31
528 872 m 0,52,53
 528 860 528 860 525 843.5 c 128,-1,54
 522 827 522 827 519 810.5 c 128,-1,55
 516 794 516 794 513 779.5 c 128,-1,56
 510 765 510 765 510 756 c 0,57,58
 510 728 510 728 515 710 c 0,59,60
 517 700 517 700 520 694 c 1,61,-1
 262 633 l 1,62,63
 258 640 258 640 255 649 c 0,64,65
 248 666 248 666 248 690 c 0,66,67
 248 702 248 702 250 714.5 c 128,-1,68
 252 727 252 727 255 740.5 c 128,-1,69
 258 754 258 754 260 770 c 128,-1,70
 262 786 262 786 262 807 c 0,71,72
 262 827 262 827 255.5 845.5 c 128,-1,73
 249 864 249 864 241 878 c 0,74,75
 232 894 232 894 221 907 c 1,76,-1
 492 971 l 1,77,78
 502 958 502 958 510 942 c 0,79,80
 517 928 517 928 522.5 910 c 128,-1,81
 528 892 528 892 528 872 c 0,52,53
252 199 m 1,82,83
 239 222 239 222 228 248 c 0,84,85
 219 270 219 270 212 296.5 c 128,-1,86
 205 323 205 323 205 350 c 0,87,88
 205 381 205 381 209.5 407 c 128,-1,89
 214 433 214 433 219 453 c 0,90,91
 225 476 225 476 233 494 c 1,92,-1
 504 557 l 1,93,94
 497 541 497 541 492 520 c 0,95,96
 487 502 487 502 484 475.5 c 128,-1,97
 481 449 481 449 481 414 c 0,98,99
 481 385 481 385 486.5 359 c 128,-1,100
 492 333 492 333 499 313 c 0,101,102
 507 289 507 289 518 270 c 1,103,-1
 252 199 l 1,82,83
EndSplineSet
EndChar

StartChar: uni1361
Encoding: 4961 4961 38
Width: 1188
Flags: W
LayerCount: 2
Fore
SplineSet
668 967 m 0,0,1
 668 955 668 955 665 938.5 c 128,-1,2
 662 922 662 922 658.5 905.5 c 128,-1,3
 655 889 655 889 652 874 c 128,-1,4
 649 859 649 859 649 850 c 0,5,6
 649 822 649 822 654 804 c 0,7,8
 656 794 656 794 659 788 c 1,9,-1
 401 727 l 1,10,11
 397 734 397 734 394 743 c 0,12,13
 387 760 387 760 387 784 c 0,14,15
 387 796 387 796 389 808.5 c 128,-1,16
 391 821 391 821 394 834.5 c 128,-1,17
 397 848 397 848 399 864 c 128,-1,18
 401 880 401 880 401 901 c 0,19,20
 401 921 401 921 394.5 939.5 c 128,-1,21
 388 958 388 958 380 972 c 0,22,23
 371 988 371 988 360 1001 c 1,24,-1
 631 1065 l 1,25,26
 641 1052 641 1052 649 1036 c 0,27,28
 656 1022 656 1022 662 1004.5 c 128,-1,29
 668 987 668 987 668 967 c 0,0,1
385 203 m 1,30,31
 372 226 372 226 361 252 c 0,32,33
 352 274 352 274 345 300.5 c 128,-1,34
 338 327 338 327 338 354 c 0,35,36
 338 385 338 385 342.5 411 c 128,-1,37
 347 437 347 437 352 457 c 0,38,39
 358 480 358 480 367 498 c 1,40,-1
 637 561 l 1,41,42
 630 545 630 545 625 524 c 0,43,44
 620 506 620 506 617 479.5 c 128,-1,45
 614 453 614 453 614 418 c 0,46,47
 614 389 614 389 619.5 363 c 128,-1,48
 625 337 625 337 632 317 c 0,49,50
 640 293 640 293 651 274 c 1,51,-1
 385 203 l 1,30,31
EndSplineSet
EndChar

StartChar: uni1364
Encoding: 4964 4964 39
Width: 1214
Flags: W
LayerCount: 2
Fore
SplineSet
274 1149 m 1,0,-1
 274 1219 l 1,1,-1
 721 1323 l 1,2,-1
 721 1253 l 1,3,-1
 274 1149 l 1,0,-1
645 999 m 0,4,5
 645 987 645 987 642 970.5 c 128,-1,6
 639 954 639 954 636 937.5 c 128,-1,7
 633 921 633 921 630 906.5 c 128,-1,8
 627 892 627 892 627 883 c 0,9,10
 627 855 627 855 632 837 c 0,11,12
 634 827 634 827 637 821 c 1,13,-1
 379 760 l 1,14,15
 375 767 375 767 372 776 c 0,16,17
 365 793 365 793 365 817 c 0,18,19
 365 829 365 829 367 841.5 c 128,-1,20
 369 854 369 854 372 867.5 c 128,-1,21
 375 881 375 881 377 897 c 128,-1,22
 379 913 379 913 379 934 c 0,23,24
 379 954 379 954 372.5 972.5 c 128,-1,25
 366 991 366 991 358 1005 c 0,26,27
 349 1021 349 1021 338 1034 c 1,28,-1
 608 1098 l 1,29,30
 618 1085 618 1085 626 1069 c 0,31,32
 633 1055 633 1055 639 1037 c 128,-1,33
 645 1019 645 1019 645 999 c 0,4,5
371 324 m 1,34,35
 358 346 358 346 347 372 c 0,36,37
 338 394 338 394 331 421 c 128,-1,38
 324 448 324 448 324 475 c 0,39,40
 324 506 324 506 328.5 531.5 c 128,-1,41
 333 557 333 557 338 577 c 0,42,43
 344 599 344 599 352 618 c 1,44,-1
 623 682 l 1,45,46
 616 666 616 666 611 645 c 0,47,48
 606 627 606 627 603 600.5 c 128,-1,49
 600 574 600 574 600 539 c 0,50,51
 600 510 600 510 605.5 484 c 128,-1,52
 611 458 611 458 618 438 c 0,53,54
 626 414 626 414 637 395 c 1,55,-1
 371 324 l 1,34,35
274 109 m 1,56,-1
 274 178 l 1,57,-1
 721 283 l 1,58,-1
 721 213 l 1,59,-1
 274 109 l 1,56,-1
EndSplineSet
EndChar

StartChar: uni1363
Encoding: 4963 4963 40
Width: 1214
Flags: W
LayerCount: 2
Fore
SplineSet
301 1098 m 1,0,-1
 301 1167 l 1,1,-1
 748 1272 l 1,2,-1
 748 1202 l 1,3,-1
 301 1098 l 1,0,-1
690 915 m 0,4,5
 690 903 690 903 687 886.5 c 128,-1,6
 684 870 684 870 681 853.5 c 128,-1,7
 678 837 678 837 675 822.5 c 128,-1,8
 672 808 672 808 672 799 c 0,9,10
 672 771 672 771 677 753 c 0,11,12
 679 743 679 743 682 737 c 1,13,-1
 424 676 l 1,14,15
 420 683 420 683 417 692 c 0,16,17
 410 709 410 709 410 733 c 0,18,19
 410 745 410 745 412 757.5 c 128,-1,20
 414 770 414 770 417 783.5 c 128,-1,21
 420 797 420 797 422 813 c 128,-1,22
 424 829 424 829 424 850 c 0,23,24
 424 870 424 870 417.5 888.5 c 128,-1,25
 411 907 411 907 403 921 c 0,26,27
 394 937 394 937 383 950 c 1,28,-1
 653 1014 l 1,29,30
 663 1001 663 1001 671 985 c 0,31,32
 678 971 678 971 684 953 c 128,-1,33
 690 935 690 935 690 915 c 0,4,5
414 203 m 1,34,35
 401 226 401 226 390 252 c 0,36,37
 381 274 381 274 374 300.5 c 128,-1,38
 367 327 367 327 367 354 c 0,39,40
 367 385 367 385 371.5 411 c 128,-1,41
 376 437 376 437 381 457 c 0,42,43
 387 480 387 480 395 498 c 1,44,-1
 666 561 l 1,45,46
 659 545 659 545 654 524 c 0,47,48
 649 506 649 506 646 479.5 c 128,-1,49
 643 453 643 453 643 418 c 0,50,51
 643 389 643 389 648.5 363 c 128,-1,52
 654 337 654 337 661 317 c 0,53,54
 669 293 669 293 680 274 c 1,55,-1
 414 203 l 1,34,35
EndSplineSet
EndChar

StartChar: uni1366
Encoding: 4966 4966 41
Width: 1679
Flags: W
LayerCount: 2
Fore
SplineSet
750 588 m 1,0,-1
 750 764 l 1,1,-1
 1434 764 l 1,2,-1
 1434 588 l 1,3,-1
 750 588 l 1,0,-1
530 967 m 0,4,5
 530 955 530 955 527 938.5 c 128,-1,6
 524 922 524 922 521 905.5 c 128,-1,7
 518 889 518 889 515 874 c 128,-1,8
 512 859 512 859 512 850 c 0,9,10
 512 822 512 822 517 804 c 0,11,12
 519 794 519 794 522 788 c 1,13,-1
 264 727 l 1,14,15
 260 734 260 734 257 743 c 0,16,17
 250 760 250 760 250 784 c 0,18,19
 250 796 250 796 252 808.5 c 128,-1,20
 254 821 254 821 257 834.5 c 128,-1,21
 260 848 260 848 262 864 c 128,-1,22
 264 880 264 880 264 901 c 0,23,24
 264 921 264 921 257.5 939.5 c 128,-1,25
 251 958 251 958 243 972 c 0,26,27
 234 988 234 988 223 1001 c 1,28,-1
 494 1065 l 1,29,30
 504 1052 504 1052 512 1036 c 0,31,32
 519 1022 519 1022 524.5 1004.5 c 128,-1,33
 530 987 530 987 530 967 c 0,4,5
248 203 m 1,34,35
 235 226 235 226 224 252 c 0,36,37
 215 274 215 274 208 300.5 c 128,-1,38
 201 327 201 327 201 354 c 0,39,40
 201 385 201 385 205.5 411 c 128,-1,41
 210 437 210 437 215 457 c 0,42,43
 221 480 221 480 229 498 c 1,44,-1
 500 561 l 1,45,46
 493 545 493 545 488 524 c 0,47,48
 483 506 483 506 480 479.5 c 128,-1,49
 477 453 477 453 477 418 c 0,50,51
 477 389 477 389 482.5 363 c 128,-1,52
 488 337 488 337 495 317 c 0,53,54
 503 293 503 293 514 274 c 1,55,-1
 248 203 l 1,34,35
EndSplineSet
EndChar

StartChar: uni1367
Encoding: 4967 4967 42
Width: 1147
Flags: W
LayerCount: 2
Fore
SplineSet
655 1196 m 0,0,1
 655 1184 655 1184 652 1167.5 c 128,-1,2
 649 1151 649 1151 646 1134.5 c 128,-1,3
 643 1118 643 1118 640 1103 c 128,-1,4
 637 1088 637 1088 637 1079 c 0,5,6
 637 1051 637 1051 642 1034 c 0,7,8
 644 1025 644 1025 647 1018 c 1,9,-1
 389 956 l 1,10,11
 385 964 385 964 382 973 c 0,12,13
 375 990 375 990 375 1014 c 0,14,15
 375 1026 375 1026 377 1038 c 128,-1,16
 379 1050 379 1050 382 1063.5 c 128,-1,17
 385 1077 385 1077 387 1093 c 128,-1,18
 389 1109 389 1109 389 1130 c 256,19,20
 389 1151 389 1151 382.5 1169 c 128,-1,21
 376 1187 376 1187 368 1201 c 0,22,23
 359 1217 359 1217 348 1231 c 1,24,-1
 618 1294 l 1,25,26
 628 1281 628 1281 636 1265 c 0,27,28
 643 1251 643 1251 649 1233.5 c 128,-1,29
 655 1216 655 1216 655 1196 c 0,0,1
387 469 m 1,30,31
 374 492 374 492 363 518 c 0,32,33
 354 540 354 540 347 567 c 128,-1,34
 340 594 340 594 340 621 c 0,35,36
 340 651 340 651 344.5 677 c 128,-1,37
 349 703 349 703 354 723 c 0,38,39
 360 746 360 746 369 764 c 1,40,-1
 639 827 l 1,41,42
 632 811 632 811 627 790 c 0,43,44
 622 772 622 772 619 745.5 c 128,-1,45
 616 719 616 719 616 684 c 0,46,47
 616 655 616 655 621.5 629.5 c 128,-1,48
 627 604 627 604 634 584 c 0,49,50
 642 561 642 561 653 541 c 1,51,-1
 387 469 l 1,30,31
655 244 m 0,52,53
 655 232 655 232 652 215.5 c 128,-1,54
 649 199 649 199 646 182.5 c 128,-1,55
 643 166 643 166 640 151 c 128,-1,56
 637 136 637 136 637 127 c 0,57,58
 637 99 637 99 642 82 c 0,59,60
 644 73 644 73 647 66 c 1,61,-1
 389 4 l 1,62,63
 385 11 385 11 382 20 c 0,64,65
 375 37 375 37 375 61 c 0,66,67
 375 73 375 73 377 85.5 c 128,-1,68
 379 98 379 98 382 111.5 c 128,-1,69
 385 125 385 125 387 141 c 128,-1,70
 389 157 389 157 389 178 c 0,71,72
 389 198 389 198 382.5 216.5 c 128,-1,73
 376 235 376 235 368 249 c 0,74,75
 359 265 359 265 348 279 c 1,76,-1
 618 342 l 1,77,78
 628 329 628 329 636 313 c 0,79,80
 643 299 643 299 649 281.5 c 128,-1,81
 655 264 655 264 655 244 c 0,52,53
EndSplineSet
EndChar

StartChar: uni1368
Encoding: 4968 4968 43
Width: 1171
Flags: W
LayerCount: 2
Fore
SplineSet
1012 811 m 0,0,1
 1012 788 1012 788 1003 767 c 128,-1,2
 994 746 994 746 978.5 730.5 c 128,-1,3
 963 715 963 715 942 705.5 c 128,-1,4
 921 696 921 696 897 696 c 256,5,6
 873 696 873 696 852.5 705 c 128,-1,7
 832 714 832 714 816 730 c 128,-1,8
 800 746 800 746 791 766.5 c 128,-1,9
 782 787 782 787 782 811 c 0,10,11
 782 834 782 834 791 855 c 128,-1,12
 800 876 800 876 816 891.5 c 128,-1,13
 832 907 832 907 852.5 916.5 c 128,-1,14
 873 926 873 926 897 926 c 0,15,16
 920 926 920 926 941 917 c 128,-1,17
 962 908 962 908 977.5 892 c 128,-1,18
 993 876 993 876 1002.5 855.5 c 128,-1,19
 1012 835 1012 835 1012 811 c 0,0,1
692 995 m 256,20,21
 692 971 692 971 683 950.5 c 128,-1,22
 674 930 674 930 658.5 914.5 c 128,-1,23
 643 899 643 899 622.5 890 c 128,-1,24
 602 881 602 881 578 881 c 256,25,26
 554 881 554 881 533 890 c 128,-1,27
 512 899 512 899 496.5 914.5 c 128,-1,28
 481 930 481 930 472 950.5 c 128,-1,29
 463 971 463 971 463 995 c 256,30,31
 463 1019 463 1019 472 1040 c 128,-1,32
 481 1061 481 1061 496.5 1076.5 c 128,-1,33
 512 1092 512 1092 533 1101 c 128,-1,34
 554 1110 554 1110 578 1110 c 256,35,36
 602 1110 602 1110 622.5 1101 c 128,-1,37
 643 1092 643 1092 658.5 1076.5 c 128,-1,38
 674 1061 674 1061 683 1040 c 128,-1,39
 692 1019 692 1019 692 995 c 256,20,21
1012 442 m 0,40,41
 1012 418 1012 418 1002.5 397.5 c 128,-1,42
 993 377 993 377 977.5 361.5 c 128,-1,43
 962 346 962 346 941 337 c 128,-1,44
 920 328 920 328 897 328 c 0,45,46
 873 328 873 328 852.5 337 c 128,-1,47
 832 346 832 346 816 362 c 128,-1,48
 800 378 800 378 791 398.5 c 128,-1,49
 782 419 782 419 782 442 c 0,50,51
 782 466 782 466 791.5 487 c 128,-1,52
 801 508 801 508 816.5 523.5 c 128,-1,53
 832 539 832 539 853 548 c 128,-1,54
 874 557 874 557 897 557 c 256,55,56
 920 557 920 557 941 547.5 c 128,-1,57
 962 538 962 538 977.5 522.5 c 128,-1,58
 993 507 993 507 1002.5 486 c 128,-1,59
 1012 465 1012 465 1012 442 c 0,40,41
692 627 m 256,60,61
 692 603 692 603 683 582 c 128,-1,62
 674 561 674 561 658.5 545.5 c 128,-1,63
 643 530 643 530 622.5 521 c 128,-1,64
 602 512 602 512 578 512 c 256,65,66
 554 512 554 512 533 521 c 128,-1,67
 512 530 512 530 496.5 545.5 c 128,-1,68
 481 561 481 561 472 582 c 128,-1,69
 463 603 463 603 463 627 c 256,70,71
 463 651 463 651 472 671.5 c 128,-1,72
 481 692 481 692 496.5 707.5 c 128,-1,73
 512 723 512 723 533 732 c 128,-1,74
 554 741 554 741 578 741 c 256,75,76
 602 741 602 741 622.5 732 c 128,-1,77
 643 723 643 723 658.5 707.5 c 128,-1,78
 674 692 674 692 683 671.5 c 128,-1,79
 692 651 692 651 692 627 c 256,60,61
373 811 m 0,80,81
 373 787 373 787 363.5 766.5 c 128,-1,82
 354 746 354 746 338.5 730 c 128,-1,83
 323 714 323 714 302 705 c 128,-1,84
 281 696 281 696 258 696 c 256,85,86
 235 696 235 696 214 705.5 c 128,-1,87
 193 715 193 715 177.5 730.5 c 128,-1,88
 162 746 162 746 152.5 767 c 128,-1,89
 143 788 143 788 143 811 c 0,90,91
 143 835 143 835 152.5 855.5 c 128,-1,92
 162 876 162 876 177.5 892 c 128,-1,93
 193 908 193 908 214 917 c 128,-1,94
 235 926 235 926 258 926 c 0,95,96
 282 926 282 926 303 916.5 c 128,-1,97
 324 907 324 907 339.5 891.5 c 128,-1,98
 355 876 355 876 364 855 c 128,-1,99
 373 834 373 834 373 811 c 0,80,81
692 258 m 256,100,101
 692 234 692 234 683 213.5 c 128,-1,102
 674 193 674 193 658.5 177 c 128,-1,103
 643 161 643 161 622.5 152 c 128,-1,104
 602 143 602 143 578 143 c 256,105,106
 554 143 554 143 533 152 c 128,-1,107
 512 161 512 161 496.5 177 c 128,-1,108
 481 193 481 193 472 213.5 c 128,-1,109
 463 234 463 234 463 258 c 256,110,111
 463 282 463 282 472 303 c 128,-1,112
 481 324 481 324 496.5 339.5 c 128,-1,113
 512 355 512 355 533 364 c 128,-1,114
 554 373 554 373 578 373 c 256,115,116
 602 373 602 373 622.5 364 c 128,-1,117
 643 355 643 355 658.5 339.5 c 128,-1,118
 674 324 674 324 683 303 c 128,-1,119
 692 282 692 282 692 258 c 256,100,101
373 442 m 0,120,121
 373 419 373 419 364 398.5 c 128,-1,122
 355 378 355 378 339.5 362 c 128,-1,123
 324 346 324 346 303 337 c 128,-1,124
 282 328 282 328 258 328 c 0,125,126
 235 328 235 328 214 337 c 128,-1,127
 193 346 193 346 177.5 361.5 c 128,-1,128
 162 377 162 377 152.5 397.5 c 128,-1,129
 143 418 143 418 143 442 c 0,130,131
 143 465 143 465 152 486 c 128,-1,132
 161 507 161 507 177 522.5 c 128,-1,133
 193 538 193 538 213.5 547.5 c 128,-1,134
 234 557 234 557 258 557 c 256,135,136
 282 557 282 557 303 548 c 128,-1,137
 324 539 324 539 339.5 523.5 c 128,-1,138
 355 508 355 508 364 487 c 128,-1,139
 373 466 373 466 373 442 c 0,120,121
EndSplineSet
EndChar

StartChar: uni2713
Encoding: 10003 10003 44
Width: 1931
Flags: W
LayerCount: 2
Fore
SplineSet
610 0 m 1,0,-1
 86 524 l 1,1,-1
 287 725 l 1,2,-1
 610 403 l 1,3,-1
 1634 1423 l 1,4,-1
 1835 1225 l 1,5,-1
 610 0 l 1,0,-1
EndSplineSet
EndChar

StartChar: dagger
Encoding: 8224 8224 49
Width: 1065
Flags: W
LayerCount: 2
Fore
SplineSet
944 897 m 0,0,1
 923 888 923 888 891.5 897 c 128,-1,2
 860 906 860 906 820.5 920.5 c 128,-1,3
 781 935 781 935 734.5 950.5 c 128,-1,4
 688 966 688 966 637 971 c 0,5,6
 571 977 571 977 578 907 c 0,7,8
 582 857 582 857 595.5 811.5 c 128,-1,9
 609 766 609 766 622 729 c 128,-1,10
 635 692 635 692 644 665.5 c 128,-1,11
 653 639 653 639 649 627 c 0,12,13
 637 563 637 563 627 488.5 c 128,-1,14
 617 414 617 414 608.5 337 c 128,-1,15
 600 260 600 260 593.5 184 c 128,-1,16
 587 108 587 108 582 41.5 c 128,-1,17
 577 -25 577 -25 573.5 -78.5 c 128,-1,18
 570 -132 570 -132 569 -164 c 0,19,20
 568 -179 568 -179 566.5 -187.5 c 128,-1,21
 565 -196 565 -196 561 -200 c 128,-1,22
 557 -204 557 -204 550 -204.5 c 128,-1,23
 543 -205 543 -205 532 -205 c 256,24,25
 521 -205 521 -205 514.5 -204.5 c 128,-1,26
 508 -204 508 -204 504 -200 c 128,-1,27
 500 -196 500 -196 498.5 -187.5 c 128,-1,28
 497 -179 497 -179 496 -164 c 0,29,30
 494 -132 494 -132 491 -78.5 c 128,-1,31
 488 -25 488 -25 483 41.5 c 128,-1,32
 478 108 478 108 471.5 184 c 128,-1,33
 465 260 465 260 457 337 c 128,-1,34
 449 414 449 414 438.5 488.5 c 128,-1,35
 428 563 428 563 416 627 c 0,36,37
 412 639 412 639 420.5 665.5 c 128,-1,38
 429 692 429 692 441.5 729 c 128,-1,39
 454 766 454 766 467.5 811.5 c 128,-1,40
 481 857 481 857 487 907 c 0,41,42
 497 977 497 977 428 971 c 0,43,44
 377 966 377 966 330.5 950 c 128,-1,45
 284 934 284 934 245 918.5 c 128,-1,46
 206 903 206 903 175.5 894.5 c 128,-1,47
 145 886 145 886 125 897 c 0,48,49
 89 916 89 916 71.5 949 c 128,-1,50
 54 982 54 982 54 1017 c 0,51,52
 54 1053 54 1053 72 1084.5 c 128,-1,53
 90 1116 90 1116 125 1133 c 0,54,55
 143 1138 143 1138 173 1129 c 128,-1,56
 203 1120 203 1120 242.5 1106 c 128,-1,57
 282 1092 282 1092 329.5 1077.5 c 128,-1,58
 377 1063 377 1063 428 1059 c 0,59,60
 495 1053 495 1053 487 1118 c 0,61,62
 482 1169 482 1169 467 1215 c 128,-1,63
 452 1261 452 1261 437 1300 c 128,-1,64
 422 1339 422 1339 413.5 1370.5 c 128,-1,65
 405 1402 405 1402 414 1423 c 0,66,67
 430 1460 430 1460 462.5 1479 c 128,-1,68
 495 1498 495 1498 531 1498 c 0,69,70
 566 1498 566 1498 597.5 1480 c 128,-1,71
 629 1462 629 1462 649 1425 c 0,72,73
 656 1408 656 1408 647.5 1377 c 128,-1,74
 639 1346 639 1346 625 1305.5 c 128,-1,75
 611 1265 611 1265 596.5 1217 c 128,-1,76
 582 1169 582 1169 578 1118 c 0,77,78
 570 1053 570 1053 637 1059 c 0,79,80
 688 1063 688 1063 736 1078 c 128,-1,81
 784 1093 784 1093 824.5 1108 c 128,-1,82
 865 1123 865 1123 895.5 1131.5 c 128,-1,83
 926 1140 926 1140 942 1133 c 0,84,85
 977 1116 977 1116 995.5 1084.5 c 128,-1,86
 1014 1053 1014 1053 1014 1018 c 0,87,88
 1014 984 1014 984 996.5 951.5 c 128,-1,89
 979 919 979 919 944 897 c 0,0,1
EndSplineSet
EndChar

StartChar: daggerdbl
Encoding: 8225 8225 50
Width: 1065
Flags: W
LayerCount: 2
Fore
SplineSet
944 365 m 1,0,1
 979 342 979 342 996.5 309.5 c 128,-1,2
 1014 277 1014 277 1014 243 c 0,3,4
 1014 208 1014 208 995.5 177 c 128,-1,5
 977 146 977 146 942 129 c 0,6,7
 926 121 926 121 895.5 130 c 128,-1,8
 865 139 865 139 824.5 153.5 c 128,-1,9
 784 168 784 168 736 183 c 128,-1,10
 688 198 688 198 637 203 c 0,11,12
 570 209 570 209 578 143 c 0,13,14
 582 92 582 92 596.5 43.5 c 128,-1,15
 611 -5 611 -5 625 -45.5 c 128,-1,16
 639 -86 639 -86 647.5 -116.5 c 128,-1,17
 656 -147 656 -147 649 -164 c 0,18,19
 629 -201 629 -201 597.5 -218.5 c 128,-1,20
 566 -236 566 -236 531 -236 c 0,21,22
 495 -236 495 -236 462.5 -217 c 128,-1,23
 430 -198 430 -198 414 -162 c 0,24,25
 405 -140 405 -140 413.5 -109 c 128,-1,26
 422 -78 422 -78 437 -39 c 128,-1,27
 452 0 452 0 467 46 c 128,-1,28
 482 92 482 92 487 143 c 0,29,30
 495 209 495 209 428 203 c 0,31,32
 377 198 377 198 329.5 184 c 128,-1,33
 282 170 282 170 242.5 156 c 128,-1,34
 203 142 203 142 173 133 c 128,-1,35
 143 124 143 124 125 129 c 0,36,37
 90 146 90 146 72 177.5 c 128,-1,38
 54 209 54 209 54 244 c 256,39,40
 54 279 54 279 71.5 312 c 128,-1,41
 89 345 89 345 125 365 c 0,42,43
 145 375 145 375 175.5 366.5 c 128,-1,44
 206 358 206 358 245 343 c 128,-1,45
 284 328 284 328 330.5 311.5 c 128,-1,46
 377 295 377 295 428 291 c 0,47,48
 497 285 497 285 487 354 c 0,49,50
 481 404 481 404 469 444.5 c 128,-1,51
 457 485 457 485 445.5 519 c 128,-1,52
 434 553 434 553 425 581 c 128,-1,53
 416 609 416 609 416 635 c 0,54,55
 416 657 416 657 425 683.5 c 128,-1,56
 434 710 434 710 445.5 743 c 128,-1,57
 457 776 457 776 469 816.5 c 128,-1,58
 481 857 481 857 487 907 c 0,59,60
 497 977 497 977 428 971 c 0,61,62
 377 966 377 966 330.5 950 c 128,-1,63
 284 934 284 934 245 918.5 c 128,-1,64
 206 903 206 903 175.5 894.5 c 128,-1,65
 145 886 145 886 125 897 c 0,66,67
 89 916 89 916 71.5 949 c 128,-1,68
 54 982 54 982 54 1017 c 0,69,70
 54 1053 54 1053 72 1084.5 c 128,-1,71
 90 1116 90 1116 125 1133 c 0,72,73
 143 1138 143 1138 173 1129 c 128,-1,74
 203 1120 203 1120 242.5 1106 c 128,-1,75
 282 1092 282 1092 329.5 1077.5 c 128,-1,76
 377 1063 377 1063 428 1059 c 0,77,78
 495 1053 495 1053 487 1118 c 0,79,80
 482 1169 482 1169 467 1215 c 128,-1,81
 452 1261 452 1261 437 1300 c 128,-1,82
 422 1339 422 1339 413.5 1370.5 c 128,-1,83
 405 1402 405 1402 414 1423 c 0,84,85
 430 1460 430 1460 462.5 1479 c 128,-1,86
 495 1498 495 1498 531 1498 c 0,87,88
 566 1498 566 1498 597.5 1480 c 128,-1,89
 629 1462 629 1462 649 1425 c 0,90,91
 656 1408 656 1408 647.5 1377 c 128,-1,92
 639 1346 639 1346 625 1305.5 c 128,-1,93
 611 1265 611 1265 596.5 1217 c 128,-1,94
 582 1169 582 1169 578 1118 c 0,95,96
 570 1053 570 1053 637 1059 c 0,97,98
 688 1063 688 1063 736 1078 c 128,-1,99
 784 1093 784 1093 824.5 1108 c 128,-1,100
 865 1123 865 1123 895.5 1131.5 c 128,-1,101
 926 1140 926 1140 942 1133 c 0,102,103
 977 1116 977 1116 995.5 1084.5 c 128,-1,104
 1014 1053 1014 1053 1014 1018 c 0,105,106
 1014 984 1014 984 996.5 951.5 c 128,-1,107
 979 919 979 919 944 897 c 0,108,109
 923 888 923 888 891.5 897 c 128,-1,110
 860 906 860 906 820.5 920.5 c 128,-1,111
 781 935 781 935 734.5 950.5 c 128,-1,112
 688 966 688 966 637 971 c 0,113,114
 571 977 571 977 578 907 c 0,115,116
 582 857 582 857 594 816.5 c 128,-1,117
 606 776 606 776 618 742.5 c 128,-1,118
 630 709 630 709 639.5 682 c 128,-1,119
 649 655 649 655 649 631 c 256,120,121
 649 607 649 607 639.5 579.5 c 128,-1,122
 630 552 630 552 618 518.5 c 128,-1,123
 606 485 606 485 594 444.5 c 128,-1,124
 582 404 582 404 578 354 c 0,125,126
 571 285 571 285 637 291 c 0,127,128
 688 295 688 295 734.5 310.5 c 128,-1,129
 781 326 781 326 820.5 341 c 128,-1,130
 860 356 860 356 891.5 364.5 c 128,-1,131
 923 373 923 373 944 365 c 1,0,1
EndSplineSet
EndChar

StartChar: paragraph
Encoding: 182 182 51
Width: 1147
Flags: W
LayerCount: 2
Fore
SplineSet
901 1399 m 1,0,-1
 901 0 l 1,1,-1
 799 0 l 1,2,-1
 799 1399 l 1,3,-1
 614 1399 l 1,4,-1
 614 0 l 1,5,-1
 512 0 l 1,6,-1
 512 782 l 1,7,8
 473 782 473 782 428.5 789.5 c 128,-1,9
 384 797 384 797 341 813.5 c 128,-1,10
 298 830 298 830 258.5 856.5 c 128,-1,11
 219 883 219 883 189 922 c 128,-1,12
 159 961 159 961 141 1013.5 c 128,-1,13
 123 1066 123 1066 123 1133 c 256,14,15
 123 1200 123 1200 141 1251.5 c 128,-1,16
 159 1303 159 1303 189 1341.5 c 128,-1,17
 219 1380 219 1380 258.5 1406.5 c 128,-1,18
 298 1433 298 1433 341 1449 c 128,-1,19
 384 1465 384 1465 428 1472 c 128,-1,20
 472 1479 472 1479 512 1479 c 2,21,-1
 1024 1479 l 1,22,-1
 1024 1399 l 1,23,-1
 901 1399 l 1,0,-1
EndSplineSet
EndChar

StartChar: degree
Encoding: 176 176 52
Width: 655
Flags: W
LayerCount: 2
Fore
SplineSet
575 1249 m 256,0,1
 575 1198 575 1198 555.5 1152.5 c 128,-1,2
 536 1107 536 1107 502.5 1073.5 c 128,-1,3
 469 1040 469 1040 424 1020.5 c 128,-1,4
 379 1001 379 1001 328 1001 c 0,5,6
 276 1001 276 1001 231 1020.5 c 128,-1,7
 186 1040 186 1040 152.5 1073.5 c 128,-1,8
 119 1107 119 1107 99.5 1152.5 c 128,-1,9
 80 1198 80 1198 80 1249 c 256,10,11
 80 1300 80 1300 99.5 1345.5 c 128,-1,12
 119 1391 119 1391 152.5 1424.5 c 128,-1,13
 186 1458 186 1458 231 1477.5 c 128,-1,14
 276 1497 276 1497 328 1497 c 0,15,16
 379 1497 379 1497 424 1477.5 c 128,-1,17
 469 1458 469 1458 502.5 1424.5 c 128,-1,18
 536 1391 536 1391 555.5 1345.5 c 128,-1,19
 575 1300 575 1300 575 1249 c 256,0,1
455 1249 m 256,20,21
 455 1275 455 1275 445 1298 c 128,-1,22
 435 1321 435 1321 417.5 1338.5 c 128,-1,23
 400 1356 400 1356 377 1366 c 128,-1,24
 354 1376 354 1376 328 1376 c 256,25,26
 302 1376 302 1376 278.5 1366 c 128,-1,27
 255 1356 255 1356 238 1338.5 c 128,-1,28
 221 1321 221 1321 211 1298 c 128,-1,29
 201 1275 201 1275 201 1249 c 256,30,31
 201 1223 201 1223 211 1200 c 128,-1,32
 221 1177 221 1177 238 1159.5 c 128,-1,33
 255 1142 255 1142 278.5 1132 c 128,-1,34
 302 1122 302 1122 328 1122 c 256,35,36
 354 1122 354 1122 377 1132 c 128,-1,37
 400 1142 400 1142 417.5 1159.5 c 128,-1,38
 435 1177 435 1177 445 1200 c 128,-1,39
 455 1223 455 1223 455 1249 c 256,20,21
EndSplineSet
EndChar

StartChar: uni1260
Encoding: 4704 4704 53
Width: 1092
GlyphClass: 2
Flags: W
AnchorPoint: "Anchor-0" 554 1334 basechar 0
LayerCount: 2
Fore
SplineSet
795 4 m 2,0,1
 774 1 774 1 757 1 c 0,2,3
 711 1 711 1 692.5 26 c 128,-1,4
 674 51 674 51 674 111 c 0,5,6
 674 158 674 158 676.5 227 c 128,-1,7
 679 296 679 296 683 376 c 128,-1,8
 687 456 687 456 691.5 541 c 128,-1,9
 696 626 696 626 700 704 c 128,-1,10
 704 782 704 782 706.5 848 c 128,-1,11
 709 914 709 914 709 956 c 0,12,13
 709 1084 709 1084 670 1150.5 c 128,-1,14
 631 1217 631 1217 557 1217 c 0,15,16
 529 1217 529 1217 504 1208 c 128,-1,17
 479 1199 479 1199 457.5 1170.5 c 128,-1,18
 436 1142 436 1142 419.5 1087.5 c 128,-1,19
 403 1033 403 1033 391 941.5 c 128,-1,20
 379 850 379 850 373 716 c 128,-1,21
 367 582 367 582 367 395 c 2,22,-1
 367 294 l 2,23,24
 367 224 367 224 369 182 c 128,-1,25
 371 140 371 140 379 116 c 128,-1,26
 387 92 387 92 403.5 81 c 128,-1,27
 420 70 420 70 449 61 c 1,28,-1
 449 35 l 1,29,-1
 242 4 l 2,30,31
 222 1 222 1 206 1 c 0,32,33
 180 1 180 1 159.5 15 c 128,-1,34
 139 29 139 29 125 70 c 128,-1,35
 111 111 111 111 103.5 187 c 128,-1,36
 96 263 96 263 96 387 c 0,37,38
 96 502 96 502 97.5 586 c 128,-1,39
 99 670 99 670 102 732 c 128,-1,40
 105 794 105 794 111.5 838.5 c 128,-1,41
 118 883 118 883 127 919.5 c 128,-1,42
 136 956 136 956 149.5 988 c 128,-1,43
 163 1020 163 1020 181 1057 c 0,44,45
 236 1171 236 1171 359 1233.5 c 128,-1,46
 482 1296 482 1296 653 1296 c 0,47,48
 754 1296 754 1296 815.5 1263.5 c 128,-1,49
 877 1231 877 1231 911 1177.5 c 128,-1,50
 945 1124 945 1124 956 1055 c 128,-1,51
 967 986 967 986 967 913 c 0,52,53
 967 871 967 871 965 813.5 c 128,-1,54
 963 756 963 756 960 690 c 128,-1,55
 957 624 957 624 953.5 553.5 c 128,-1,56
 950 483 950 483 947 415 c 128,-1,57
 944 347 944 347 942 285 c 128,-1,58
 940 223 940 223 940 174 c 2,59,-1
 940 163 l 2,60,61
 940 139 940 139 941 123.5 c 128,-1,62
 942 108 942 108 948.5 97.5 c 128,-1,63
 955 87 955 87 968.5 80.5 c 128,-1,64
 982 74 982 74 1008 68 c 1,65,-1
 1008 35 l 1,66,-1
 795 4 l 2,0,1
EndSplineSet
EndChar

StartChar: uni1261
Encoding: 4705 4705 54
Width: 1556
GlyphClass: 2
Flags: W
AnchorPoint: "Anchor-0" 564 1331 basechar 0
LayerCount: 2
Fore
SplineSet
1497 643 m 1,0,1
 1474 627 1474 627 1454.5 617.5 c 128,-1,2
 1435 608 1435 608 1416.5 603.5 c 128,-1,3
 1398 599 1398 599 1378.5 597.5 c 128,-1,4
 1359 596 1359 596 1337 596 c 0,5,6
 1310 596 1310 596 1282 600 c 128,-1,7
 1254 604 1254 604 1228 619 c 128,-1,8
 1202 634 1202 634 1179.5 663 c 128,-1,9
 1157 692 1157 692 1139 741 c 1,10,-1
 963 741 l 1,11,12
 960 672 960 672 956 594.5 c 128,-1,13
 952 517 952 517 948.5 441.5 c 128,-1,14
 945 366 945 366 942.5 296.5 c 128,-1,15
 940 227 940 227 940 174 c 2,16,-1
 940 163 l 2,17,18
 940 139 940 139 941 123.5 c 128,-1,19
 942 108 942 108 948.5 97.5 c 128,-1,20
 955 87 955 87 968.5 80.5 c 128,-1,21
 982 74 982 74 1008 68 c 1,22,-1
 1008 35 l 1,23,-1
 795 4 l 2,24,25
 774 1 774 1 757 1 c 0,26,27
 711 1 711 1 692.5 26 c 128,-1,28
 674 51 674 51 674 111 c 0,29,30
 674 158 674 158 676.5 227 c 128,-1,31
 679 296 679 296 683 376 c 128,-1,32
 687 456 687 456 691.5 541 c 128,-1,33
 696 626 696 626 700 704 c 128,-1,34
 704 782 704 782 706.5 848 c 128,-1,35
 709 914 709 914 709 956 c 0,36,37
 709 1084 709 1084 670 1150.5 c 128,-1,38
 631 1217 631 1217 557 1217 c 0,39,40
 529 1217 529 1217 504 1208 c 128,-1,41
 479 1199 479 1199 457.5 1170.5 c 128,-1,42
 436 1142 436 1142 419.5 1087.5 c 128,-1,43
 403 1033 403 1033 391 941.5 c 128,-1,44
 379 850 379 850 373 716 c 128,-1,45
 367 582 367 582 367 395 c 2,46,-1
 367 294 l 2,47,48
 367 224 367 224 369 182 c 128,-1,49
 371 140 371 140 379 116 c 128,-1,50
 387 92 387 92 403.5 81 c 128,-1,51
 420 70 420 70 449 61 c 1,52,-1
 449 35 l 1,53,-1
 242 4 l 2,54,55
 222 1 222 1 206 1 c 0,56,57
 180 1 180 1 159.5 15 c 128,-1,58
 139 29 139 29 125 70 c 128,-1,59
 111 111 111 111 103.5 187 c 128,-1,60
 96 263 96 263 96 387 c 0,61,62
 96 502 96 502 97.5 586 c 128,-1,63
 99 670 99 670 102 732 c 128,-1,64
 105 794 105 794 111.5 838.5 c 128,-1,65
 118 883 118 883 127 919.5 c 128,-1,66
 136 956 136 956 149.5 988 c 128,-1,67
 163 1020 163 1020 181 1057 c 0,68,69
 236 1171 236 1171 359 1233.5 c 128,-1,70
 482 1296 482 1296 653 1296 c 0,71,72
 754 1296 754 1296 815.5 1263.5 c 128,-1,73
 877 1231 877 1231 911 1177.5 c 128,-1,74
 945 1124 945 1124 956 1055 c 128,-1,75
 967 986 967 986 967 913 c 0,76,77
 967 893 967 893 967 867 c 128,-1,78
 967 841 967 841 965 815 c 1,79,-1
 1153 815 l 1,80,81
 1178 844 1178 844 1200.5 864 c 128,-1,82
 1223 884 1223 884 1247 896 c 128,-1,83
 1271 908 1271 908 1298 913 c 128,-1,84
 1325 918 1325 918 1358 918 c 0,85,86
 1375 918 1375 918 1388.5 916.5 c 128,-1,87
 1402 915 1402 915 1415.5 912 c 128,-1,88
 1429 909 1429 909 1443.5 904.5 c 128,-1,89
 1458 900 1458 900 1477 893 c 1,90,91
 1466 872 1466 872 1459.5 857.5 c 128,-1,92
 1453 843 1453 843 1449 829.5 c 128,-1,93
 1445 816 1445 816 1443.5 801.5 c 128,-1,94
 1442 787 1442 787 1442 768 c 0,95,96
 1442 730 1442 730 1455 697.5 c 128,-1,97
 1468 665 1468 665 1497 643 c 1,0,1
EndSplineSet
EndChar

StartChar: uni1262
Encoding: 4706 4706 55
Width: 1556
GlyphClass: 2
Flags: W
AnchorPoint: "Anchor-0" 568 1327 basechar 0
LayerCount: 2
Fore
SplineSet
1470 -57 m 1,0,1
 1437 -71 1437 -71 1411 -81 c 128,-1,2
 1385 -91 1385 -91 1362.5 -97 c 128,-1,3
 1340 -103 1340 -103 1319 -106 c 128,-1,4
 1298 -109 1298 -109 1276 -109 c 0,5,6
 1248 -109 1248 -109 1220 -98.5 c 128,-1,7
 1192 -88 1192 -88 1168.5 -68.5 c 128,-1,8
 1145 -49 1145 -49 1129 -20.5 c 128,-1,9
 1113 8 1113 8 1110 45 c 1,10,-1
 795 16 l 1,11,-1
 785 16 l 2,12,13
 775 15 775 15 767 14.5 c 128,-1,14
 759 14 759 14 752 14 c 0,15,16
 731 14 731 14 716 18 c 128,-1,17
 701 22 701 22 691.5 33 c 128,-1,18
 682 44 682 44 678 63 c 128,-1,19
 674 82 674 82 674 111 c 0,20,21
 674 158 674 158 676.5 227 c 128,-1,22
 679 296 679 296 683 376 c 128,-1,23
 687 456 687 456 691.5 541 c 128,-1,24
 696 626 696 626 700 704 c 128,-1,25
 704 782 704 782 706.5 848 c 128,-1,26
 709 914 709 914 709 956 c 0,27,28
 709 1084 709 1084 670 1150.5 c 128,-1,29
 631 1217 631 1217 557 1217 c 0,30,31
 529 1217 529 1217 504 1208 c 128,-1,32
 479 1199 479 1199 457.5 1170.5 c 128,-1,33
 436 1142 436 1142 419.5 1087.5 c 128,-1,34
 403 1033 403 1033 391 941.5 c 128,-1,35
 379 850 379 850 373 716 c 128,-1,36
 367 582 367 582 367 395 c 2,37,-1
 367 294 l 2,38,39
 367 224 367 224 369 182 c 128,-1,40
 371 140 371 140 379 116 c 128,-1,41
 387 92 387 92 403.5 81 c 128,-1,42
 420 70 420 70 449 61 c 1,43,-1
 449 35 l 1,44,-1
 242 4 l 2,45,46
 222 1 222 1 206 1 c 0,47,48
 180 1 180 1 159.5 15 c 128,-1,49
 139 29 139 29 125 70 c 128,-1,50
 111 111 111 111 103.5 187 c 128,-1,51
 96 263 96 263 96 387 c 0,52,53
 96 502 96 502 97.5 586 c 128,-1,54
 99 670 99 670 102 732 c 128,-1,55
 105 794 105 794 111.5 838.5 c 128,-1,56
 118 883 118 883 127 919.5 c 128,-1,57
 136 956 136 956 149.5 988 c 128,-1,58
 163 1020 163 1020 181 1057 c 0,59,60
 236 1171 236 1171 359 1233.5 c 128,-1,61
 482 1296 482 1296 653 1296 c 0,62,63
 754 1296 754 1296 815.5 1263.5 c 128,-1,64
 877 1231 877 1231 911 1177.5 c 128,-1,65
 945 1124 945 1124 956 1055 c 128,-1,66
 967 986 967 986 967 913 c 0,67,68
 967 871 967 871 965 813.5 c 128,-1,69
 963 756 963 756 960 690 c 128,-1,70
 957 624 957 624 953.5 553.5 c 128,-1,71
 950 483 950 483 947 415 c 128,-1,72
 944 347 944 347 942 285 c 128,-1,73
 940 223 940 223 940 174 c 0,74,75
 940 164 940 164 939.5 156 c 128,-1,76
 939 148 939 148 939 141 c 0,77,78
 939 124 939 124 947 116 c 128,-1,79
 955 108 955 108 984 108 c 0,80,81
 1003 108 1003 108 1033.5 111 c 128,-1,82
 1064 114 1064 114 1110 119 c 1,83,84
 1148 178 1148 178 1211.5 204.5 c 128,-1,85
 1275 231 1275 231 1366 231 c 0,86,87
 1383 231 1383 231 1398 229.5 c 128,-1,88
 1413 228 1413 228 1424 226 c 0,89,90
 1437 223 1437 223 1448 221 c 1,91,92
 1429 178 1429 178 1421 147 c 128,-1,93
 1413 116 1413 116 1413 94 c 0,94,95
 1413 47 1413 47 1427 13.5 c 128,-1,96
 1441 -20 1441 -20 1470 -57 c 1,0,1
EndSplineSet
PairPos2: "'kern' Horizontal Kerning in Ethiopic lookup 1 subtable" uni12D2 dx=0 dy=0 dh=0 dv=0 dx=-227 dy=0 dh=0 dv=0
PairPos2: "'kern' Horizontal Kerning in Ethiopic lookup 1 subtable" uni1275 dx=0 dy=0 dh=0 dv=0 dx=-184 dy=0 dh=0 dv=0
EndChar

StartChar: uni1263
Encoding: 4707 4707 56
Width: 1092
GlyphClass: 2
Flags: W
AnchorPoint: "Anchor-0" 578 1317 basechar 0
LayerCount: 2
Fore
SplineSet
795 4 m 2,0,1
 774 1 774 1 757 1 c 0,2,3
 711 1 711 1 692.5 26 c 128,-1,4
 674 51 674 51 674 111 c 0,5,6
 674 158 674 158 676.5 227 c 128,-1,7
 679 296 679 296 683 376 c 128,-1,8
 687 456 687 456 691.5 541 c 128,-1,9
 696 626 696 626 700 704 c 128,-1,10
 704 782 704 782 706.5 848 c 128,-1,11
 709 914 709 914 709 956 c 0,12,13
 709 1084 709 1084 670 1150.5 c 128,-1,14
 631 1217 631 1217 557 1217 c 0,15,16
 535 1217 535 1217 512 1209.5 c 128,-1,17
 489 1202 489 1202 468 1180.5 c 128,-1,18
 447 1159 447 1159 428.5 1120 c 128,-1,19
 410 1081 410 1081 396.5 1019 c 128,-1,20
 383 957 383 957 375 868 c 128,-1,21
 367 779 367 779 367 657 c 2,22,-1
 367 580 l 2,23,24
 367 527 367 527 369 498 c 128,-1,25
 371 469 371 469 379 453 c 128,-1,26
 387 437 387 437 403.5 429.5 c 128,-1,27
 420 422 420 422 449 414 c 1,28,-1
 449 387 l 1,29,-1
 242 348 l 2,30,31
 227 345 227 345 213 343 c 128,-1,32
 199 341 199 341 187 341 c 0,33,34
 164 341 164 341 147 351.5 c 128,-1,35
 130 362 130 362 118.5 391 c 128,-1,36
 107 420 107 420 101.5 472 c 128,-1,37
 96 524 96 524 96 608 c 0,38,39
 96 693 96 693 102 759.5 c 128,-1,40
 108 826 108 826 119 879 c 128,-1,41
 130 932 130 932 145.5 975 c 128,-1,42
 161 1018 161 1018 180 1057 c 0,43,44
 200 1098 200 1098 236 1140.5 c 128,-1,45
 272 1183 272 1183 329 1217.5 c 128,-1,46
 386 1252 386 1252 466 1274 c 128,-1,47
 546 1296 546 1296 653 1296 c 0,48,49
 754 1296 754 1296 815.5 1263.5 c 128,-1,50
 877 1231 877 1231 911 1177.5 c 128,-1,51
 945 1124 945 1124 956 1055 c 128,-1,52
 967 986 967 986 967 913 c 0,53,54
 967 871 967 871 965 813.5 c 128,-1,55
 963 756 963 756 960 690 c 128,-1,56
 957 624 957 624 953.5 553.5 c 128,-1,57
 950 483 950 483 947 415 c 128,-1,58
 944 347 944 347 942 285 c 128,-1,59
 940 223 940 223 940 174 c 0,60,61
 940 147 940 147 940.5 129.5 c 128,-1,62
 941 112 941 112 947 100 c 128,-1,63
 953 88 953 88 967 81 c 128,-1,64
 981 74 981 74 1008 68 c 1,65,-1
 1008 35 l 1,66,-1
 795 4 l 2,0,1
EndSplineSet
EndChar

StartChar: uni1264
Encoding: 4708 4708 57
Width: 1487
GlyphClass: 2
Flags: W
AnchorPoint: "Anchor-0" 554 1317 basechar 0
LayerCount: 2
Fore
SplineSet
1386 203 m 0,0,1
 1386 160 1386 160 1370.5 120.5 c 128,-1,2
 1355 81 1355 81 1327 51 c 128,-1,3
 1299 21 1299 21 1260 3.5 c 128,-1,4
 1221 -14 1221 -14 1174 -14 c 0,5,6
 1154 -14 1154 -14 1138.5 -12 c 128,-1,7
 1123 -10 1123 -10 1106.5 -7 c 128,-1,8
 1090 -4 1090 -4 1070 -2 c 128,-1,9
 1050 0 1050 0 1020 0 c 256,10,11
 990 0 990 0 956.5 -4.5 c 128,-1,12
 923 -9 923 -9 890 -14.5 c 128,-1,13
 857 -20 857 -20 826 -24.5 c 128,-1,14
 795 -29 795 -29 770 -29 c 0,15,16
 741 -29 741 -29 722.5 -21.5 c 128,-1,17
 704 -14 704 -14 693.5 3 c 128,-1,18
 683 20 683 20 678.5 46.5 c 128,-1,19
 674 73 674 73 674 111 c 0,20,21
 674 158 674 158 676.5 227 c 128,-1,22
 679 296 679 296 683 376 c 128,-1,23
 687 456 687 456 691.5 541 c 128,-1,24
 696 626 696 626 700 704 c 128,-1,25
 704 782 704 782 706.5 848 c 128,-1,26
 709 914 709 914 709 956 c 0,27,28
 709 1084 709 1084 670 1150.5 c 128,-1,29
 631 1217 631 1217 557 1217 c 0,30,31
 529 1217 529 1217 504 1208 c 128,-1,32
 479 1199 479 1199 457.5 1170.5 c 128,-1,33
 436 1142 436 1142 419.5 1087.5 c 128,-1,34
 403 1033 403 1033 391 941.5 c 128,-1,35
 379 850 379 850 373 716 c 128,-1,36
 367 582 367 582 367 395 c 2,37,-1
 367 294 l 2,38,39
 367 224 367 224 369 182 c 128,-1,40
 371 140 371 140 379 116 c 128,-1,41
 387 92 387 92 403.5 81 c 128,-1,42
 420 70 420 70 449 61 c 1,43,-1
 449 35 l 1,44,-1
 242 4 l 2,45,46
 222 1 222 1 206 1 c 0,47,48
 180 1 180 1 159.5 15 c 128,-1,49
 139 29 139 29 125 70 c 128,-1,50
 111 111 111 111 103.5 187 c 128,-1,51
 96 263 96 263 96 387 c 0,52,53
 96 502 96 502 97.5 586 c 128,-1,54
 99 670 99 670 102 732 c 128,-1,55
 105 794 105 794 111 838.5 c 128,-1,56
 117 883 117 883 126.5 919.5 c 128,-1,57
 136 956 136 956 149 988 c 128,-1,58
 162 1020 162 1020 180 1057 c 0,59,60
 236 1171 236 1171 359 1233.5 c 128,-1,61
 482 1296 482 1296 653 1296 c 0,62,63
 754 1296 754 1296 815.5 1263.5 c 128,-1,64
 877 1231 877 1231 911 1177.5 c 128,-1,65
 945 1124 945 1124 956 1055 c 128,-1,66
 967 986 967 986 967 913 c 0,67,68
 967 786 967 786 958.5 644.5 c 128,-1,69
 950 503 950 503 950 356 c 1,70,71
 970 363 970 363 982 365 c 128,-1,72
 994 367 994 367 1004 367 c 0,73,74
 1018 367 1018 367 1039.5 359.5 c 128,-1,75
 1061 352 1061 352 1079 352 c 0,76,77
 1091 352 1091 352 1102 354.5 c 128,-1,78
 1113 357 1113 357 1128 360.5 c 128,-1,79
 1143 364 1143 364 1162.5 366.5 c 128,-1,80
 1182 369 1182 369 1210 369 c 0,81,82
 1244 369 1244 369 1275.5 357.5 c 128,-1,83
 1307 346 1307 346 1331.5 324.5 c 128,-1,84
 1356 303 1356 303 1371 272 c 128,-1,85
 1386 241 1386 241 1386 203 c 0,0,1
1126 182 m 0,86,87
 1126 235 1126 235 1101.5 266 c 128,-1,88
 1077 297 1077 297 1030 297 c 0,89,90
 998 297 998 297 978.5 290.5 c 128,-1,91
 959 284 959 284 947.5 268 c 128,-1,92
 936 252 936 252 932 224.5 c 128,-1,93
 928 197 928 197 928 154 c 0,94,95
 928 107 928 107 953.5 80 c 128,-1,96
 979 53 979 53 1024 53 c 0,97,98
 1036 53 1036 53 1053.5 59 c 128,-1,99
 1071 65 1071 65 1087 79.5 c 128,-1,100
 1103 94 1103 94 1114.5 119 c 128,-1,101
 1126 144 1126 144 1126 182 c 0,86,87
EndSplineSet
PairPos2: "'kern' Horizontal Kerning in Ethiopic lookup 1 subtable" uni12D4 dx=0 dy=0 dh=0 dv=0 dx=-140 dy=0 dh=0 dv=0
EndChar

StartChar: uni1265
Encoding: 4709 4709 58
Width: 1501
GlyphClass: 2
Flags: W
AnchorPoint: "Anchor-0" 1001 1320 basechar 0
LayerCount: 2
Fore
SplineSet
1204 4 m 2,0,1
 1183 1 1183 1 1166 1 c 0,2,3
 1120 1 1120 1 1101.5 26 c 128,-1,4
 1083 51 1083 51 1083 111 c 0,5,6
 1083 158 1083 158 1085.5 227 c 128,-1,7
 1088 296 1088 296 1092 376 c 128,-1,8
 1096 456 1096 456 1100.5 541 c 128,-1,9
 1105 626 1105 626 1109 704 c 128,-1,10
 1113 782 1113 782 1115.5 848 c 128,-1,11
 1118 914 1118 914 1118 956 c 0,12,13
 1118 1084 1118 1084 1079.5 1150.5 c 128,-1,14
 1041 1217 1041 1217 967 1217 c 0,15,16
 939 1217 939 1217 913.5 1208 c 128,-1,17
 888 1199 888 1199 867 1170.5 c 128,-1,18
 846 1142 846 1142 829 1087.5 c 128,-1,19
 812 1033 812 1033 800.5 941.5 c 128,-1,20
 789 850 789 850 782.5 716 c 128,-1,21
 776 582 776 582 776 395 c 2,22,-1
 776 304 l 2,23,24
 776 230 776 230 778 186 c 128,-1,25
 780 142 780 142 788 117.5 c 128,-1,26
 796 93 796 93 812.5 81.5 c 128,-1,27
 829 70 829 70 858 61 c 1,28,-1
 858 35 l 1,29,-1
 651 4 l 2,30,31
 631 1 631 1 615 1 c 0,32,33
 589 1 589 1 568.5 15 c 128,-1,34
 548 29 548 29 534 70 c 128,-1,35
 520 111 520 111 513 187 c 128,-1,36
 506 263 506 263 506 387 c 0,37,38
 506 459 506 459 506.5 519 c 128,-1,39
 507 579 507 579 508 628.5 c 128,-1,40
 509 678 509 678 511 718.5 c 128,-1,41
 513 759 513 759 516 793 c 1,42,-1
 408 776 l 1,43,44
 402 691 402 691 375.5 634.5 c 128,-1,45
 349 578 349 578 310.5 544.5 c 128,-1,46
 272 511 272 511 227.5 497 c 128,-1,47
 183 483 183 483 141 483 c 0,48,49
 115 483 115 483 91.5 487.5 c 128,-1,50
 68 492 68 492 55 502 c 1,51,52
 63 508 63 508 72.5 519 c 128,-1,53
 82 530 82 530 90 548.5 c 128,-1,54
 98 567 98 567 103.5 593.5 c 128,-1,55
 109 620 109 620 109 657 c 0,56,57
 109 689 109 689 103.5 715.5 c 128,-1,58
 98 742 98 742 92 762 c 0,59,60
 85 785 85 785 76 805 c 1,61,-1
 524 866 l 1,62,63
 529 894 529 894 535 918.5 c 128,-1,64
 541 943 541 943 549.5 965.5 c 128,-1,65
 558 988 558 988 568 1010 c 128,-1,66
 578 1032 578 1032 590 1057 c 0,67,68
 646 1171 646 1171 769 1233.5 c 128,-1,69
 892 1296 892 1296 1063 1296 c 0,70,71
 1163 1296 1163 1296 1224.5 1263.5 c 128,-1,72
 1286 1231 1286 1231 1320 1177.5 c 128,-1,73
 1354 1124 1354 1124 1365 1055 c 128,-1,74
 1376 986 1376 986 1376 913 c 0,75,76
 1376 871 1376 871 1374 813.5 c 128,-1,77
 1372 756 1372 756 1369 690 c 128,-1,78
 1366 624 1366 624 1363 553.5 c 128,-1,79
 1360 483 1360 483 1357 415 c 128,-1,80
 1354 347 1354 347 1352 285 c 128,-1,81
 1350 223 1350 223 1350 174 c 0,82,83
 1350 147 1350 147 1350.5 129.5 c 128,-1,84
 1351 112 1351 112 1357 100 c 128,-1,85
 1363 88 1363 88 1376.5 81 c 128,-1,86
 1390 74 1390 74 1417 68 c 1,87,-1
 1417 35 l 1,88,-1
 1204 4 l 2,0,1
EndSplineSet
EndChar

StartChar: uni1266
Encoding: 4710 4710 59
Width: 1092
GlyphClass: 2
Flags: W
AnchorPoint: "Anchor-0" 564 1327 basechar 0
LayerCount: 2
Fore
SplineSet
805 315 m 2,0,1
 784 312 784 312 768 312 c 0,2,3
 721 312 721 312 702.5 337 c 128,-1,4
 684 362 684 362 684 422 c 0,5,6
 684 445 684 445 686 482 c 128,-1,7
 688 519 688 519 690.5 564 c 128,-1,8
 693 609 693 609 696.5 660.5 c 128,-1,9
 700 712 700 712 702.5 763.5 c 128,-1,10
 705 815 705 815 707 864.5 c 128,-1,11
 709 914 709 914 709 956 c 0,12,13
 709 1084 709 1084 670 1150.5 c 128,-1,14
 631 1217 631 1217 557 1217 c 0,15,16
 529 1217 529 1217 504 1208 c 128,-1,17
 479 1199 479 1199 457.5 1170.5 c 128,-1,18
 436 1142 436 1142 419.5 1087.5 c 128,-1,19
 403 1033 403 1033 391 941.5 c 128,-1,20
 379 850 379 850 373 716 c 128,-1,21
 367 582 367 582 367 395 c 2,22,-1
 367 294 l 2,23,24
 367 224 367 224 369 182 c 128,-1,25
 371 140 371 140 379 116 c 128,-1,26
 387 92 387 92 403.5 81 c 128,-1,27
 420 70 420 70 449 61 c 1,28,-1
 449 35 l 1,29,-1
 242 4 l 2,30,31
 222 1 222 1 206 1 c 0,32,33
 180 1 180 1 159.5 15 c 128,-1,34
 139 29 139 29 125 70 c 128,-1,35
 111 111 111 111 103.5 187 c 128,-1,36
 96 263 96 263 96 387 c 0,37,38
 96 502 96 502 97.5 586 c 128,-1,39
 99 670 99 670 102 732 c 128,-1,40
 105 794 105 794 111 838.5 c 128,-1,41
 117 883 117 883 126.5 919.5 c 128,-1,42
 136 956 136 956 149 988 c 128,-1,43
 162 1020 162 1020 180 1057 c 0,44,45
 236 1171 236 1171 359 1233.5 c 128,-1,46
 482 1296 482 1296 653 1296 c 0,47,48
 754 1296 754 1296 815.5 1263.5 c 128,-1,49
 877 1231 877 1231 911 1177.5 c 128,-1,50
 945 1124 945 1124 956 1055 c 128,-1,51
 967 986 967 986 967 913 c 0,52,53
 967 861 967 861 964.5 801 c 128,-1,54
 962 741 962 741 958.5 682.5 c 128,-1,55
 955 624 955 624 952.5 572.5 c 128,-1,56
 950 521 950 521 950 485 c 0,57,58
 950 458 950 458 952 439.5 c 128,-1,59
 954 421 954 421 961.5 409 c 128,-1,60
 969 397 969 397 982 390 c 128,-1,61
 995 383 995 383 1018 379 c 1,62,-1
 1018 346 l 1,63,-1
 805 315 l 2,0,1
EndSplineSet
EndChar

StartChar: uni1230
Encoding: 4656 4656 60
Width: 1133
GlyphClass: 2
Flags: W
AnchorPoint: "Anchor-0" 571 1381 basechar 0
LayerCount: 2
Fore
SplineSet
846 4 m 2,0,1
 825 1 825 1 808 1 c 0,2,3
 762 1 762 1 743.5 26 c 128,-1,4
 725 51 725 51 725 111 c 0,5,6
 725 170 725 170 728 244.5 c 128,-1,7
 731 319 731 319 734 393 c 128,-1,8
 737 467 737 467 740 532.5 c 128,-1,9
 743 598 743 598 743 639 c 0,10,11
 743 815 743 815 697.5 906 c 128,-1,12
 652 997 652 997 561 997 c 0,13,14
 508 997 508 997 471 972 c 128,-1,15
 434 947 434 947 411 880.5 c 128,-1,16
 388 814 388 814 377.5 696.5 c 128,-1,17
 367 579 367 579 367 395 c 0,18,19
 367 289 367 289 368.5 227 c 128,-1,20
 370 165 370 165 377 131 c 128,-1,21
 384 97 384 97 398 83.5 c 128,-1,22
 412 70 412 70 436 61 c 1,23,-1
 436 35 l 1,24,-1
 229 4 l 2,25,26
 217 2 217 2 206 0.5 c 128,-1,27
 195 -1 195 -1 185 -1 c 0,28,29
 162 -1 162 -1 145.5 10.5 c 128,-1,30
 129 22 129 22 118 57 c 128,-1,31
 107 92 107 92 101.5 156 c 128,-1,32
 96 220 96 220 96 324 c 0,33,34
 96 460 96 460 102.5 550 c 128,-1,35
 109 640 109 640 120.5 699 c 128,-1,36
 132 758 132 758 148 794.5 c 128,-1,37
 164 831 164 831 184 862 c 0,38,39
 221 919 221 919 288 967 c 128,-1,40
 355 1015 355 1015 451 1044 c 1,41,-1
 451 1239 l 2,42,43
 451 1260 451 1260 445 1272 c 128,-1,44
 439 1284 439 1284 432 1289 c 0,45,46
 424 1295 424 1295 414 1296 c 1,47,-1
 410 1321 l 1,48,-1
 641 1360 l 2,49,50
 659 1363 659 1363 673 1363 c 0,51,52
 692 1363 692 1363 703.5 1357.5 c 128,-1,53
 715 1352 715 1352 720.5 1343.5 c 128,-1,54
 726 1335 726 1335 727.5 1323.5 c 128,-1,55
 729 1312 729 1312 729 1300 c 2,56,-1
 729 1075 l 1,57,58
 813 1069 813 1069 867 1041 c 128,-1,59
 921 1013 921 1013 952 964.5 c 128,-1,60
 983 916 983 916 994.5 848.5 c 128,-1,61
 1006 781 1006 781 1006 696 c 0,62,63
 1006 633 1006 633 1003.5 574 c 128,-1,64
 1001 515 1001 515 998.5 455 c 128,-1,65
 996 395 996 395 993.5 331.5 c 128,-1,66
 991 268 991 268 991 195 c 0,67,68
 991 168 991 168 992 148 c 128,-1,69
 993 128 993 128 999.5 113 c 128,-1,70
 1006 98 1006 98 1019.5 87 c 128,-1,71
 1033 76 1033 76 1059 68 c 1,72,-1
 1059 35 l 1,73,-1
 846 4 l 2,0,1
EndSplineSet
EndChar

StartChar: uni1231
Encoding: 4657 4657 61
Width: 1542
GlyphClass: 2
Flags: W
AnchorPoint: "Anchor-0" 593 1381 basechar 0
LayerCount: 2
Fore
SplineSet
1489 471 m 1,0,1
 1466 455 1466 455 1446.5 445.5 c 128,-1,2
 1427 436 1427 436 1408.5 431.5 c 128,-1,3
 1390 427 1390 427 1370.5 425.5 c 128,-1,4
 1351 424 1351 424 1329 424 c 0,5,6
 1301 424 1301 424 1273.5 428 c 128,-1,7
 1246 432 1246 432 1220 447 c 128,-1,8
 1194 462 1194 462 1171 491 c 128,-1,9
 1148 520 1148 520 1130 569 c 1,10,-1
 1004 569 l 1,11,12
 1000 482 1000 482 995.5 392 c 128,-1,13
 991 302 991 302 991 195 c 0,14,15
 991 168 991 168 992 148 c 128,-1,16
 993 128 993 128 999.5 113 c 128,-1,17
 1006 98 1006 98 1019.5 87 c 128,-1,18
 1033 76 1033 76 1059 68 c 1,19,-1
 1059 35 l 1,20,-1
 846 4 l 2,21,22
 825 1 825 1 808 1 c 0,23,24
 762 1 762 1 743.5 26 c 128,-1,25
 725 51 725 51 725 111 c 0,26,27
 725 170 725 170 728 244.5 c 128,-1,28
 731 319 731 319 734 393 c 128,-1,29
 737 467 737 467 740 532.5 c 128,-1,30
 743 598 743 598 743 639 c 0,31,32
 743 815 743 815 697.5 906 c 128,-1,33
 652 997 652 997 561 997 c 0,34,35
 508 997 508 997 471 972 c 128,-1,36
 434 947 434 947 411 880.5 c 128,-1,37
 388 814 388 814 377.5 696.5 c 128,-1,38
 367 579 367 579 367 395 c 0,39,40
 367 289 367 289 368.5 227 c 128,-1,41
 370 165 370 165 377 131 c 128,-1,42
 384 97 384 97 398 83.5 c 128,-1,43
 412 70 412 70 436 61 c 1,44,-1
 436 35 l 1,45,-1
 229 4 l 2,46,47
 217 2 217 2 206 0.5 c 128,-1,48
 195 -1 195 -1 185 -1 c 0,49,50
 162 -1 162 -1 145.5 10.5 c 128,-1,51
 129 22 129 22 118 57 c 128,-1,52
 107 92 107 92 101.5 156 c 128,-1,53
 96 220 96 220 96 324 c 0,54,55
 96 460 96 460 102.5 550 c 128,-1,56
 109 640 109 640 120.5 699 c 128,-1,57
 132 758 132 758 148 794.5 c 128,-1,58
 164 831 164 831 184 862 c 0,59,60
 221 919 221 919 288 967 c 128,-1,61
 355 1015 355 1015 451 1044 c 1,62,-1
 451 1239 l 2,63,64
 451 1260 451 1260 445 1272 c 128,-1,65
 439 1284 439 1284 432 1289 c 0,66,67
 424 1295 424 1295 414 1296 c 1,68,-1
 410 1321 l 1,69,-1
 641 1360 l 2,70,71
 659 1363 659 1363 673 1363 c 0,72,73
 692 1363 692 1363 703.5 1357.5 c 128,-1,74
 715 1352 715 1352 720.5 1343.5 c 128,-1,75
 726 1335 726 1335 727.5 1323.5 c 128,-1,76
 729 1312 729 1312 729 1300 c 2,77,-1
 729 1075 l 1,78,79
 813 1069 813 1069 867 1041 c 128,-1,80
 921 1013 921 1013 952 964.5 c 128,-1,81
 983 916 983 916 994.5 848.5 c 128,-1,82
 1006 781 1006 781 1006 696 c 2,83,-1
 1006 643 l 1,84,-1
 1145 643 l 1,85,86
 1169 672 1169 672 1192 691.5 c 128,-1,87
 1215 711 1215 711 1239 723 c 128,-1,88
 1263 735 1263 735 1290 740 c 128,-1,89
 1317 745 1317 745 1350 745 c 0,90,91
 1367 745 1367 745 1380.5 744 c 128,-1,92
 1394 743 1394 743 1407.5 740 c 128,-1,93
 1421 737 1421 737 1435.5 732.5 c 128,-1,94
 1450 728 1450 728 1468 721 c 1,95,96
 1456 697 1456 697 1449 679 c 128,-1,97
 1442 661 1442 661 1438.5 648 c 128,-1,98
 1435 635 1435 635 1434.5 625.5 c 128,-1,99
 1434 616 1434 616 1434 607 c 2,100,-1
 1434 596 l 2,101,102
 1434 558 1434 558 1447 525.5 c 128,-1,103
 1460 493 1460 493 1489 471 c 1,0,1
EndSplineSet
EndChar

StartChar: uni1232
Encoding: 4658 4658 62
Width: 1610
GlyphClass: 2
Flags: W
AnchorPoint: "Anchor-0" 600 1384 basechar 0
LayerCount: 2
Fore
SplineSet
1524 -63 m 1,0,1
 1491 -77 1491 -77 1465 -87 c 128,-1,2
 1439 -97 1439 -97 1416 -103 c 128,-1,3
 1393 -109 1393 -109 1372 -112 c 128,-1,4
 1351 -115 1351 -115 1329 -115 c 0,5,6
 1301 -115 1301 -115 1273 -105 c 128,-1,7
 1245 -95 1245 -95 1221.5 -75.5 c 128,-1,8
 1198 -56 1198 -56 1182 -28 c 128,-1,9
 1166 0 1166 0 1163 37 c 1,10,-1
 846 2 l 2,11,12
 836 1 836 1 827.5 0.5 c 128,-1,13
 819 0 819 0 811 0 c 0,14,15
 763 0 763 0 744 24 c 128,-1,16
 725 48 725 48 725 109 c 0,17,18
 725 148 725 148 726.5 195 c 128,-1,19
 728 242 728 242 730 292 c 128,-1,20
 732 342 732 342 734 392 c 128,-1,21
 736 442 736 442 738 488 c 128,-1,22
 740 534 740 534 741.5 573 c 128,-1,23
 743 612 743 612 743 639 c 0,24,25
 743 726 743 726 738.5 797.5 c 128,-1,26
 734 869 734 869 719 919 c 128,-1,27
 704 969 704 969 675 996.5 c 128,-1,28
 646 1024 646 1024 596 1024 c 0,29,30
 543 1024 543 1024 504 995 c 128,-1,31
 465 966 465 966 439 894 c 128,-1,32
 413 822 413 822 400 700.5 c 128,-1,33
 387 579 387 579 387 395 c 0,34,35
 387 289 387 289 388.5 227 c 128,-1,36
 390 165 390 165 397 131 c 128,-1,37
 404 97 404 97 418 83.5 c 128,-1,38
 432 70 432 70 457 61 c 1,39,-1
 457 35 l 1,40,-1
 250 4 l 2,41,42
 238 2 238 2 227 0.5 c 128,-1,43
 216 -1 216 -1 206 -1 c 0,44,45
 183 -1 183 -1 166.5 10.5 c 128,-1,46
 150 22 150 22 139 57 c 128,-1,47
 128 92 128 92 122.5 156 c 128,-1,48
 117 220 117 220 117 324 c 0,49,50
 117 460 117 460 123.5 550 c 128,-1,51
 130 640 130 640 141.5 699 c 128,-1,52
 153 758 153 758 169 794.5 c 128,-1,53
 185 831 185 831 205 862 c 0,54,55
 242 919 242 919 308.5 969.5 c 128,-1,56
 375 1020 375 1020 471 1049 c 1,57,-1
 471 1233 l 2,58,59
 471 1254 471 1254 462.5 1266.5 c 128,-1,60
 454 1279 454 1279 444 1286 c 0,61,62
 433 1294 433 1294 418 1296 c 1,63,-1
 414 1321 l 1,64,-1
 659 1372 l 2,65,66
 676 1376 676 1376 693 1376 c 0,67,68
 711 1376 711 1376 722 1370.5 c 128,-1,69
 733 1365 733 1365 738.5 1356 c 128,-1,70
 744 1347 744 1347 746 1336 c 128,-1,71
 748 1325 748 1325 748 1313 c 2,72,-1
 748 1079 l 1,73,74
 832 1064 832 1064 883 1034 c 128,-1,75
 934 1004 934 1004 961 957 c 128,-1,76
 988 910 988 910 997 845.5 c 128,-1,77
 1006 781 1006 781 1006 696 c 0,78,79
 1006 633 1006 633 1004.5 559 c 128,-1,80
 1003 485 1003 485 1000.5 415 c 128,-1,81
 998 345 998 345 996.5 287.5 c 128,-1,82
 995 230 995 230 995 199 c 0,83,84
 995 182 995 182 994.5 168.5 c 128,-1,85
 994 155 994 155 994 144 c 0,86,87
 994 118 994 118 1001.5 107 c 128,-1,88
 1009 96 1009 96 1037 96 c 0,89,90
 1054 96 1054 96 1080.5 99.5 c 128,-1,91
 1107 103 1107 103 1148 109 c 2,92,-1
 1163 111 l 1,93,94
 1239 225 1239 225 1419 225 c 0,95,96
 1436 225 1436 225 1451 223.5 c 128,-1,97
 1466 222 1466 222 1477 220 c 0,98,99
 1490 217 1490 217 1501 215 c 1,100,101
 1466 132 1466 132 1466 88 c 0,102,103
 1466 41 1466 41 1480.5 7.5 c 128,-1,104
 1495 -26 1495 -26 1524 -63 c 1,0,1
EndSplineSet
PairPos2: "'kern' Horizontal Kerning in Ethiopic lookup 1 subtable" uni12D4 dx=0 dy=0 dh=0 dv=0 dx=-233 dy=0 dh=0 dv=0
PairPos2: "'kern' Horizontal Kerning in Ethiopic lookup 1 subtable" uni12D2 dx=0 dy=0 dh=0 dv=0 dx=-213 dy=0 dh=0 dv=0
PairPos2: "'kern' Horizontal Kerning in Ethiopic lookup 1 subtable" uni12B9 dx=0 dy=0 dh=0 dv=0 dx=-200 dy=0 dh=0 dv=0
EndChar

StartChar: uni1233
Encoding: 4659 4659 63
Width: 1133
GlyphClass: 2
Flags: W
AnchorPoint: "Anchor-0" 582 1373 basechar 0
LayerCount: 2
Fore
SplineSet
836 4 m 2,0,1
 815 1 815 1 798 1 c 0,2,3
 751 1 751 1 733 26 c 128,-1,4
 715 51 715 51 715 111 c 0,5,6
 715 170 715 170 718 244.5 c 128,-1,7
 721 319 721 319 724 393 c 128,-1,8
 727 467 727 467 730 532.5 c 128,-1,9
 733 598 733 598 733 639 c 0,10,11
 733 815 733 815 687.5 906 c 128,-1,12
 642 997 642 997 551 997 c 0,13,14
 498 997 498 997 462.5 970 c 128,-1,15
 427 943 427 943 406 895.5 c 128,-1,16
 385 848 385 848 376 783 c 128,-1,17
 367 718 367 718 367 643 c 0,18,19
 367 569 367 569 369.5 527 c 128,-1,20
 372 485 372 485 379.5 462 c 128,-1,21
 387 439 387 439 401.5 429.5 c 128,-1,22
 416 420 416 420 440 412 c 1,23,-1
 440 385 l 1,24,-1
 231 348 l 2,25,26
 220 346 220 346 209.5 345 c 128,-1,27
 199 344 199 344 190 344 c 0,28,29
 165 344 165 344 147.5 353.5 c 128,-1,30
 130 363 130 363 118.5 388.5 c 128,-1,31
 107 414 107 414 101.5 458 c 128,-1,32
 96 502 96 502 96 571 c 0,33,34
 96 635 96 635 101.5 679.5 c 128,-1,35
 107 724 107 724 117 756 c 128,-1,36
 127 788 127 788 141.5 812.5 c 128,-1,37
 156 837 156 837 174 862 c 0,38,39
 214 916 214 916 279 965.5 c 128,-1,40
 344 1015 344 1015 440 1044 c 1,41,-1
 440 1239 l 2,42,43
 440 1260 440 1260 434 1272 c 128,-1,44
 428 1284 428 1284 421 1289 c 0,45,46
 413 1295 413 1295 403 1296 c 1,47,-1
 399 1321 l 1,48,-1
 631 1360 l 2,49,50
 649 1363 649 1363 663 1363 c 0,51,52
 682 1363 682 1363 693.5 1357.5 c 128,-1,53
 705 1352 705 1352 710.5 1343.5 c 128,-1,54
 716 1335 716 1335 717.5 1323.5 c 128,-1,55
 719 1312 719 1312 719 1300 c 2,56,-1
 719 1075 l 1,57,58
 803 1069 803 1069 857 1041 c 128,-1,59
 911 1013 911 1013 941.5 964.5 c 128,-1,60
 972 916 972 916 983.5 848.5 c 128,-1,61
 995 781 995 781 995 696 c 0,62,63
 995 633 995 633 993 574 c 128,-1,64
 991 515 991 515 988 455 c 128,-1,65
 985 395 985 395 983 331.5 c 128,-1,66
 981 268 981 268 981 195 c 0,67,68
 981 168 981 168 982 148 c 128,-1,69
 983 128 983 128 989.5 113 c 128,-1,70
 996 98 996 98 1009.5 87 c 128,-1,71
 1023 76 1023 76 1049 68 c 1,72,-1
 1049 35 l 1,73,-1
 836 4 l 2,0,1
EndSplineSet
EndChar

StartChar: uni1234
Encoding: 4660 4660 64
Width: 1434
GlyphClass: 2
Flags: W
AnchorPoint: "Anchor-0" 586 1363 basechar 0
LayerCount: 2
Fore
SplineSet
1350 252 m 0,0,1
 1350 209 1350 209 1325.5 168.5 c 128,-1,2
 1301 128 1301 128 1262 96.5 c 128,-1,3
 1223 65 1223 65 1175 46 c 128,-1,4
 1127 27 1127 27 1079 27 c 2,5,-1
 930 27 l 2,6,7
 909 27 909 27 890 23 c 128,-1,8
 871 19 871 19 849 13.5 c 128,-1,9
 827 8 827 8 799.5 4 c 128,-1,10
 772 0 772 0 735 0 c 0,11,12
 686 0 686 0 662.5 28 c 128,-1,13
 639 56 639 56 639 104 c 0,14,15
 639 125 639 125 643.5 175 c 128,-1,16
 648 225 648 225 654.5 290.5 c 128,-1,17
 661 356 661 356 668.5 431.5 c 128,-1,18
 676 507 676 507 682.5 579.5 c 128,-1,19
 689 652 689 652 693.5 715.5 c 128,-1,20
 698 779 698 779 698 821 c 0,21,22
 698 842 698 842 695.5 872 c 128,-1,23
 693 902 693 902 681 930 c 128,-1,24
 669 958 669 958 643.5 977.5 c 128,-1,25
 618 997 618 997 573 997 c 0,26,27
 519 997 519 997 480 972 c 128,-1,28
 441 947 441 947 416 880.5 c 128,-1,29
 391 814 391 814 379 696.5 c 128,-1,30
 367 579 367 579 367 395 c 0,31,32
 367 289 367 289 371 227 c 128,-1,33
 375 165 375 165 384.5 131 c 128,-1,34
 394 97 394 97 410 83.5 c 128,-1,35
 426 70 426 70 451 61 c 1,36,-1
 451 35 l 1,37,-1
 244 4 l 2,38,39
 232 2 232 2 221 0.5 c 128,-1,40
 210 -1 210 -1 199 -1 c 0,41,42
 175 -1 175 -1 155.5 10.5 c 128,-1,43
 136 22 136 22 123 57 c 128,-1,44
 110 92 110 92 103 156 c 128,-1,45
 96 220 96 220 96 324 c 0,46,47
 96 460 96 460 102.5 550 c 128,-1,48
 109 640 109 640 120.5 699 c 128,-1,49
 132 758 132 758 148 794.5 c 128,-1,50
 164 831 164 831 184 862 c 0,51,52
 221 919 221 919 281.5 962 c 128,-1,53
 342 1005 342 1005 438 1034 c 1,54,-1
 438 1229 l 2,55,56
 438 1250 438 1250 432 1262 c 128,-1,57
 426 1274 426 1274 419 1279 c 0,58,59
 411 1285 411 1285 401 1286 c 1,60,-1
 397 1311 l 1,61,-1
 629 1350 l 2,62,63
 647 1353 647 1353 661 1353 c 0,64,65
 680 1353 680 1353 691.5 1347.5 c 128,-1,66
 703 1342 703 1342 708.5 1333.5 c 128,-1,67
 714 1325 714 1325 715.5 1313.5 c 128,-1,68
 717 1302 717 1302 717 1290 c 2,69,-1
 717 1065 l 1,70,71
 722 1065 722 1065 725.5 1065.5 c 128,-1,72
 729 1066 729 1066 734 1066 c 0,73,74
 792 1066 792 1066 834 1045.5 c 128,-1,75
 876 1025 876 1025 903 987 c 128,-1,76
 930 949 930 949 943 893.5 c 128,-1,77
 956 838 956 838 956 768 c 0,78,79
 956 705 956 705 951.5 647.5 c 128,-1,80
 947 590 947 590 942 542.5 c 128,-1,81
 937 495 937 495 932.5 458.5 c 128,-1,82
 928 422 928 422 928 401 c 1,83,84
 967 401 967 401 995.5 404.5 c 128,-1,85
 1024 408 1024 408 1049 411.5 c 128,-1,86
 1074 415 1074 415 1099.5 418.5 c 128,-1,87
 1125 422 1125 422 1159 422 c 0,88,89
 1255 422 1255 422 1302.5 382 c 128,-1,90
 1350 342 1350 342 1350 252 c 0,0,1
1079 207 m 0,91,92
 1079 231 1079 231 1074.5 253 c 128,-1,93
 1070 275 1070 275 1054.5 291.5 c 128,-1,94
 1039 308 1039 308 1008 318 c 128,-1,95
 977 328 977 328 924 328 c 1,96,97
 922 307 922 307 920 281.5 c 128,-1,98
 918 256 918 256 916 233 c 0,99,100
 914 207 914 207 913 180 c 0,101,102
 913 157 913 157 914 138.5 c 128,-1,103
 915 120 915 120 921 107 c 128,-1,104
 927 94 927 94 939.5 87 c 128,-1,105
 952 80 952 80 975 80 c 0,106,107
 987 80 987 80 1005 85.5 c 128,-1,108
 1023 91 1023 91 1039.5 105 c 128,-1,109
 1056 119 1056 119 1067.5 143.5 c 128,-1,110
 1079 168 1079 168 1079 207 c 0,91,92
EndSplineSet
PairPos2: "'kern' Horizontal Kerning in Ethiopic lookup 1 subtable" uni12D4 dx=0 dy=0 dh=0 dv=0 dx=-160 dy=0 dh=0 dv=0
EndChar

StartChar: uni1235
Encoding: 4661 4661 65
Width: 1133
GlyphClass: 2
Flags: W
AnchorPoint: "Anchor-0" 444 1391 basechar 0
LayerCount: 2
Fore
SplineSet
846 4 m 2,0,1
 825 1 825 1 808 1 c 0,2,3
 762 1 762 1 743.5 26 c 128,-1,4
 725 51 725 51 725 111 c 0,5,6
 725 170 725 170 728 244.5 c 128,-1,7
 731 319 731 319 734 393 c 128,-1,8
 737 467 737 467 740 532.5 c 128,-1,9
 743 598 743 598 743 639 c 0,10,11
 743 815 743 815 697.5 906 c 128,-1,12
 652 997 652 997 561 997 c 0,13,14
 508 997 508 997 471 972 c 128,-1,15
 434 947 434 947 411 880.5 c 128,-1,16
 388 814 388 814 377.5 696.5 c 128,-1,17
 367 579 367 579 367 395 c 0,18,19
 367 289 367 289 368.5 227 c 128,-1,20
 370 165 370 165 377 131 c 128,-1,21
 384 97 384 97 398 83.5 c 128,-1,22
 412 70 412 70 436 61 c 1,23,-1
 436 35 l 1,24,-1
 229 4 l 2,25,26
 217 2 217 2 206 0.5 c 128,-1,27
 195 -1 195 -1 185 -1 c 0,28,29
 162 -1 162 -1 145.5 10.5 c 128,-1,30
 129 22 129 22 118 57 c 128,-1,31
 107 92 107 92 101.5 156 c 128,-1,32
 96 220 96 220 96 324 c 0,33,34
 96 460 96 460 102.5 550 c 128,-1,35
 109 640 109 640 120.5 699 c 128,-1,36
 132 758 132 758 148 794.5 c 128,-1,37
 164 831 164 831 184 862 c 0,38,39
 202 890 202 890 229 915 c 128,-1,40
 256 940 256 940 289 961.5 c 128,-1,41
 322 983 322 983 359 1002 c 128,-1,42
 396 1021 396 1021 434 1038 c 1,43,-1
 324 1204 l 2,44,45
 314 1219 314 1219 306.5 1230 c 128,-1,46
 299 1241 299 1241 294.5 1251.5 c 128,-1,47
 290 1262 290 1262 287.5 1272.5 c 128,-1,48
 285 1283 285 1283 285 1296 c 0,49,50
 285 1322 285 1322 308.5 1337.5 c 128,-1,51
 332 1353 332 1353 362 1356 c 2,52,-1
 623 1382 l 1,53,-1
 631 1356 l 1,54,55
 618 1339 618 1339 613 1325.5 c 128,-1,56
 608 1312 608 1312 608 1284 c 0,57,58
 608 1267 608 1267 615 1246 c 128,-1,59
 622 1225 622 1225 633 1208 c 2,60,-1
 725 1075 l 1,61,62
 809 1069 809 1069 863.5 1041 c 128,-1,63
 918 1013 918 1013 949.5 964.5 c 128,-1,64
 981 916 981 916 993.5 848.5 c 128,-1,65
 1006 781 1006 781 1006 696 c 0,66,67
 1006 633 1006 633 1003.5 574 c 128,-1,68
 1001 515 1001 515 998.5 455 c 128,-1,69
 996 395 996 395 993.5 331.5 c 128,-1,70
 991 268 991 268 991 195 c 0,71,72
 991 168 991 168 992 148 c 128,-1,73
 993 128 993 128 999.5 113 c 128,-1,74
 1006 98 1006 98 1019.5 87 c 128,-1,75
 1033 76 1033 76 1059 68 c 1,76,-1
 1059 35 l 1,77,-1
 846 4 l 2,0,1
EndSplineSet
EndChar

StartChar: uni1236
Encoding: 4662 4662 66
Width: 1159
GlyphClass: 2
Flags: W
AnchorPoint: "Anchor-0" 593 1377 basechar 0
LayerCount: 2
Fore
SplineSet
858 344 m 2,0,1
 844 342 844 342 831.5 340.5 c 128,-1,2
 819 339 819 339 808 339 c 0,3,4
 769 339 769 339 753 360.5 c 128,-1,5
 737 382 737 382 737 438 c 0,6,7
 737 451 737 451 738 478 c 128,-1,8
 739 505 739 505 740 536.5 c 128,-1,9
 741 568 741 568 742 600.5 c 128,-1,10
 743 633 743 633 743 657 c 0,11,12
 743 832 743 832 697.5 914.5 c 128,-1,13
 652 997 652 997 561 997 c 0,14,15
 508 997 508 997 471 972 c 128,-1,16
 434 947 434 947 411 880.5 c 128,-1,17
 388 814 388 814 377.5 696.5 c 128,-1,18
 367 579 367 579 367 395 c 0,19,20
 367 289 367 289 368.5 227 c 128,-1,21
 370 165 370 165 377 131 c 128,-1,22
 384 97 384 97 398 83.5 c 128,-1,23
 412 70 412 70 436 61 c 1,24,-1
 436 35 l 1,25,-1
 229 4 l 2,26,27
 217 2 217 2 206 0.5 c 128,-1,28
 195 -1 195 -1 185 -1 c 0,29,30
 162 -1 162 -1 145.5 10.5 c 128,-1,31
 129 22 129 22 118 57 c 128,-1,32
 107 92 107 92 101.5 156 c 128,-1,33
 96 220 96 220 96 324 c 0,34,35
 96 460 96 460 102.5 550 c 128,-1,36
 109 640 109 640 120.5 699 c 128,-1,37
 132 758 132 758 148 794.5 c 128,-1,38
 164 831 164 831 184 862 c 0,39,40
 221 919 221 919 290.5 967 c 128,-1,41
 360 1015 360 1015 451 1044 c 1,42,-1
 451 1239 l 2,43,44
 451 1259 451 1259 445 1270 c 128,-1,45
 439 1281 439 1281 432 1287 c 0,46,47
 424 1294 424 1294 414 1296 c 1,48,-1
 410 1321 l 1,49,-1
 641 1360 l 2,50,51
 659 1363 659 1363 673 1363 c 0,52,53
 705 1363 705 1363 715.5 1349 c 128,-1,54
 726 1335 726 1335 726 1316 c 0,55,56
 726 1312 726 1312 726 1308.5 c 128,-1,57
 726 1305 726 1305 725 1300 c 2,58,-1
 725 1075 l 1,59,60
 809 1069 809 1069 863.5 1041.5 c 128,-1,61
 918 1014 918 1014 949.5 968.5 c 128,-1,62
 981 923 981 923 993.5 860.5 c 128,-1,63
 1006 798 1006 798 1006 723 c 0,64,65
 1006 713 1006 713 1006 708.5 c 128,-1,66
 1006 704 1006 704 1005.5 699.5 c 128,-1,67
 1005 695 1005 695 1005 686 c 128,-1,68
 1005 677 1005 677 1004.5 659.5 c 128,-1,69
 1004 642 1004 642 1004 611.5 c 128,-1,70
 1004 581 1004 581 1004 532 c 0,71,72
 1004 479 1004 479 1019 455 c 128,-1,73
 1034 431 1034 431 1075 418 c 1,74,-1
 1075 385 l 1,75,-1
 858 344 l 2,0,1
EndSplineSet
EndChar

StartChar: uni1238
Encoding: 4664 4664 67
Width: 1311
GlyphClass: 2
Flags: W
AnchorPoint: "Anchor-0" 625 1480 basechar 0
LayerCount: 2
Fore
SplineSet
1280 1274 m 1,0,1
 1218 1240 1218 1240 1172 1226 c 128,-1,2
 1126 1212 1126 1212 1081 1212 c 0,3,4
 1054 1212 1054 1212 1027 1220.5 c 128,-1,5
 1000 1229 1000 1229 977.5 1243.5 c 128,-1,6
 955 1258 955 1258 938.5 1277 c 128,-1,7
 922 1296 922 1296 915 1317 c 1,8,9
 896 1315 896 1315 872 1312 c 0,10,11
 852 1310 852 1310 824.5 1306 c 128,-1,12
 797 1302 797 1302 764 1298 c 1,13,-1
 764 1049 l 1,14,15
 827 1034 827 1034 865 1008 c 128,-1,16
 903 982 903 982 923 947.5 c 128,-1,17
 943 913 943 913 949.5 869 c 128,-1,18
 956 825 956 825 956 774 c 0,19,20
 956 732 956 732 955 680 c 128,-1,21
 954 628 954 628 952 572.5 c 128,-1,22
 950 517 950 517 948 461.5 c 128,-1,23
 946 406 946 406 944 357 c 128,-1,24
 942 308 942 308 941 268.5 c 128,-1,25
 940 229 940 229 940 207 c 0,26,27
 940 153 940 153 950 122 c 128,-1,28
 960 91 960 91 997 80 c 1,29,-1
 997 47 l 1,30,-1
 805 16 l 2,31,32
 797 14 797 14 790 14 c 128,-1,33
 783 14 783 14 776 14 c 0,34,35
 746 14 746 14 726.5 25 c 128,-1,36
 707 36 707 36 696 55.5 c 128,-1,37
 685 75 685 75 680.5 101.5 c 128,-1,38
 676 128 676 128 676 160 c 0,39,40
 676 199 676 199 677.5 262 c 128,-1,41
 679 325 679 325 681 399 c 128,-1,42
 683 473 683 473 686 551.5 c 128,-1,43
 689 630 689 630 691 700 c 128,-1,44
 693 770 693 770 694.5 825 c 128,-1,45
 696 880 696 880 696 907 c 0,46,47
 696 955 696 955 676.5 975 c 128,-1,48
 657 995 657 995 625 995 c 0,49,50
 600 995 600 995 575.5 986.5 c 128,-1,51
 551 978 551 978 528 955 c 128,-1,52
 505 932 505 932 485.5 891.5 c 128,-1,53
 466 851 466 851 451.5 787 c 128,-1,54
 437 723 437 723 428.5 633 c 128,-1,55
 420 543 420 543 420 420 c 0,56,57
 420 335 420 335 420.5 276 c 128,-1,58
 421 217 421 217 422 178 c 128,-1,59
 423 139 423 139 425.5 117 c 128,-1,60
 428 95 428 95 432 83.5 c 128,-1,61
 436 72 436 72 441.5 67.5 c 128,-1,62
 447 63 447 63 455 59 c 1,63,-1
 455 33 l 1,64,-1
 301 4 l 2,65,66
 282 0 282 0 264 0 c 0,67,68
 224 0 224 0 201 25.5 c 128,-1,69
 178 51 178 51 167 110 c 128,-1,70
 156 169 156 169 153 266.5 c 128,-1,71
 150 364 150 364 150 508 c 0,72,73
 150 583 150 583 156 634.5 c 128,-1,74
 162 686 162 686 174 725 c 128,-1,75
 186 764 186 764 204.5 795 c 128,-1,76
 223 826 223 826 248 860 c 0,77,78
 288 914 288 914 350.5 961.5 c 128,-1,79
 413 1009 413 1009 508 1038 c 1,80,-1
 508 1268 l 1,81,82
 477 1265 477 1265 449 1262 c 128,-1,83
 421 1259 421 1259 395 1255 c 1,84,85
 383 1184 383 1184 315 1139 c 128,-1,86
 247 1094 247 1094 121 1094 c 0,87,88
 95 1094 95 1094 76.5 1096 c 128,-1,89
 58 1098 58 1098 46 1101 c 0,90,91
 32 1104 32 1104 23 1108 c 1,92,93
 55 1137 55 1137 69.5 1173.5 c 128,-1,94
 84 1210 84 1210 84 1247 c 0,95,96
 84 1271 84 1271 81 1289 c 128,-1,97
 78 1307 78 1307 70.5 1322.5 c 128,-1,98
 63 1338 63 1338 51.5 1352.5 c 128,-1,99
 40 1367 40 1367 23 1384 c 1,100,101
 38 1395 38 1395 61 1403.5 c 128,-1,102
 84 1412 84 1412 110 1418 c 128,-1,103
 136 1424 136 1424 162.5 1427 c 128,-1,104
 189 1430 189 1430 211 1430 c 0,105,106
 267 1430 267 1430 313 1403.5 c 128,-1,107
 359 1377 359 1377 385 1327 c 1,108,109
 479 1339 479 1339 571 1350 c 0,110,111
 610 1355 610 1355 653 1360 c 128,-1,112
 696 1365 696 1365 739 1370 c 128,-1,113
 782 1375 782 1375 823.5 1380 c 128,-1,114
 865 1385 865 1385 901 1389 c 1,115,116
 907 1424 907 1424 926 1454 c 128,-1,117
 945 1484 945 1484 979 1505.5 c 128,-1,118
 1013 1527 1013 1527 1064 1539.5 c 128,-1,119
 1115 1552 1115 1552 1186 1552 c 0,120,121
 1197 1552 1197 1552 1207 1549.5 c 128,-1,122
 1217 1547 1217 1547 1225 1545 c 0,123,124
 1235 1541 1235 1541 1243 1538 c 1,125,126
 1208 1455 1208 1455 1208 1411 c 0,127,128
 1208 1387 1208 1387 1213 1369 c 128,-1,129
 1218 1351 1218 1351 1227 1335.5 c 128,-1,130
 1236 1320 1236 1320 1249.5 1305.5 c 128,-1,131
 1263 1291 1263 1291 1280 1274 c 1,0,1
EndSplineSet
PairPos2: "'kern' Horizontal Kerning in Ethiopic lookup 1 subtable" uni1218 dx=0 dy=0 dh=0 dv=0 dx=-113 dy=0 dh=0 dv=0
EndChar

StartChar: uni1239
Encoding: 4665 4665 68
Width: 1569
GlyphClass: 2
Flags: W
AnchorPoint: "Anchor-0" 685 1508 basechar 0
LayerCount: 2
Fore
SplineSet
1518 580 m 1,0,1
 1511 569 1511 569 1491 560 c 128,-1,2
 1471 551 1471 551 1445.5 544.5 c 128,-1,3
 1420 538 1420 538 1392 534 c 128,-1,4
 1364 530 1364 530 1341 530 c 2,5,-1
 1333 530 l 2,6,7
 1298 531 1298 531 1266 538.5 c 128,-1,8
 1234 546 1234 546 1208.5 561.5 c 128,-1,9
 1183 577 1183 577 1165.5 599.5 c 128,-1,10
 1148 622 1148 622 1143 653 c 1,11,-1
 999 643 l 1,12,13
 994 580 994 580 988 510.5 c 128,-1,14
 982 441 982 441 977.5 378 c 128,-1,15
 973 315 973 315 970 265.5 c 128,-1,16
 967 216 967 216 967 193 c 0,17,18
 967 166 967 166 969 148 c 128,-1,19
 971 130 971 130 977 118.5 c 128,-1,20
 983 107 983 107 994.5 100 c 128,-1,21
 1006 93 1006 93 1024 88 c 1,22,-1
 1024 55 l 1,23,-1
 831 43 l 2,24,25
 808 41 808 41 789.5 40 c 128,-1,26
 771 39 771 39 756 39 c 0,27,28
 734 39 734 39 720 42.5 c 128,-1,29
 706 46 706 46 698 55.5 c 128,-1,30
 690 65 690 65 687 82 c 128,-1,31
 684 99 684 99 684 125 c 0,32,33
 684 136 684 136 686.5 169.5 c 128,-1,34
 689 203 689 203 692.5 252 c 128,-1,35
 696 301 696 301 701 360.5 c 128,-1,36
 706 420 706 420 711.5 483.5 c 128,-1,37
 717 547 717 547 722 609 c 128,-1,38
 727 671 727 671 730.5 725 c 128,-1,39
 734 779 734 779 736.5 820 c 128,-1,40
 739 861 739 861 739 881 c 0,41,42
 739 916 739 916 731.5 943 c 128,-1,43
 724 970 724 970 712 988 c 128,-1,44
 700 1006 700 1006 684.5 1015 c 128,-1,45
 669 1024 669 1024 653 1024 c 0,46,47
 537 1024 537 1024 473.5 838.5 c 128,-1,48
 410 653 410 653 410 285 c 0,49,50
 410 224 410 224 413.5 188 c 128,-1,51
 417 152 417 152 425.5 129.5 c 128,-1,52
 434 107 434 107 448.5 93 c 128,-1,53
 463 79 463 79 485 63 c 1,54,-1
 485 37 l 1,55,-1
 332 8 l 2,56,57
 312 4 312 4 294.5 2 c 128,-1,58
 277 0 277 0 261 0 c 0,59,60
 227 0 227 0 204 14 c 128,-1,61
 181 28 181 28 166.5 65.5 c 128,-1,62
 152 103 152 103 145.5 169 c 128,-1,63
 139 235 139 235 139 338 c 0,64,65
 139 447 139 447 150.5 531.5 c 128,-1,66
 162 616 162 616 181 680.5 c 128,-1,67
 200 745 200 745 224 791.5 c 128,-1,68
 248 838 248 838 273 871 c 0,69,70
 293 898 293 898 323 930 c 128,-1,71
 353 962 353 962 389 991 c 128,-1,72
 425 1020 425 1020 464 1043 c 128,-1,73
 503 1066 503 1066 541 1077 c 1,74,-1
 550 1311 l 1,75,76
 519 1308 519 1308 483.5 1303.5 c 128,-1,77
 448 1299 448 1299 422 1296 c 1,78,79
 412 1262 412 1262 389 1232.5 c 128,-1,80
 366 1203 366 1203 329.5 1181.5 c 128,-1,81
 293 1160 293 1160 243.5 1147.5 c 128,-1,82
 194 1135 194 1135 131 1135 c 0,83,84
 78 1135 78 1135 53 1138 c 0,85,86
 37 1139 37 1139 27 1141 c 1,87,88
 59 1170 59 1170 72.5 1209.5 c 128,-1,89
 86 1249 86 1249 86 1286 c 0,90,91
 86 1310 86 1310 84 1328.5 c 128,-1,92
 82 1347 82 1347 76.5 1362.5 c 128,-1,93
 71 1378 71 1378 60.5 1393 c 128,-1,94
 50 1408 50 1408 33 1425 c 1,95,96
 48 1436 48 1436 71 1444.5 c 128,-1,97
 94 1453 94 1453 120 1458.5 c 128,-1,98
 146 1464 146 1464 172.5 1467 c 128,-1,99
 199 1470 199 1470 221 1470 c 0,100,101
 266 1470 266 1470 296.5 1464 c 128,-1,102
 327 1458 327 1458 349.5 1446 c 128,-1,103
 372 1434 372 1434 387.5 1415 c 128,-1,104
 403 1396 403 1396 418 1370 c 1,105,106
 513 1382 513 1382 607 1393 c 0,107,108
 647 1398 647 1398 690.5 1403 c 128,-1,109
 734 1408 734 1408 777.5 1413 c 128,-1,110
 821 1418 821 1418 862.5 1423 c 128,-1,111
 904 1428 904 1428 940 1432 c 1,112,113
 952 1460 952 1460 973.5 1483 c 128,-1,114
 995 1506 995 1506 1027.5 1522 c 128,-1,115
 1060 1538 1060 1538 1105 1547 c 128,-1,116
 1150 1556 1150 1556 1210 1556 c 0,117,118
 1224 1556 1224 1556 1239.5 1554 c 128,-1,119
 1255 1552 1255 1552 1269 1550 c 0,120,121
 1285 1547 1285 1547 1300 1544 c 1,122,123
 1288 1523 1288 1523 1284 1495.5 c 128,-1,124
 1280 1468 1280 1468 1280 1446 c 0,125,126
 1280 1422 1280 1422 1280.5 1403.5 c 128,-1,127
 1281 1385 1281 1385 1285.5 1368.5 c 128,-1,128
 1290 1352 1290 1352 1299 1337 c 128,-1,129
 1308 1322 1308 1322 1325 1305 c 1,130,131
 1262 1276 1262 1276 1208 1265.5 c 128,-1,132
 1154 1255 1154 1255 1126 1255 c 0,133,134
 1057 1255 1057 1255 1014 1276.5 c 128,-1,135
 971 1298 971 1298 946 1358 c 1,136,137
 938 1357 938 1357 922 1355 c 0,138,139
 908 1353 908 1353 886 1350 c 128,-1,140
 864 1347 864 1347 831 1343 c 1,141,-1
 817 1094 l 1,142,143
 920 1063 920 1063 965 993.5 c 128,-1,144
 1010 924 1010 924 1010 821 c 0,145,146
 1010 806 1010 806 1008.5 778 c 128,-1,147
 1007 750 1007 750 1004 715 c 1,148,-1
 1135 725 l 1,149,150
 1148 750 1148 750 1168 770.5 c 128,-1,151
 1188 791 1188 791 1219 805.5 c 128,-1,152
 1250 820 1250 820 1293.5 828 c 128,-1,153
 1337 836 1337 836 1397 836 c 0,154,155
 1418 836 1418 836 1435 833 c 128,-1,156
 1452 830 1452 830 1463 827 c 0,157,158
 1476 823 1476 823 1487 819 c 1,159,160
 1474 795 1474 795 1466.5 780 c 128,-1,161
 1459 765 1459 765 1455.5 754 c 128,-1,162
 1452 743 1452 743 1451 734 c 128,-1,163
 1450 725 1450 725 1450 715 c 0,164,165
 1450 691 1450 691 1453 673.5 c 128,-1,166
 1456 656 1456 656 1463.5 641 c 128,-1,167
 1471 626 1471 626 1484.5 612 c 128,-1,168
 1498 598 1498 598 1518 580 c 1,0,1
EndSplineSet
EndChar

StartChar: uni123A
Encoding: 4666 4666 69
Width: 1569
GlyphClass: 2
Flags: W
AnchorPoint: "Anchor-0" 678 1505 basechar 0
LayerCount: 2
Fore
SplineSet
1489 -55 m 1,0,1
 1456 -69 1456 -69 1430.5 -77 c 128,-1,2
 1405 -85 1405 -85 1383 -88.5 c 128,-1,3
 1361 -92 1361 -92 1340.5 -93 c 128,-1,4
 1320 -94 1320 -94 1298 -94 c 0,5,6
 1260 -94 1260 -94 1231.5 -89.5 c 128,-1,7
 1203 -85 1203 -85 1181.5 -70.5 c 128,-1,8
 1160 -56 1160 -56 1146 -29.5 c 128,-1,9
 1132 -3 1132 -3 1124 41 c 1,10,-1
 852 16 l 2,11,12
 827 14 827 14 806 12.5 c 128,-1,13
 785 11 785 11 768 11 c 0,14,15
 724 11 724 11 704 27.5 c 128,-1,16
 684 44 684 44 684 94 c 0,17,18
 684 105 684 105 686.5 140 c 128,-1,19
 689 175 689 175 692.5 226 c 128,-1,20
 696 277 696 277 701 339.5 c 128,-1,21
 706 402 706 402 711.5 468 c 128,-1,22
 717 534 717 534 722 599 c 128,-1,23
 727 664 727 664 730.5 720 c 128,-1,24
 734 776 734 776 736.5 818.5 c 128,-1,25
 739 861 739 861 739 881 c 0,26,27
 739 916 739 916 731.5 943 c 128,-1,28
 724 970 724 970 712 988 c 128,-1,29
 700 1006 700 1006 684.5 1015 c 128,-1,30
 669 1024 669 1024 653 1024 c 0,31,32
 537 1024 537 1024 473.5 838.5 c 128,-1,33
 410 653 410 653 410 285 c 0,34,35
 410 224 410 224 413.5 188 c 128,-1,36
 417 152 417 152 425.5 129.5 c 128,-1,37
 434 107 434 107 448.5 93 c 128,-1,38
 463 79 463 79 485 63 c 1,39,-1
 485 37 l 1,40,-1
 332 8 l 2,41,42
 312 4 312 4 294.5 2 c 128,-1,43
 277 0 277 0 261 0 c 0,44,45
 227 0 227 0 204 14 c 128,-1,46
 181 28 181 28 166.5 65.5 c 128,-1,47
 152 103 152 103 145.5 169 c 128,-1,48
 139 235 139 235 139 338 c 0,49,50
 139 447 139 447 150.5 531.5 c 128,-1,51
 162 616 162 616 181 680.5 c 128,-1,52
 200 745 200 745 224 791.5 c 128,-1,53
 248 838 248 838 273 871 c 0,54,55
 293 898 293 898 323 930 c 128,-1,56
 353 962 353 962 389 991 c 128,-1,57
 425 1020 425 1020 464 1043 c 128,-1,58
 503 1066 503 1066 541 1077 c 1,59,-1
 550 1311 l 1,60,61
 519 1308 519 1308 483.5 1303.5 c 128,-1,62
 448 1299 448 1299 422 1296 c 1,63,64
 412 1262 412 1262 389 1232.5 c 128,-1,65
 366 1203 366 1203 329.5 1181.5 c 128,-1,66
 293 1160 293 1160 243.5 1147.5 c 128,-1,67
 194 1135 194 1135 131 1135 c 0,68,69
 78 1135 78 1135 53 1138 c 0,70,71
 37 1139 37 1139 27 1141 c 1,72,73
 59 1170 59 1170 72.5 1209.5 c 128,-1,74
 86 1249 86 1249 86 1286 c 0,75,76
 86 1310 86 1310 84 1328.5 c 128,-1,77
 82 1347 82 1347 76.5 1362.5 c 128,-1,78
 71 1378 71 1378 60.5 1393 c 128,-1,79
 50 1408 50 1408 33 1425 c 1,80,81
 48 1436 48 1436 71 1444.5 c 128,-1,82
 94 1453 94 1453 120 1458.5 c 128,-1,83
 146 1464 146 1464 172.5 1467 c 128,-1,84
 199 1470 199 1470 221 1470 c 0,85,86
 266 1470 266 1470 296.5 1464 c 128,-1,87
 327 1458 327 1458 349.5 1446 c 128,-1,88
 372 1434 372 1434 387.5 1415 c 128,-1,89
 403 1396 403 1396 418 1370 c 1,90,91
 513 1382 513 1382 607 1393 c 0,92,93
 647 1398 647 1398 690.5 1403 c 128,-1,94
 734 1408 734 1408 777.5 1413 c 128,-1,95
 821 1418 821 1418 862.5 1423 c 128,-1,96
 904 1428 904 1428 940 1432 c 1,97,98
 952 1460 952 1460 973.5 1483 c 128,-1,99
 995 1506 995 1506 1027.5 1522 c 128,-1,100
 1060 1538 1060 1538 1105 1547 c 128,-1,101
 1150 1556 1150 1556 1210 1556 c 0,102,103
 1224 1556 1224 1556 1239.5 1554 c 128,-1,104
 1255 1552 1255 1552 1269 1550 c 0,105,106
 1285 1547 1285 1547 1300 1544 c 1,107,108
 1288 1523 1288 1523 1284 1495.5 c 128,-1,109
 1280 1468 1280 1468 1280 1446 c 0,110,111
 1280 1422 1280 1422 1280.5 1403.5 c 128,-1,112
 1281 1385 1281 1385 1285.5 1368.5 c 128,-1,113
 1290 1352 1290 1352 1299 1337 c 128,-1,114
 1308 1322 1308 1322 1325 1305 c 1,115,116
 1262 1276 1262 1276 1208 1265.5 c 128,-1,117
 1154 1255 1154 1255 1126 1255 c 0,118,119
 1057 1255 1057 1255 1014 1276.5 c 128,-1,120
 971 1298 971 1298 946 1358 c 1,121,122
 938 1357 938 1357 922 1355 c 0,123,124
 908 1353 908 1353 886 1350 c 128,-1,125
 864 1347 864 1347 831 1343 c 1,126,-1
 817 1094 l 1,127,128
 868 1079 868 1079 905 1050 c 128,-1,129
 942 1021 942 1021 965 984.5 c 128,-1,130
 988 948 988 948 999 905.5 c 128,-1,131
 1010 863 1010 863 1010 821 c 0,132,133
 1010 796 1010 796 1006 742 c 128,-1,134
 1002 688 1002 688 995.5 619.5 c 128,-1,135
 989 551 989 551 982 476.5 c 128,-1,136
 975 402 975 402 968.5 336.5 c 128,-1,137
 962 271 962 271 958 223 c 128,-1,138
 954 175 954 175 954 160 c 2,139,-1
 954 149 l 2,140,141
 954 139 954 139 955 131 c 128,-1,142
 956 123 956 123 961.5 117.5 c 128,-1,143
 967 112 967 112 979 109 c 128,-1,144
 991 106 991 106 1012 106 c 0,145,146
 1032 106 1032 106 1060 109 c 128,-1,147
 1088 112 1088 112 1130 117 c 1,148,149
 1141 141 1141 141 1165.5 162 c 128,-1,150
 1190 183 1190 183 1224 198.5 c 128,-1,151
 1258 214 1258 214 1299.5 222.5 c 128,-1,152
 1341 231 1341 231 1386 231 c 0,153,154
 1403 231 1403 231 1418 229.5 c 128,-1,155
 1433 228 1433 228 1444 226 c 0,156,157
 1457 223 1457 223 1468 221 c 1,158,159
 1450 178 1450 178 1442 147 c 128,-1,160
 1434 116 1434 116 1434 94 c 0,161,162
 1434 70 1434 70 1437 51 c 128,-1,163
 1440 32 1440 32 1447 14.5 c 128,-1,164
 1454 -3 1454 -3 1464 -20 c 128,-1,165
 1474 -37 1474 -37 1489 -55 c 1,0,1
EndSplineSet
PairPos2: "'kern' Horizontal Kerning in Ethiopic lookup 1 subtable" uni12D2 dx=0 dy=0 dh=0 dv=0 dx=-167 dy=0 dh=0 dv=0
EndChar

StartChar: uni123B
Encoding: 4667 4667 70
Width: 1325
GlyphClass: 2
Flags: W
AnchorPoint: "Anchor-0" 685 1501 basechar 0
LayerCount: 2
Fore
SplineSet
1300 1305 m 1,0,1
 1277 1293 1277 1293 1249.5 1283.5 c 128,-1,2
 1222 1274 1222 1274 1196 1267.5 c 128,-1,3
 1170 1261 1170 1261 1147 1258 c 128,-1,4
 1124 1255 1124 1255 1110 1255 c 0,5,6
 1041 1255 1041 1255 998 1276.5 c 128,-1,7
 955 1298 955 1298 930 1358 c 1,8,9
 921 1357 921 1357 905 1355 c 0,10,11
 891 1353 891 1353 869.5 1350 c 128,-1,12
 848 1347 848 1347 815 1343 c 1,13,-1
 801 1094 l 1,14,15
 852 1079 852 1079 887.5 1055.5 c 128,-1,16
 923 1032 923 1032 945 998.5 c 128,-1,17
 967 965 967 965 977 920.5 c 128,-1,18
 987 876 987 876 987 819 c 0,19,20
 987 788 987 788 983.5 731.5 c 128,-1,21
 980 675 980 675 975 607 c 128,-1,22
 970 539 970 539 964.5 467.5 c 128,-1,23
 959 396 959 396 954 333.5 c 128,-1,24
 949 271 949 271 945.5 225 c 128,-1,25
 942 179 942 179 942 164 c 0,26,27
 942 110 942 110 958.5 85 c 128,-1,28
 975 60 975 60 1012 49 c 1,29,-1
 1012 16 l 1,30,-1
 819 4 l 2,31,32
 801 3 801 3 786 2.5 c 128,-1,33
 771 2 771 2 759 2 c 0,34,35
 730 2 730 2 714 6 c 128,-1,36
 698 10 698 10 690 19.5 c 128,-1,37
 682 29 682 29 680 45 c 128,-1,38
 678 61 678 61 678 86 c 0,39,40
 678 109 678 109 680 151 c 128,-1,41
 682 193 682 193 685.5 246.5 c 128,-1,42
 689 300 689 300 693.5 361.5 c 128,-1,43
 698 423 698 423 702.5 486 c 128,-1,44
 707 549 707 549 711.5 610 c 128,-1,45
 716 671 716 671 719.5 723 c 128,-1,46
 723 775 723 775 725 814.5 c 128,-1,47
 727 854 727 854 727 874 c 0,48,49
 727 910 727 910 722 940 c 128,-1,50
 717 970 717 970 706 991.5 c 128,-1,51
 695 1013 695 1013 678 1025.5 c 128,-1,52
 661 1038 661 1038 637 1038 c 0,53,54
 602 1038 602 1038 573 1018.5 c 128,-1,55
 544 999 544 999 520 966 c 128,-1,56
 496 933 496 933 478 888.5 c 128,-1,57
 460 844 460 844 448 794.5 c 128,-1,58
 436 745 436 745 430 693 c 128,-1,59
 424 641 424 641 424 592 c 0,60,61
 424 508 424 508 438 462.5 c 128,-1,62
 452 417 452 417 487 401 c 1,63,-1
 487 375 l 1,64,-1
 334 346 l 2,65,66
 321 344 321 344 310 342.5 c 128,-1,67
 299 341 299 341 288 341 c 0,68,69
 249 341 249 341 224.5 356.5 c 128,-1,70
 200 372 200 372 186 400 c 128,-1,71
 172 428 172 428 167 466.5 c 128,-1,72
 162 505 162 505 162 551 c 0,73,74
 162 596 162 596 171.5 643 c 128,-1,75
 181 690 181 690 197.5 736 c 128,-1,76
 214 782 214 782 236 823.5 c 128,-1,77
 258 865 258 865 283 899 c 0,78,79
 303 926 303 926 329.5 954 c 128,-1,80
 356 982 356 982 388 1006 c 128,-1,81
 420 1030 420 1030 456.5 1049 c 128,-1,82
 493 1068 493 1068 532 1077 c 1,83,-1
 547 1311 l 1,84,85
 516 1308 516 1308 482 1303.5 c 128,-1,86
 448 1299 448 1299 422 1296 c 1,87,88
 412 1262 412 1262 389 1232.5 c 128,-1,89
 366 1203 366 1203 329.5 1181.5 c 128,-1,90
 293 1160 293 1160 243.5 1147.5 c 128,-1,91
 194 1135 194 1135 131 1135 c 0,92,93
 78 1135 78 1135 53 1138 c 0,94,95
 37 1139 37 1139 27 1141 c 1,96,97
 59 1170 59 1170 72.5 1209.5 c 128,-1,98
 86 1249 86 1249 86 1286 c 0,99,100
 86 1310 86 1310 84 1328.5 c 128,-1,101
 82 1347 82 1347 76.5 1362.5 c 128,-1,102
 71 1378 71 1378 60.5 1393 c 128,-1,103
 50 1408 50 1408 33 1425 c 1,104,105
 48 1436 48 1436 71 1444.5 c 128,-1,106
 94 1453 94 1453 120 1458.5 c 128,-1,107
 146 1464 146 1464 172.5 1467 c 128,-1,108
 199 1470 199 1470 221 1470 c 0,109,110
 266 1470 266 1470 296.5 1464 c 128,-1,111
 327 1458 327 1458 349.5 1446 c 128,-1,112
 372 1434 372 1434 387.5 1415 c 128,-1,113
 403 1396 403 1396 418 1370 c 1,114,115
 509 1382 509 1382 599 1393 c 0,116,117
 637 1398 637 1398 679 1403 c 128,-1,118
 721 1408 721 1408 763.5 1413 c 128,-1,119
 806 1418 806 1418 847 1423 c 128,-1,120
 888 1428 888 1428 924 1432 c 1,121,122
 936 1460 936 1460 957 1483 c 128,-1,123
 978 1506 978 1506 1011 1522 c 128,-1,124
 1044 1538 1044 1538 1089 1547 c 128,-1,125
 1134 1556 1134 1556 1194 1556 c 0,126,127
 1205 1556 1205 1556 1219.5 1553.5 c 128,-1,128
 1234 1551 1234 1551 1246 1548 c 0,129,130
 1260 1544 1260 1544 1274 1540 c 1,131,132
 1261 1518 1261 1518 1258 1489.5 c 128,-1,133
 1255 1461 1255 1461 1255 1440 c 0,134,135
 1255 1392 1255 1392 1264 1359 c 128,-1,136
 1273 1326 1273 1326 1300 1305 c 1,0,1
EndSplineSet
EndChar

StartChar: uni123C
Encoding: 4668 4668 71
Width: 1487
GlyphClass: 2
Flags: W
AnchorPoint: "Anchor-0" 692 1508 basechar 0
LayerCount: 2
Fore
SplineSet
1405 248 m 0,0,1
 1405 192 1405 192 1382.5 152 c 128,-1,2
 1360 112 1360 112 1322 87 c 128,-1,3
 1284 62 1284 62 1233.5 50.5 c 128,-1,4
 1183 39 1183 39 1128 39 c 2,5,-1
 1024 39 l 2,6,7
 1003 39 1003 39 977 35 c 128,-1,8
 951 31 951 31 920.5 25.5 c 128,-1,9
 890 20 890 20 855.5 16 c 128,-1,10
 821 12 821 12 784 12 c 0,11,12
 760 12 760 12 741.5 13.5 c 128,-1,13
 723 15 723 15 710.5 22 c 128,-1,14
 698 29 698 29 692 42.5 c 128,-1,15
 686 56 686 56 686 80 c 0,16,17
 686 91 686 91 688.5 126.5 c 128,-1,18
 691 162 691 162 694.5 214 c 128,-1,19
 698 266 698 266 703 330 c 128,-1,20
 708 394 708 394 712.5 461 c 128,-1,21
 717 528 717 528 722 594.5 c 128,-1,22
 727 661 727 661 730.5 718 c 128,-1,23
 734 775 734 775 736.5 818 c 128,-1,24
 739 861 739 861 739 881 c 0,25,26
 739 916 739 916 731.5 945 c 128,-1,27
 724 974 724 974 712 994.5 c 128,-1,28
 700 1015 700 1015 684.5 1026.5 c 128,-1,29
 669 1038 669 1038 653 1038 c 0,30,31
 537 1038 537 1038 473.5 845.5 c 128,-1,32
 410 653 410 653 410 285 c 0,33,34
 410 224 410 224 413.5 188 c 128,-1,35
 417 152 417 152 425.5 129.5 c 128,-1,36
 434 107 434 107 448.5 93 c 128,-1,37
 463 79 463 79 485 63 c 1,38,-1
 485 37 l 1,39,-1
 332 8 l 2,40,41
 312 4 312 4 294.5 2 c 128,-1,42
 277 0 277 0 261 0 c 0,43,44
 227 0 227 0 204 14 c 128,-1,45
 181 28 181 28 166.5 65.5 c 128,-1,46
 152 103 152 103 145.5 169 c 128,-1,47
 139 235 139 235 139 338 c 0,48,49
 139 447 139 447 150.5 531.5 c 128,-1,50
 162 616 162 616 181 680.5 c 128,-1,51
 200 745 200 745 224 791.5 c 128,-1,52
 248 838 248 838 273 871 c 0,53,54
 293 898 293 898 323 930 c 128,-1,55
 353 962 353 962 389 991 c 128,-1,56
 425 1020 425 1020 464 1043 c 128,-1,57
 503 1066 503 1066 541 1077 c 1,58,-1
 541 1311 l 1,59,60
 510 1308 510 1308 479 1303.5 c 128,-1,61
 448 1299 448 1299 422 1296 c 1,62,63
 412 1262 412 1262 389 1232.5 c 128,-1,64
 366 1203 366 1203 329.5 1181.5 c 128,-1,65
 293 1160 293 1160 243.5 1147.5 c 128,-1,66
 194 1135 194 1135 131 1135 c 0,67,68
 78 1135 78 1135 53 1138 c 0,69,70
 37 1139 37 1139 27 1141 c 1,71,72
 59 1170 59 1170 72.5 1209.5 c 128,-1,73
 86 1249 86 1249 86 1286 c 0,74,75
 86 1310 86 1310 84 1328.5 c 128,-1,76
 82 1347 82 1347 76.5 1362.5 c 128,-1,77
 71 1378 71 1378 60.5 1393 c 128,-1,78
 50 1408 50 1408 33 1425 c 1,79,80
 48 1436 48 1436 71 1444.5 c 128,-1,81
 94 1453 94 1453 120 1458.5 c 128,-1,82
 146 1464 146 1464 172.5 1467 c 128,-1,83
 199 1470 199 1470 221 1470 c 0,84,85
 266 1470 266 1470 296.5 1464 c 128,-1,86
 327 1458 327 1458 349.5 1446 c 128,-1,87
 372 1434 372 1434 387.5 1415 c 128,-1,88
 403 1396 403 1396 418 1370 c 1,89,90
 513 1382 513 1382 607 1393 c 0,91,92
 647 1398 647 1398 690.5 1403 c 128,-1,93
 734 1408 734 1408 777.5 1413 c 128,-1,94
 821 1418 821 1418 862.5 1423 c 128,-1,95
 904 1428 904 1428 940 1432 c 1,96,97
 952 1460 952 1460 973.5 1483 c 128,-1,98
 995 1506 995 1506 1027.5 1522 c 128,-1,99
 1060 1538 1060 1538 1105 1547 c 128,-1,100
 1150 1556 1150 1556 1210 1556 c 0,101,102
 1224 1556 1224 1556 1239.5 1554 c 128,-1,103
 1255 1552 1255 1552 1269 1550 c 0,104,105
 1285 1547 1285 1547 1300 1544 c 1,106,107
 1288 1523 1288 1523 1284 1495.5 c 128,-1,108
 1280 1468 1280 1468 1280 1446 c 0,109,110
 1280 1422 1280 1422 1280.5 1403.5 c 128,-1,111
 1281 1385 1281 1385 1285.5 1368.5 c 128,-1,112
 1290 1352 1290 1352 1299 1337 c 128,-1,113
 1308 1322 1308 1322 1325 1305 c 1,114,115
 1262 1276 1262 1276 1208 1265.5 c 128,-1,116
 1154 1255 1154 1255 1126 1255 c 0,117,118
 1057 1255 1057 1255 1014 1276.5 c 128,-1,119
 971 1298 971 1298 946 1358 c 1,120,121
 933 1357 933 1357 915 1355 c 0,122,123
 899 1353 899 1353 874.5 1350 c 128,-1,124
 850 1347 850 1347 817 1343 c 1,125,-1
 817 1094 l 1,126,127
 868 1079 868 1079 905 1057 c 128,-1,128
 942 1035 942 1035 965 1003 c 128,-1,129
 988 971 988 971 999 926.5 c 128,-1,130
 1010 882 1010 882 1010 821 c 0,131,132
 1010 789 1010 789 1008 747.5 c 128,-1,133
 1006 706 1006 706 1002.5 661.5 c 128,-1,134
 999 617 999 617 995 573 c 128,-1,135
 991 529 991 529 987.5 492.5 c 128,-1,136
 984 456 984 456 981.5 430.5 c 128,-1,137
 979 405 979 405 979 397 c 1,138,139
 999 398 999 398 1026 402 c 128,-1,140
 1053 406 1053 406 1084 410.5 c 128,-1,141
 1115 415 1115 415 1149 418.5 c 128,-1,142
 1183 422 1183 422 1217 422 c 0,143,144
 1312 422 1312 422 1358.5 380 c 128,-1,145
 1405 338 1405 338 1405 248 c 0,0,1
1133 219 m 0,146,147
 1133 240 1133 240 1130.5 261.5 c 128,-1,148
 1128 283 1128 283 1119.5 300.5 c 128,-1,149
 1111 318 1111 318 1095.5 329 c 128,-1,150
 1080 340 1080 340 1053 340 c 0,151,152
 1030 340 1030 340 1015.5 337 c 128,-1,153
 1001 334 1001 334 979 328 c 1,154,155
 977 307 977 307 975.5 279.5 c 128,-1,156
 974 252 974 252 972 227 c 0,157,158
 970 198 970 198 969 168 c 0,159,160
 969 145 969 145 970 130 c 128,-1,161
 971 115 971 115 976.5 106.5 c 128,-1,162
 982 98 982 98 994 95 c 128,-1,163
 1006 92 1006 92 1028 92 c 0,164,165
 1040 92 1040 92 1058 97.5 c 128,-1,166
 1076 103 1076 103 1092.5 117 c 128,-1,167
 1109 131 1109 131 1121 156 c 128,-1,168
 1133 181 1133 181 1133 219 c 0,146,147
EndSplineSet
EndChar

StartChar: uni123D
Encoding: 4669 4669 72
Width: 1311
GlyphClass: 2
Flags: W
AnchorPoint: "Anchor-0" 582 1501 basechar 0
LayerCount: 2
Fore
SplineSet
1264 1266 m 1,0,1
 1233 1249 1233 1249 1207 1239 c 128,-1,2
 1181 1229 1181 1229 1158 1223.5 c 128,-1,3
 1135 1218 1135 1218 1113 1216 c 128,-1,4
 1091 1214 1091 1214 1069 1214 c 0,5,6
 1041 1214 1041 1214 1011 1221.5 c 128,-1,7
 981 1229 981 1229 955 1242.5 c 128,-1,8
 929 1256 929 1256 909.5 1274 c 128,-1,9
 890 1292 890 1292 883 1313 c 1,10,11
 874 1313 874 1313 858 1311 c 0,12,13
 844 1309 844 1309 822.5 1306.5 c 128,-1,14
 801 1304 801 1304 768 1300 c 1,15,-1
 948 1061 l 1,16,17
 1028 1050 1028 1050 1076 1023 c 128,-1,18
 1124 996 1124 996 1150 958 c 128,-1,19
 1176 920 1176 920 1184 872.5 c 128,-1,20
 1192 825 1192 825 1192 774 c 0,21,22
 1192 732 1192 732 1191 680 c 128,-1,23
 1190 628 1190 628 1188 572.5 c 128,-1,24
 1186 517 1186 517 1184 461.5 c 128,-1,25
 1182 406 1182 406 1180 357 c 128,-1,26
 1178 308 1178 308 1177 268.5 c 128,-1,27
 1176 229 1176 229 1176 207 c 0,28,29
 1176 153 1176 153 1186 122 c 128,-1,30
 1196 91 1196 91 1233 80 c 1,31,-1
 1233 47 l 1,32,-1
 1040 16 l 2,33,34
 1032 14 1032 14 1025 14 c 128,-1,35
 1018 14 1018 14 1011 14 c 0,36,37
 981 14 981 14 961.5 25 c 128,-1,38
 942 36 942 36 931 55.5 c 128,-1,39
 920 75 920 75 915.5 101.5 c 128,-1,40
 911 128 911 128 911 160 c 0,41,42
 911 199 911 199 913 262.5 c 128,-1,43
 915 326 915 326 918 401 c 128,-1,44
 921 476 921 476 924.5 555 c 128,-1,45
 928 634 928 634 931 704.5 c 128,-1,46
 934 775 934 775 936 830.5 c 128,-1,47
 938 886 938 886 938 913 c 0,48,49
 938 961 938 961 915 978 c 128,-1,50
 892 995 892 995 860 995 c 0,51,52
 823 995 823 995 786.5 974 c 128,-1,53
 750 953 750 953 720.5 891.5 c 128,-1,54
 691 830 691 830 673 717 c 128,-1,55
 655 604 655 604 655 420 c 0,56,57
 655 335 655 335 655.5 276 c 128,-1,58
 656 217 656 217 657 178 c 128,-1,59
 658 139 658 139 660.5 117 c 128,-1,60
 663 95 663 95 667 83.5 c 128,-1,61
 671 72 671 72 676.5 67.5 c 128,-1,62
 682 63 682 63 690 59 c 1,63,-1
 690 33 l 1,64,-1
 537 4 l 2,65,66
 524 2 524 2 513 0.5 c 128,-1,67
 502 -1 502 -1 491 -1 c 0,68,69
 453 -1 453 -1 432 21 c 128,-1,70
 411 43 411 43 400.5 100.5 c 128,-1,71
 390 158 390 158 387.5 256.5 c 128,-1,72
 385 355 385 355 385 508 c 0,73,74
 385 631 385 631 407 712.5 c 128,-1,75
 429 794 429 794 469 850 c 256,76,77
 509 906 509 906 558 945.5 c 128,-1,78
 607 985 607 985 676 1008 c 1,79,-1
 479 1257 l 1,80,81
 464 1255 464 1255 452 1253 c 128,-1,82
 440 1251 440 1251 429.5 1249 c 128,-1,83
 419 1247 419 1247 408.5 1244.5 c 128,-1,84
 398 1242 398 1242 385 1241 c 1,85,86
 376 1214 376 1214 355.5 1185.5 c 128,-1,87
 335 1157 335 1157 303.5 1134 c 128,-1,88
 272 1111 272 1111 229.5 1096 c 128,-1,89
 187 1081 187 1081 135 1081 c 0,90,91
 109 1081 109 1081 89 1085 c 128,-1,92
 69 1089 69 1089 54 1094 c 0,93,94
 36 1100 36 1100 23 1108 c 1,95,96
 40 1125 40 1125 49.5 1161.5 c 128,-1,97
 59 1198 59 1198 59 1235 c 0,98,99
 59 1283 59 1283 49.5 1316.5 c 128,-1,100
 40 1350 40 1350 23 1384 c 1,101,102
 46 1394 46 1394 65.5 1401 c 128,-1,103
 85 1408 85 1408 103.5 1412.5 c 128,-1,104
 122 1417 122 1417 141 1419 c 128,-1,105
 160 1421 160 1421 182 1421 c 0,106,107
 224 1421 224 1421 253.5 1414.5 c 128,-1,108
 283 1408 283 1408 305.5 1394.5 c 128,-1,109
 328 1381 328 1381 344 1360 c 128,-1,110
 360 1339 360 1339 375 1311 c 1,111,112
 465 1325 465 1325 554 1337 c 0,113,114
 592 1342 592 1342 633.5 1348 c 128,-1,115
 675 1354 675 1354 717 1359 c 128,-1,116
 759 1364 759 1364 800 1369 c 128,-1,117
 841 1374 841 1374 877 1378 c 1,118,119
 883 1414 883 1414 900 1442.5 c 128,-1,120
 917 1471 917 1471 949.5 1491.5 c 128,-1,121
 982 1512 982 1512 1031 1523 c 128,-1,122
 1080 1534 1080 1534 1151 1534 c 0,123,124
 1162 1534 1162 1534 1175.5 1533.5 c 128,-1,125
 1189 1533 1189 1533 1200 1532 c 0,126,127
 1213 1531 1213 1531 1227 1530 c 1,128,129
 1208 1487 1208 1487 1203 1452.5 c 128,-1,130
 1198 1418 1198 1418 1198 1397 c 0,131,132
 1198 1349 1198 1349 1212 1319 c 128,-1,133
 1226 1289 1226 1289 1264 1266 c 1,0,1
EndSplineSet
EndChar

StartChar: uni123E
Encoding: 4670 4670 73
Width: 1352
GlyphClass: 2
Flags: W
AnchorPoint: "Anchor-0" 689 1519 basechar 0
LayerCount: 2
Fore
SplineSet
1325 1305 m 1,0,1
 1262 1276 1262 1276 1208 1265.5 c 128,-1,2
 1154 1255 1154 1255 1126 1255 c 0,3,4
 1057 1255 1057 1255 1014 1276.5 c 128,-1,5
 971 1298 971 1298 946 1358 c 1,6,7
 938 1357 938 1357 922 1355 c 0,8,9
 908 1353 908 1353 886 1350 c 128,-1,10
 864 1347 864 1347 831 1343 c 1,11,-1
 817 1094 l 1,12,13
 868 1079 868 1079 904 1053 c 128,-1,14
 940 1027 940 1027 962.5 993.5 c 128,-1,15
 985 960 985 960 995.5 920 c 128,-1,16
 1006 880 1006 880 1006 836 c 0,17,18
 1006 813 1006 813 1002 772 c 128,-1,19
 998 731 998 731 992.5 687.5 c 128,-1,20
 987 644 987 644 983 606 c 128,-1,21
 979 568 979 568 979 551 c 0,22,23
 979 526 979 526 981 508.5 c 128,-1,24
 983 491 983 491 989 479 c 128,-1,25
 995 467 995 467 1006.5 459.5 c 128,-1,26
 1018 452 1018 452 1036 446 c 1,27,-1
 1036 414 l 1,28,-1
 864 401 l 2,29,30
 841 399 841 399 822.5 398 c 128,-1,31
 804 397 804 397 789 397 c 0,32,33
 767 397 767 397 753 400.5 c 128,-1,34
 739 404 739 404 731 413.5 c 128,-1,35
 723 423 723 423 720 440 c 128,-1,36
 717 457 717 457 717 483 c 0,37,38
 717 505 717 505 720.5 554.5 c 128,-1,39
 724 604 724 604 728 663 c 128,-1,40
 732 722 732 722 735.5 781 c 128,-1,41
 739 840 739 840 739 881 c 0,42,43
 739 916 739 916 731.5 944.5 c 128,-1,44
 724 973 724 973 711.5 993.5 c 128,-1,45
 699 1014 699 1014 683 1025 c 128,-1,46
 667 1036 667 1036 651 1036 c 0,47,48
 535 1036 535 1036 472.5 844.5 c 128,-1,49
 410 653 410 653 410 285 c 0,50,51
 410 224 410 224 413.5 188 c 128,-1,52
 417 152 417 152 425.5 129.5 c 128,-1,53
 434 107 434 107 448.5 93 c 128,-1,54
 463 79 463 79 485 63 c 1,55,-1
 485 37 l 1,56,-1
 332 8 l 2,57,58
 312 4 312 4 294.5 2 c 128,-1,59
 277 0 277 0 261 0 c 0,60,61
 227 0 227 0 204 14 c 128,-1,62
 181 28 181 28 166.5 65.5 c 128,-1,63
 152 103 152 103 145.5 169 c 128,-1,64
 139 235 139 235 139 338 c 0,65,66
 139 447 139 447 150.5 531.5 c 128,-1,67
 162 616 162 616 181 680.5 c 128,-1,68
 200 745 200 745 224 791.5 c 128,-1,69
 248 838 248 838 272 872 c 0,70,71
 292 899 292 899 322.5 930.5 c 128,-1,72
 353 962 353 962 389 991 c 128,-1,73
 425 1020 425 1020 464 1043 c 128,-1,74
 503 1066 503 1066 541 1077 c 1,75,-1
 547 1311 l 1,76,77
 516 1308 516 1308 482 1303.5 c 128,-1,78
 448 1299 448 1299 422 1296 c 1,79,80
 412 1262 412 1262 389 1232.5 c 128,-1,81
 366 1203 366 1203 329.5 1181.5 c 128,-1,82
 293 1160 293 1160 243.5 1147.5 c 128,-1,83
 194 1135 194 1135 131 1135 c 0,84,85
 78 1135 78 1135 53 1138 c 0,86,87
 37 1139 37 1139 27 1141 c 1,88,89
 59 1170 59 1170 72.5 1209.5 c 128,-1,90
 86 1249 86 1249 86 1286 c 0,91,92
 86 1310 86 1310 84 1328.5 c 128,-1,93
 82 1347 82 1347 76.5 1362.5 c 128,-1,94
 71 1378 71 1378 60.5 1393 c 128,-1,95
 50 1408 50 1408 33 1425 c 1,96,97
 48 1436 48 1436 71 1444.5 c 128,-1,98
 94 1453 94 1453 120 1458.5 c 128,-1,99
 146 1464 146 1464 172.5 1467 c 128,-1,100
 199 1470 199 1470 221 1470 c 0,101,102
 266 1470 266 1470 296.5 1464 c 128,-1,103
 327 1458 327 1458 349.5 1446 c 128,-1,104
 372 1434 372 1434 387.5 1415 c 128,-1,105
 403 1396 403 1396 418 1370 c 1,106,107
 513 1382 513 1382 607 1393 c 0,108,109
 647 1398 647 1398 690.5 1403 c 128,-1,110
 734 1408 734 1408 777.5 1413 c 128,-1,111
 821 1418 821 1418 862.5 1423 c 128,-1,112
 904 1428 904 1428 940 1432 c 1,113,114
 952 1460 952 1460 973.5 1483 c 128,-1,115
 995 1506 995 1506 1027.5 1522 c 128,-1,116
 1060 1538 1060 1538 1105 1547 c 128,-1,117
 1150 1556 1150 1556 1210 1556 c 0,118,119
 1224 1556 1224 1556 1239.5 1554 c 128,-1,120
 1255 1552 1255 1552 1269 1550 c 0,121,122
 1285 1547 1285 1547 1300 1544 c 1,123,124
 1288 1523 1288 1523 1284 1495.5 c 128,-1,125
 1280 1468 1280 1468 1280 1446 c 0,126,127
 1280 1422 1280 1422 1280.5 1403.5 c 128,-1,128
 1281 1385 1281 1385 1285.5 1368.5 c 128,-1,129
 1290 1352 1290 1352 1299 1337 c 128,-1,130
 1308 1322 1308 1322 1325 1305 c 1,0,1
EndSplineSet
EndChar

StartChar: uni12A8
Encoding: 4776 4776 74
Width: 1159
GlyphClass: 2
Flags: W
AnchorPoint: "Anchor-0" 542 1452 basechar 0
LayerCount: 2
Fore
SplineSet
877 10 m 2,0,1
 868 8 868 8 860 8 c 128,-1,2
 852 8 852 8 844 8 c 0,3,4
 793 8 793 8 772.5 35.5 c 128,-1,5
 752 63 752 63 752 125 c 0,6,7
 752 149 752 149 753 195 c 128,-1,8
 754 241 754 241 755.5 297.5 c 128,-1,9
 757 354 757 354 759 416 c 128,-1,10
 761 478 761 478 762.5 535.5 c 128,-1,11
 764 593 764 593 765 640.5 c 128,-1,12
 766 688 766 688 766 715 c 0,13,14
 766 799 766 799 761 851.5 c 128,-1,15
 756 904 756 904 741.5 933.5 c 128,-1,16
 727 963 727 963 701 974 c 128,-1,17
 675 985 675 985 633 985 c 0,18,19
 580 985 580 985 540 962 c 128,-1,20
 500 939 500 939 473.5 874.5 c 128,-1,21
 447 810 447 810 433.5 694.5 c 128,-1,22
 420 579 420 579 420 395 c 0,23,24
 420 289 420 289 421.5 227 c 128,-1,25
 423 165 423 165 430 131 c 128,-1,26
 437 97 437 97 451 83.5 c 128,-1,27
 465 70 465 70 489 61 c 1,28,-1
 489 35 l 1,29,-1
 283 4 l 2,30,31
 265 1 265 1 249 1 c 0,32,33
 228 1 228 1 210 12 c 128,-1,34
 192 23 192 23 178.5 57 c 128,-1,35
 165 91 165 91 157.5 154.5 c 128,-1,36
 150 218 150 218 150 324 c 0,37,38
 150 519 150 519 181 663 c 128,-1,39
 212 807 212 807 291 901 c 1,40,-1
 184 889 l 2,41,42
 175 888 175 888 167.5 887.5 c 128,-1,43
 160 887 160 887 153 887 c 0,44,45
 109 887 109 887 94.5 906 c 128,-1,46
 80 925 80 925 82 958 c 2,47,-1
 94 1249 l 2,48,49
 96 1293 96 1293 85.5 1312 c 128,-1,50
 75 1331 75 1331 55 1337 c 1,51,-1
 55 1362 l 1,52,-1
 291 1415 l 2,53,54
 314 1420 314 1420 329 1420 c 0,55,56
 348 1420 348 1420 360.5 1414.5 c 128,-1,57
 373 1409 373 1409 380.5 1400 c 128,-1,58
 388 1391 388 1391 391.5 1380 c 128,-1,59
 395 1369 395 1369 395 1358 c 2,60,-1
 385 983 l 1,61,62
 513 1065 513 1065 731 1065 c 0,63,64
 795 1065 795 1065 851 1052.5 c 128,-1,65
 907 1040 907 1040 948 1000.5 c 128,-1,66
 989 961 989 961 1012.5 888.5 c 128,-1,67
 1036 816 1036 816 1036 696 c 0,68,69
 1036 633 1036 633 1034 575 c 128,-1,70
 1032 517 1032 517 1029 458 c 128,-1,71
 1026 399 1026 399 1024 336.5 c 128,-1,72
 1022 274 1022 274 1022 201 c 0,73,74
 1022 174 1022 174 1023 154 c 128,-1,75
 1024 134 1024 134 1030.5 119 c 128,-1,76
 1037 104 1037 104 1050.5 93 c 128,-1,77
 1064 82 1064 82 1090 74 c 1,78,-1
 1090 41 l 1,79,-1
 877 10 l 2,0,1
EndSplineSet
EndChar

StartChar: uni12A9
Encoding: 4777 4777 75
Width: 1597
GlyphClass: 2
Flags: W
AnchorPoint: "Anchor-0" 524 1436 basechar 0
LayerCount: 2
Fore
SplineSet
1550 524 m 1,0,1
 1543 513 1543 513 1522 504 c 128,-1,2
 1501 495 1501 495 1473.5 488 c 128,-1,3
 1446 481 1446 481 1417 477.5 c 128,-1,4
 1388 474 1388 474 1366 475 c 0,5,6
 1331 476 1331 476 1299 482.5 c 128,-1,7
 1267 489 1267 489 1241.5 503.5 c 128,-1,8
 1216 518 1216 518 1198.5 539.5 c 128,-1,9
 1181 561 1181 561 1176 592 c 1,10,-1
 1034 571 l 1,11,12
 1032 527 1032 527 1030 484 c 128,-1,13
 1028 441 1028 441 1026.5 396.5 c 128,-1,14
 1025 352 1025 352 1023.5 304 c 128,-1,15
 1022 256 1022 256 1022 201 c 0,16,17
 1022 174 1022 174 1023 154 c 128,-1,18
 1024 134 1024 134 1030.5 119 c 128,-1,19
 1037 104 1037 104 1050.5 93 c 128,-1,20
 1064 82 1064 82 1090 74 c 1,21,-1
 1090 41 l 1,22,-1
 877 10 l 2,23,24
 868 8 868 8 860 8 c 128,-1,25
 852 8 852 8 844 8 c 0,26,27
 793 8 793 8 772.5 35.5 c 128,-1,28
 752 63 752 63 752 125 c 0,29,30
 752 149 752 149 753 195 c 128,-1,31
 754 241 754 241 755.5 297.5 c 128,-1,32
 757 354 757 354 759 416 c 128,-1,33
 761 478 761 478 762.5 535.5 c 128,-1,34
 764 593 764 593 765 640.5 c 128,-1,35
 766 688 766 688 766 715 c 0,36,37
 766 799 766 799 761 851.5 c 128,-1,38
 756 904 756 904 741.5 933.5 c 128,-1,39
 727 963 727 963 701 974 c 128,-1,40
 675 985 675 985 633 985 c 0,41,42
 580 985 580 985 540 962 c 128,-1,43
 500 939 500 939 473.5 874.5 c 128,-1,44
 447 810 447 810 433.5 694.5 c 128,-1,45
 420 579 420 579 420 395 c 0,46,47
 420 289 420 289 421.5 227 c 128,-1,48
 423 165 423 165 430 131 c 128,-1,49
 437 97 437 97 451 83.5 c 128,-1,50
 465 70 465 70 489 61 c 1,51,-1
 489 35 l 1,52,-1
 283 4 l 2,53,54
 265 1 265 1 249 1 c 0,55,56
 228 1 228 1 210 12 c 128,-1,57
 192 23 192 23 178.5 57 c 128,-1,58
 165 91 165 91 157.5 154.5 c 128,-1,59
 150 218 150 218 150 324 c 0,60,61
 150 519 150 519 181 663 c 128,-1,62
 212 807 212 807 291 901 c 1,63,-1
 184 889 l 2,64,65
 175 888 175 888 167.5 887.5 c 128,-1,66
 160 887 160 887 153 887 c 0,67,68
 109 887 109 887 94.5 906 c 128,-1,69
 80 925 80 925 82 958 c 2,70,-1
 94 1249 l 2,71,72
 96 1293 96 1293 85.5 1312 c 128,-1,73
 75 1331 75 1331 55 1337 c 1,74,-1
 55 1362 l 1,75,-1
 291 1415 l 2,76,77
 314 1420 314 1420 329 1420 c 0,78,79
 348 1420 348 1420 360.5 1414.5 c 128,-1,80
 373 1409 373 1409 380.5 1400 c 128,-1,81
 388 1391 388 1391 391.5 1380 c 128,-1,82
 395 1369 395 1369 395 1358 c 2,83,-1
 385 983 l 1,84,85
 513 1065 513 1065 731 1065 c 0,86,87
 795 1065 795 1065 851 1052.5 c 128,-1,88
 907 1040 907 1040 948 1000.5 c 128,-1,89
 989 961 989 961 1012.5 888.5 c 128,-1,90
 1036 816 1036 816 1036 696 c 2,91,-1
 1036 645 l 1,92,-1
 1167 664 l 1,93,94
 1180 688 1180 688 1200.5 709.5 c 128,-1,95
 1221 731 1221 731 1252 746.5 c 128,-1,96
 1283 762 1283 762 1326.5 771 c 128,-1,97
 1370 780 1370 780 1430 780 c 0,98,99
 1451 780 1451 780 1468 777.5 c 128,-1,100
 1485 775 1485 775 1496 772 c 0,101,102
 1509 768 1509 768 1520 764 c 1,103,104
 1498 732 1498 732 1490.5 706.5 c 128,-1,105
 1483 681 1483 681 1483 659 c 0,106,107
 1483 621 1483 621 1496.5 590 c 128,-1,108
 1510 559 1510 559 1550 524 c 1,0,1
EndSplineSet
PairPos2: "'kern' Horizontal Kerning in Ethiopic lookup 1 subtable" uni12B9 dx=0 dy=0 dh=0 dv=0 dx=-193 dy=0 dh=0 dv=0
EndChar

StartChar: uni12AA
Encoding: 4778 4778 76
Width: 1624
GlyphClass: 2
Flags: W
AnchorPoint: "Anchor-0" 536 1449 basechar 0
LayerCount: 2
Fore
SplineSet
1550 -55 m 1,0,1
 1517 -69 1517 -69 1491.5 -77 c 128,-1,2
 1466 -85 1466 -85 1444 -88.5 c 128,-1,3
 1422 -92 1422 -92 1402 -93 c 128,-1,4
 1382 -94 1382 -94 1360 -94 c 0,5,6
 1322 -94 1322 -94 1293 -89.5 c 128,-1,7
 1264 -85 1264 -85 1243 -70.5 c 128,-1,8
 1222 -56 1222 -56 1207.5 -29.5 c 128,-1,9
 1193 -3 1193 -3 1186 41 c 1,10,-1
 913 16 l 2,11,12
 888 14 888 14 868.5 12.5 c 128,-1,13
 849 11 849 11 833 11 c 0,14,15
 806 11 806 11 789.5 16.5 c 128,-1,16
 773 22 773 22 765 35 c 128,-1,17
 757 48 757 48 754.5 70 c 128,-1,18
 752 92 752 92 752 125 c 0,19,20
 752 149 752 149 753 195 c 128,-1,21
 754 241 754 241 755.5 297.5 c 128,-1,22
 757 354 757 354 759 416 c 128,-1,23
 761 478 761 478 762.5 535.5 c 128,-1,24
 764 593 764 593 765 640.5 c 128,-1,25
 766 688 766 688 766 715 c 0,26,27
 766 799 766 799 761 851.5 c 128,-1,28
 756 904 756 904 741.5 933.5 c 128,-1,29
 727 963 727 963 701 974 c 128,-1,30
 675 985 675 985 633 985 c 0,31,32
 580 985 580 985 540 962 c 128,-1,33
 500 939 500 939 473.5 874.5 c 128,-1,34
 447 810 447 810 433.5 694.5 c 128,-1,35
 420 579 420 579 420 395 c 0,36,37
 420 289 420 289 421.5 227 c 128,-1,38
 423 165 423 165 430 131 c 128,-1,39
 437 97 437 97 451 83.5 c 128,-1,40
 465 70 465 70 489 61 c 1,41,-1
 489 35 l 1,42,-1
 283 4 l 2,43,44
 265 1 265 1 249 1 c 0,45,46
 228 1 228 1 210 12 c 128,-1,47
 192 23 192 23 178.5 57 c 128,-1,48
 165 91 165 91 157.5 154.5 c 128,-1,49
 150 218 150 218 150 324 c 0,50,51
 150 519 150 519 181 663 c 128,-1,52
 212 807 212 807 291 901 c 1,53,-1
 184 889 l 2,54,55
 175 888 175 888 167.5 887.5 c 128,-1,56
 160 887 160 887 153 887 c 0,57,58
 109 887 109 887 94.5 906 c 128,-1,59
 80 925 80 925 82 958 c 2,60,-1
 94 1249 l 2,61,62
 96 1293 96 1293 85.5 1312 c 128,-1,63
 75 1331 75 1331 55 1337 c 1,64,-1
 55 1362 l 1,65,-1
 291 1415 l 2,66,67
 314 1420 314 1420 329 1420 c 0,68,69
 348 1420 348 1420 360.5 1414.5 c 128,-1,70
 373 1409 373 1409 380.5 1400 c 128,-1,71
 388 1391 388 1391 391.5 1380 c 128,-1,72
 395 1369 395 1369 395 1358 c 2,73,-1
 385 983 l 1,74,75
 513 1065 513 1065 731 1065 c 0,76,77
 795 1065 795 1065 851 1052.5 c 128,-1,78
 907 1040 907 1040 948 1000.5 c 128,-1,79
 989 961 989 961 1012.5 888.5 c 128,-1,80
 1036 816 1036 816 1036 696 c 0,81,82
 1036 570 1036 570 1029 438.5 c 128,-1,83
 1022 307 1022 307 1022 162 c 0,84,85
 1022 148 1022 148 1021.5 137 c 128,-1,86
 1021 126 1021 126 1024.5 119 c 128,-1,87
 1028 112 1028 112 1037.5 108.5 c 128,-1,88
 1047 105 1047 105 1068 105 c 0,89,90
 1087 105 1087 105 1117 108 c 128,-1,91
 1147 111 1147 111 1192 117 c 1,92,93
 1203 141 1203 141 1227.5 162 c 128,-1,94
 1252 183 1252 183 1285.5 198.5 c 128,-1,95
 1319 214 1319 214 1361 222.5 c 128,-1,96
 1403 231 1403 231 1448 231 c 0,97,98
 1465 231 1465 231 1480 229.5 c 128,-1,99
 1495 228 1495 228 1506 226 c 0,100,101
 1519 223 1519 223 1530 221 c 1,102,103
 1511 178 1511 178 1503 147 c 128,-1,104
 1495 116 1495 116 1495 94 c 0,105,106
 1495 70 1495 70 1498 51 c 128,-1,107
 1501 32 1501 32 1508 14.5 c 128,-1,108
 1515 -3 1515 -3 1525 -20 c 128,-1,109
 1535 -37 1535 -37 1550 -55 c 1,0,1
EndSplineSet
PairPos2: "'kern' Horizontal Kerning in Ethiopic lookup 1 subtable" uni1295 dx=0 dy=0 dh=0 dv=0 dx=-160 dy=0 dh=0 dv=0
EndChar

